<?xml version="1.0" encoding="UTF-8" standalone="no"?>
<!-- Created with Inkscape (http://www.inkscape.org/) -->

<svg
   xmlns:dc="http://purl.org/dc/elements/1.1/"
   xmlns:cc="http://creativecommons.org/ns#"
   xmlns:rdf="http://www.w3.org/1999/02/22-rdf-syntax-ns#"
   xmlns:svg="http://www.w3.org/2000/svg"
   xmlns="http://www.w3.org/2000/svg"
   xmlns:sodipodi="http://sodipodi.sourceforge.net/DTD/sodipodi-0.dtd"
   xmlns:inkscape="http://www.inkscape.org/namespaces/inkscape"
   width="16pt"
   height="16pt"
   viewBox="0 0 5.6444445 5.6444445"
   version="1.1"
   id="svg547"
   inkscape:version="0.92.4 (5da689c313, 2019-01-14)"
   sodipodi:docname="safari-pinned-tab.svg"
   inkscape:export-filename="/home/emil/Pictures/date-it/PNG/bag-and-text-black-transparent-tiny.png"
   inkscape:export-xdpi="14.349491"
   inkscape:export-ydpi="14.349491">
  <defs
     id="defs541" />
  <sodipodi:namedview
     id="base"
     pagecolor="#ffffff"
     bordercolor="#666666"
     borderopacity="1.0"
     inkscape:pageopacity="0.0"
     inkscape:pageshadow="2"
     inkscape:zoom="11.313708"
     inkscape:cx="17.73081"
     inkscape:cy="8.2692751"
     inkscape:document-units="mm"
     inkscape:current-layer="layer1"
     showgrid="false"
     inkscape:pagecheckerboard="true"
     borderlayer="true"
     fit-margin-top="0"
     fit-margin-left="0"
     fit-margin-right="0"
     fit-margin-bottom="0"
     inkscape:window-width="2560"
     inkscape:window-height="1377"
     inkscape:window-x="3200"
     inkscape:window-y="28"
     inkscape:window-maximized="0"
     units="pt" />
  <metadata
     id="metadata544">
    <rdf:RDF>
      <cc:Work
         rdf:about="">
        <dc:format>image/svg+xml</dc:format>
        <dc:type
           rdf:resource="http://purl.org/dc/dcmitype/StillImage" />
        <dc:title></dc:title>
      </cc:Work>
    </rdf:RDF>
  </metadata>
  <g
     inkscape:label="Layer 1"
     inkscape:groupmode="layer"
     id="layer1"
     transform="translate(397.21175,-207.77698)">
    <path
       inkscape:connector-curvature="0"
       class="st1"
       d="m -395.03175,208.93113 c 0,-0.17938 0,-0.35263 0,-0.52627 0,-0.077 0.0534,-0.13323 0.1302,-0.13766 0.0101,-3.9e-4 0.0202,-3.9e-4 0.029,-3.9e-4 0.32369,0 0.64741,0 0.97152,0 0.0101,0 0.0202,-3.8e-4 0.029,3.9e-4 0.0603,0.004 0.12657,0.048 0.12516,0.13141 -0.002,0.17495 -7.6e-4,0.34975 -7.6e-4,0.53041 0.0161,7.6e-4 0.031,0.002 0.0468,0.002 0.26335,0 0.52627,0 0.78962,0 0.2493,0 0.49858,0 0.74829,0 0.10662,0 0.20463,0.0276 0.29021,0.0917 0.11408,0.0857 0.17415,0.19853 0.17415,0.34354 -3.9e-4,1.04016 -0.002,2.08072 10e-4,3.12087 7.7e-4,0.21415 -0.15297,0.39523 -0.3671,0.43369 -0.0375,0.006 -0.0766,0.0101 -0.11489,0.0101 -1.47301,3.9e-4 -2.946,0 -4.41901,7.7e-4 -0.1169,0 -0.22367,-0.0274 -0.31668,-0.0996 -0.10138,-0.079 -0.15661,-0.18281 -0.16447,-0.3113 -0.001,-0.0181 -7.7e-4,-0.0361 -7.7e-4,-0.0538 0,-0.4589 0,-0.91779 0,-1.37667 0,-0.56721 0.002,-1.13402 -10e-4,-1.70121 -0.002,-0.2617 0.18322,-0.41465 0.36671,-0.44815 0.0363,-0.006 0.074,-0.0101 0.11085,-0.0101 0.50685,-3.8e-4 1.01412,-3.8e-4 1.52137,-3.8e-4 0.0161,3.8e-4 0.0326,3.8e-4 0.0512,3.8e-4 z m -0.0558,2.12413 c 0.23813,-0.004 0.46553,-0.006 0.69911,-0.0101 -0.19894,0.49734 -0.39523,0.98723 -0.5912,1.47755 0.008,-7.7e-4 0.0121,-0.004 0.0161,-0.008 0.42169,-0.60442 0.84335,-1.20841 1.26504,-1.81283 3.9e-4,-7.7e-4 3.9e-4,-0.002 0,-0.004 -3.8e-4,-0.001 -10e-4,-0.002 -0.002,-0.006 -0.22657,-0.008 -0.45434,-0.0141 -0.68792,-0.022 0.17414,-0.45021 0.34602,-0.89463 0.51801,-1.33863 -0.004,-0.002 -0.006,-0.004 -0.008,-0.004 -0.40059,0.57258 -0.80079,1.14597 -1.20719,1.72848 z m -1.20799,-0.13302 c 0.0212,-0.006 0.0359,-0.0121 0.0508,-0.0161 0.14875,-0.0425 0.24267,-0.13766 0.27079,-0.29104 0.0121,-0.0645 0.0181,-0.13101 0.0202,-0.19672 0.002,-0.17898 7.7e-4,-0.35802 0.001,-0.53744 0,-0.0302 7.7e-4,-0.0607 0.004,-0.0909 0.0161,-0.13685 0.0839,-0.23441 0.21538,-0.28153 0.0451,-0.0161 0.0927,-0.0252 0.14008,-0.0343 0.0359,-0.006 0.0732,-0.008 0.11207,-0.0121 0,-0.0534 0,-0.105 0,-0.1566 -0.006,-0.002 -0.0101,-0.004 -0.0141,-0.004 -0.12617,0.004 -0.25013,0.0204 -0.36546,0.0756 -0.12657,0.0609 -0.20879,0.15882 -0.24557,0.29477 -0.0161,0.0617 -0.0232,0.12436 -0.0232,0.18805 -3.8e-4,0.20959 3.8e-4,0.41879 -3.8e-4,0.6284 0,0.0385 -0.004,0.0774 -0.0101,0.11489 -0.0224,0.10823 -0.0849,0.18402 -0.19148,0.21828 -0.0363,0.0121 -0.0744,0.0181 -0.11246,0.0252 -0.0319,0.006 -0.0649,0.006 -0.0976,0.0101 0,0.0476 0,0.0927 0,0.14008 0.0181,0.002 0.0347,0.002 0.0508,0.004 0.0369,0.006 0.074,0.008 0.10944,0.0181 0.13726,0.0361 0.22159,0.12275 0.24434,0.2646 0.006,0.0323 0.008,0.0657 0.008,0.0988 7.4e-4,0.20135 -7.7e-4,0.40226 10e-4,0.60359 3.9e-4,0.0562 0.006,0.11328 0.0161,0.1683 0.0335,0.1814 0.13605,0.30261 0.31668,0.35389 0.0988,0.028 0.19974,0.0385 0.30221,0.0385 0.004,0 0.008,-0.002 0.0141,-0.004 0,-0.052 0,-0.10339 0,-0.15802 -0.0161,-10e-4 -0.0284,-0.002 -0.0417,-0.004 -0.0826,-0.006 -0.16447,-0.0161 -0.24187,-0.048 -0.0855,-0.0355 -0.14088,-0.0979 -0.1687,-0.18603 -0.0161,-0.052 -0.0181,-0.10541 -0.0202,-0.15923 -3.9e-4,-0.18885 7.4e-4,-0.37745 -7.7e-4,-0.56638 -3.8e-4,-0.052 -0.004,-0.10461 -0.0121,-0.1562 -0.0248,-0.16951 -0.11751,-0.28113 -0.28568,-0.32537 -0.008,-0.002 -0.0161,-0.004 -0.024,-0.006 -0.006,-0.002 -0.0101,-0.006 -0.0206,-0.0141 z m 3.00099,-1.45897 c 0.0181,0.001 0.031,0.002 0.0447,0.004 0.0826,0.008 0.16366,0.0202 0.23979,0.0562 0.0814,0.0389 0.13847,0.10037 0.16285,0.18724 0.0121,0.046 0.0208,0.0947 0.0212,0.1423 0.002,0.182 0,0.3638 0.002,0.5453 3.6e-4,0.0578 0.004,0.11569 0.0101,0.17273 0.0232,0.17979 0.11911,0.29806 0.2989,0.34189 0.008,0.002 0.0161,0.006 0.0236,0.0101 0,0.004 0,0.006 0,0.008 -0.0161,0.004 -0.0326,0.0101 -0.0492,0.0141 -0.13806,0.0409 -0.22943,0.12859 -0.26085,0.27079 -0.0121,0.0562 -0.0216,0.11408 -0.0224,0.17152 -0.004,0.20506 -10e-4,0.41053 -0.002,0.61559 0,0.0331 -0.002,0.0661 -0.008,0.0988 -0.0202,0.11649 -0.083,0.20014 -0.19591,0.23936 -0.0476,0.0161 -0.0983,0.0252 -0.14834,0.0343 -0.0389,0.006 -0.0786,0.008 -0.1165,0.0121 0,0.055 0,0.10662 0,0.16205 0.13262,-0.002 0.26045,-0.0121 0.38201,-0.0649 0.0996,-0.0425 0.16991,-0.11489 0.2129,-0.21413 0.0339,-0.0782 0.0488,-0.16084 0.0488,-0.24558 7.7e-4,-0.21084 3.9e-4,-0.42169 10e-4,-0.63211 0,-0.0343 0.002,-0.0691 0.008,-0.10299 0.0202,-0.12819 0.0901,-0.21621 0.21333,-0.25962 0.0244,-0.008 0.0504,-0.0141 0.076,-0.0181 0.0377,-0.006 0.076,-0.0101 0.11408,-0.0141 0,-0.048 0,-0.0939 0,-0.14048 -0.0161,-7.7e-4 -0.0276,-0.001 -0.0401,-0.002 -0.0633,-0.006 -0.12577,-0.0141 -0.18522,-0.0381 -0.083,-0.0335 -0.14109,-0.0917 -0.16407,-0.17858 -0.0121,-0.0459 -0.0202,-0.0947 -0.0208,-0.14229 -0.002,-0.20506 -3.8e-4,-0.41053 -10e-4,-0.61559 -3.8e-4,-0.0468 -0.002,-0.0939 -0.0101,-0.13967 -0.0256,-0.17777 -0.12194,-0.30344 -0.28692,-0.37538 -0.10259,-0.0447 -0.21126,-0.0591 -0.32206,-0.0625 -0.0101,-3.8e-4 -0.0181,0.002 -0.0294,0.004 0,0.0452 0,0.0877 0,0.13021 7.6e-4,0.008 0.002,0.0161 0.004,0.0282 z m -0.58953,-0.9558 c -0.33776,0 -0.67181,0 -1.00875,0 0,0.14169 0,0.28153 0,0.42086 0.0657,0.008 0.98064,0.004 1.00875,-0.004 0,-0.13806 0,-0.27532 0,-0.41754 z"
       id="path265"
       style="fill:#000000;stroke-width:0.00413416"
       inkscape:export-filename="/home/emil/Pictures/date-it/PNG/bag-white-transparent-huge.png"
       inkscape:export-xdpi="603.83002"
       inkscape:export-ydpi="603.83002" />
    <g
       aria-label="Data- | Elektro- | Informationsteknik"
       style="font-style:normal;font-variant:normal;font-weight:normal;font-stretch:normal;font-size:5.47627258px;line-height:1.25;font-family:'Open Sans';-inkscape-font-specification:'Open Sans';text-align:center;letter-spacing:0px;word-spacing:0px;text-anchor:middle;fill:#000000;fill-opacity:1;stroke:none;stroke-width:0.29337177"
       id="text865-1"
       inkscape:export-filename="/home/emil/Pictures/date-it/PNG/text-white-transparent-tiny.png"
       inkscape:export-xdpi="26.34"
       inkscape:export-ydpi="26.34" />
  </g>
</svg>
