<?xml version="1.0" encoding="UTF-8" standalone="no"?>
<!-- Generator: Adobe Illustrator 18.0.0, SVG Export Plug-In . SVG Version: 6.00 Build 0)  -->

<svg
   xmlns:dc="http://purl.org/dc/elements/1.1/"
   xmlns:cc="http://creativecommons.org/ns#"
   xmlns:rdf="http://www.w3.org/1999/02/22-rdf-syntax-ns#"
   xmlns:svg="http://www.w3.org/2000/svg"
   xmlns="http://www.w3.org/2000/svg"
   xmlns:sodipodi="http://sodipodi.sourceforge.net/DTD/sodipodi-0.dtd"
   xmlns:inkscape="http://www.inkscape.org/namespaces/inkscape"
   version="1.1"
   id="Layer_1"
   x="0px"
   y="0px"
   viewBox="0 0 669 198"
   enable-background="new 0 0 768 1024"
   xml:space="preserve"
   inkscape:version="0.91 r13725"
   sodipodi:docname="bokio_logo.svg"
   width="669"
   height="198"><metadata
     id="metadata3545"><rdf:RDF><cc:Work
         rdf:about=""><dc:format>image/svg+xml</dc:format><dc:type
           rdf:resource="http://purl.org/dc/dcmitype/StillImage" /><dc:title></dc:title></cc:Work></rdf:RDF></metadata><defs
     id="defs3543" /><sodipodi:namedview
     pagecolor="#ffffff"
     bordercolor="#666666"
     borderopacity="1"
     objecttolerance="10"
     gridtolerance="10"
     guidetolerance="10"
     inkscape:pageopacity="0"
     inkscape:pageshadow="2"
     inkscape:window-width="2560"
     inkscape:window-height="1377"
     id="namedview3541"
     showgrid="false"
     inkscape:zoom="0.96257583"
     inkscape:cx="446.91522"
     inkscape:cy="514.16951"
     inkscape:window-x="3832"
     inkscape:window-y="708"
     inkscape:window-maximized="1"
     inkscape:current-layer="Layer_1" /><g
     id="g3507"
     transform="matrix(1.3332462,0,0,1.3332462,-177.85504,-583.9489)"><rect
       x="529.20001"
       y="473.60001"
       width="17.200001"
       height="76.199997"
       id="rect3509"
       style="fill:#28cdaa" /><path
       d="m 346.8,509 c 5.9,-3.5 8.8,-8.3 8.8,-14.4 0,-4 -0.8,-7.4 -2.5,-10.2 -1.6,-2.7 -3.9,-5 -6.9,-6.7 -2.9,-1.7 -6.4,-2.9 -10.5,-3.6 -4.1,-0.7 -8.5,-1 -13.4,-1 -3.6,0 -7.5,0.2 -11.7,0.5 -4.2,0.3 -8,0.8 -11.5,1.5 l 0,73.9 c 4.5,1 8.8,1.6 12.9,1.8 4.1,0.3 8.3,0.4 12.5,0.4 11.5,0 20.2,-2 26,-6 5.8,-4 8.7,-10 8.7,-18 0,-4 -0.9,-7.5 -2.6,-10.7 -1.6,-3.2 -4.9,-5.7 -9.8,-7.5 z m -30.9,-21.7 c 1.3,-0.1 2.8,-0.2 4.5,-0.3 1.7,0 3.3,-0.1 4.7,-0.1 4.5,0 8,0.6 10.3,1.9 2.3,1.2 3.5,3.4 3.5,6.5 0,3 -1.1,5.2 -3.4,6.5 -2.3,1.4 -6,2 -11.3,2 l -8.4,0 0,-16.5 z m 21.4,47.6 c -3.2,1.5 -7.3,2.2 -12.4,2.2 -1.8,0 -3.4,0 -4.8,-0.1 -1.5,-0.1 -2.8,-0.2 -4.1,-0.3 l 0,-19.7 10.8,0 c 4.9,0 8.7,0.8 11.3,2.3 2.6,1.5 4,4 4,7.5 -0.1,4 -1.7,6.7 -4.8,8.1 z"
       id="path3511"
       inkscape:connector-curvature="0"
       style="fill:#28cdaa" /><path
       d="m 433,482.4 c -3.4,-3.4 -7.5,-5.9 -12.1,-7.6 -4.6,-1.7 -9.5,-2.5 -14.7,-2.5 -5.1,0 -9.9,0.8 -14.5,2.5 -4.6,1.7 -8.6,4.2 -12.1,7.6 -3.5,3.4 -6.3,7.5 -8.3,12.5 -2.1,4.9 -3.1,10.7 -3.1,17.2 0,6.5 1,12.3 3,17.2 2,4.9 4.7,9.1 8.1,12.4 3.4,3.3 7.5,5.8 12.1,7.5 4.6,1.7 9.5,2.5 14.7,2.5 5.3,0 10.4,-0.8 15,-2.5 4.7,-1.7 8.7,-4.2 12,-7.5 3.4,-3.3 6,-7.5 8,-12.4 1.9,-4.9 2.9,-10.7 2.9,-17.2 0,-6.5 -1,-12.3 -3,-17.2 -1.9,-5 -4.6,-9.2 -8,-12.5 z m -8,39.8 c -0.9,3 -2.2,5.6 -4,7.8 -1.7,2.2 -3.9,3.8 -6.4,5 -2.5,1.2 -5.4,1.8 -8.5,1.8 -3.2,0 -6.1,-0.6 -8.6,-1.8 -2.5,-1.2 -4.6,-2.8 -6.3,-5 -1.7,-2.2 -3,-4.7 -4,-7.8 -0.9,-3 -1.4,-6.4 -1.4,-10.1 0,-3.7 0.5,-7 1.4,-10.1 0.9,-3 2.2,-5.6 4,-7.8 1.7,-2.2 3.8,-3.8 6.3,-5.1 2.5,-1.3 5.3,-1.8 8.6,-1.8 3.2,0 6,0.6 8.5,1.8 2.5,1.2 4.7,2.8 6.4,5 1.7,2.2 3,4.8 4,7.8 0.9,3 1.4,6.4 1.4,10.2 0,3.8 -0.5,7.1 -1.4,10.1 z"
       id="path3513"
       inkscape:connector-curvature="0"
       style="fill:#28cdaa" /><path
       d="m 632.4,494.8 c -2,-4.9 -4.7,-9.1 -8.1,-12.5 -3.4,-3.4 -7.5,-5.9 -12.1,-7.6 -4.6,-1.7 -9.5,-2.5 -14.7,-2.5 -5.1,0 -9.9,0.8 -14.5,2.5 -4.6,1.7 -8.6,4.2 -12.1,7.6 -3.5,3.4 -6.3,7.5 -8.3,12.5 -2.1,4.9 -3.1,10.7 -3.1,17.2 0,6.5 1,12.3 3,17.2 2,4.9 4.7,9.1 8.1,12.4 3.4,3.3 7.5,5.8 12.1,7.5 4.6,1.7 9.5,2.5 14.7,2.5 5.3,0 10.4,-0.8 15,-2.5 4.7,-1.7 8.7,-4.2 12,-7.5 3.4,-3.3 6,-7.5 8,-12.4 1.9,-4.9 2.9,-10.7 2.9,-17.2 0.1,-6.5 -0.9,-12.2 -2.9,-17.2 z m -16.1,27.4 c -0.9,3 -2.2,5.6 -4,7.8 -1.7,2.2 -3.9,3.8 -6.4,5 -2.5,1.2 -5.4,1.8 -8.5,1.8 -3.2,0 -6.1,-0.6 -8.6,-1.8 -2.5,-1.2 -4.6,-2.8 -6.3,-5 -1.7,-2.2 -3,-4.7 -4,-7.8 -0.9,-3 -1.4,-6.4 -1.4,-10.1 0,-3.7 0.5,-7 1.4,-10.1 0.9,-3 2.2,-5.6 4,-7.8 1.7,-2.2 3.8,-3.8 6.3,-5.1 2.5,-1.2 5.3,-1.8 8.6,-1.8 3.2,0 6,0.6 8.5,1.8 2.5,1.2 4.7,2.8 6.4,5 1.7,2.2 3,4.8 4,7.8 0.9,3 1.4,6.4 1.4,10.2 0,3.8 -0.5,7.1 -1.4,10.1 z"
       id="path3515"
       inkscape:connector-curvature="0"
       style="fill:#28cdaa" /><path
       d="m 487.3,509.1 c 5.8,-5.8 11.3,-11.5 16.6,-17.2 5.2,-5.7 10.5,-11.6 15.7,-17.8 l -20.4,0 c -3.9,4.3 -8.1,9 -12.6,14.1 -4.6,5.1 -9,9.9 -13.4,14.5 l 0,-28.6 -17.2,0 0,76.2 17.2,0 0,-32.3 c 2.6,2.1 5.3,4.4 7.9,7.1 2.6,2.7 5.2,5.5 7.6,8.4 2.4,2.9 4.7,5.8 6.8,8.7 2.1,2.9 3.9,5.6 5.5,8 l 20.4,0 c -5.2,-8.4 -10.7,-16.1 -16.3,-23.1 -5.8,-6.9 -11.7,-12.9 -17.8,-18 z"
       id="path3517"
       inkscape:connector-curvature="0"
       style="fill:#28cdaa" /></g><g
     id="g3519"
     transform="matrix(1.3332462,0,0,1.3332462,-177.85504,-583.9489)"><g
       id="g3521"><g
         id="g3523"><polygon
           points="207.9,512 282.5,437.5 133.4,437.5 "
           id="polygon3525"
           style="fill:#48baa2" /><polygon
           points="207.9,512 133.4,437.5 133.4,586.5 "
           id="polygon3527"
           style="fill:#48baa2" /></g><g
         id="g3529"><polygon
           points="207.9,512 282.5,437.5 133.4,437.5 "
           id="polygon3531"
           style="fill:#75dfc9" /><polygon
           points="207.9,512 133.4,437.5 133.4,586.5 "
           id="polygon3533"
           style="fill:#48baa2" /></g></g><g
       id="g3535"><polygon
         points="207.9,512 133.4,586.5 163.8,586.5 "
         id="polygon3537"
         style="fill:#368b7a" /><polygon
         points="282.5,586.5 207.9,512 163.8,586.5 "
         id="polygon3539"
         style="fill:#3ea18c" /></g></g></svg>