<svg xmlns="http://www.w3.org/2000/svg" viewBox="0 0 83.61 94.66"><defs><style>.cls-1{fill:#006885;}</style></defs><title>Endian_solidlogo_symbolonly_4_color</title><g id="Layer_2" data-name="Layer 2"><g id="Expanded"><path class="cls-1" d="M81.7,43.93c-.35-.25-2.6-1.83-6.82-4.73a.78.78,0,0,0-.89,0h0l-8.66,5.1h0a.67.67,0,0,0-.25.25.78.78,0,0,0,.28,1.06L67.75,47,42.21,62.13l-5.61-2.8-8-4.11-3-1.5a4.27,4.27,0,0,0-2.16-.36A4.67,4.67,0,0,0,19.7,56.3l-.2.41C18.73,58.24,18.06,61.52,21,63l18.88,9.8a4.91,4.91,0,0,0,2.21.52,5,5,0,0,0,2.53-.69L52.5,68c11.09-6.49,27.83-16.3,29.19-17.23a4.1,4.1,0,0,0,1.87-3.35A4.24,4.24,0,0,0,81.7,43.93Z"/><path class="cls-1" d="M81.75,65.1c-.39-.33-2.67-2-6.92-4.89a.79.79,0,0,0-.87,0h0l-8.61,5.11h0a.75.75,0,0,0-.26.24.78.78,0,0,0,.21,1.08l2.52,1.66L42.23,83.43,27.31,74.86l-17.07-10V29.76l32-18.83L67.76,26.08,42.21,40.94l-13.63-6.7-3-1.5a4.24,4.24,0,0,0-2.16-.36,4.67,4.67,0,0,0-3.76,2.95l-.2.4a7.1,7.1,0,0,0-.63,2.34A3.79,3.79,0,0,0,21,42l7.5,3.72,11.71,6.21A5.1,5.1,0,0,0,45,51.77c1.44-.86,35.38-21.06,36.7-22a3.93,3.93,0,0,0,1.91-3.22,4.42,4.42,0,0,0-1.9-3.52c-.65-.49-9.58-5.93-17.51-10.7C54.51,6.53,44.8.72,44.79.72a5.39,5.39,0,0,0-5.33,0L2.52,22.47A5.18,5.18,0,0,0,0,26.9v41a5.16,5.16,0,0,0,2.52,4.42l15,9L39.64,94a5.31,5.31,0,0,0,2.6.68,4.51,4.51,0,0,0,2.4-.76c3.72-2.2,36.42-21.5,37.06-22a3.94,3.94,0,0,0,1.86-3.12A4.68,4.68,0,0,0,81.75,65.1Z"/></g></g></svg>