<svg xmlns="http://www.w3.org/2000/svg" width="1615.5" height="240" viewBox="0 0 1615.5 240"><title>logo-standard-cmyk-tm</title><path d="M1586.2,44.82a17.12,17.12,0,0,1,1.36-7,13.3,13.3,0,0,1,3.56-5,16.2,16.2,0,0,1,4.75-2.84,13.71,13.71,0,0,1,10.23,0,15.36,15.36,0,0,1,4.65,2.84,13.35,13.35,0,0,1,3.44,4.91,17.21,17.21,0,0,1,1.31,6.82,16.81,16.81,0,0,1-1.36,6.89,13.29,13.29,0,0,1-3.55,4.92,16.82,16.82,0,0,1-4.75,2.81,14.28,14.28,0,0,1-5.13,1,14.13,14.13,0,0,1-5.11-1,15.93,15.93,0,0,1-4.65-2.81,13.36,13.36,0,0,1-3.44-4.87A16.9,16.9,0,0,1,1586.2,44.82Zm2.63,0a12.88,12.88,0,0,0,3.27,9.1,11.15,11.15,0,0,0,8.61,3.54,11.6,11.6,0,0,0,8.78-3.56,12.91,12.91,0,0,0,3.39-9.27,13.1,13.1,0,0,0-3.27-9.21,11.1,11.1,0,0,0-8.62-3.58,11.52,11.52,0,0,0-8.78,3.6A13.17,13.17,0,0,0,1588.83,44.82Zm7.15,7.62V36.19a1,1,0,0,1,.27-.68.88.88,0,0,1,.69-.29h4.44c3.62,0,5.44,1.79,5.44,5.35q0,4-3.15,4.91l3,6.14a.8.8,0,0,1,0,.33,1.36,1.36,0,0,1-.48,1,1.47,1.47,0,0,1-1,.45c-.38,0-.71-.27-1-.8L1601,46h-2.19v6.49c0,.67-.46,1-1.38,1S1596,53.11,1596,52.44Zm2.82-8.91h2.58a2.34,2.34,0,0,0,2.62-2.67c0-1.91-.87-2.87-2.62-2.87h-2.58Z" fill="#292728"/><path d="M815.33,194.14a8.68,8.68,0,0,0,5.49,1.86,9.74,9.74,0,0,0,6-1.86,5.37,5.37,0,0,0,2.48-4.35V44.68a5.05,5.05,0,0,0-2.38-4.34,10.39,10.39,0,0,0-6.1-1.66,10.89,10.89,0,0,0-6.21,1.66,5,5,0,0,0-2.49,4.34v67.69a32,32,0,0,0-10.76-11.18A29.46,29.46,0,0,0,785,96.64q-15.12,0-26.09,11.7a39.54,39.54,0,0,0-11,28V157.5a40.62,40.62,0,0,0,11,27.94q11,12.23,25.47,12.22a32.53,32.53,0,0,0,17.18-4.77q7.86-4.75,11.38-11.38v8.28A5.43,5.43,0,0,0,815.33,194.14Zm-3.21-31q0,5.17-7.24,12.11t-16.35,6.93q-9.31,0-16.36-7.55a24.42,24.42,0,0,1-7-17.08V136.38q0-9.32,7-16.76t16.56-7.45a23,23,0,0,1,16.36,6.72q7,6.74,7,17.49Z" fill="#302e2f"/><path d="M910,151.91a45.32,45.32,0,0,0,6.93-.42,18.77,18.77,0,0,0,5.59-2,9.55,9.55,0,0,0,4.45-5.18,26.29,26.29,0,0,0,1.45-9.62,35.44,35.44,0,0,0-11.8-27.22,39.86,39.86,0,0,0-28-10.87,40.55,40.55,0,0,0-29.08,11.59q-12.11,11.59-12.11,27.53V157.5q0,18,12.84,29.08t33.12,11.08q13.86,0,23.28-5t9.42-9.73a8.4,8.4,0,0,0-2.07-5.28,6.19,6.19,0,0,0-5-2.59q-1.86,0-5,2a53.2,53.2,0,0,1-8.18,4,31.37,31.37,0,0,1-11.9,2.07q-13.05,0-21.22-6.83t-8.18-18.22v-6.21Zm-45.34-19a21,21,0,0,1,7-16,23.85,23.85,0,0,1,16.77-6.52,22.45,22.45,0,0,1,16.76,7,22.74,22.74,0,0,1,6.84,16.35c0,2.63-.63,4.38-1.87,5.28s-3.65,1.35-7.24,1.35h-38.3Z" fill="#302e2f"/><path d="M698.38,99.54a9.21,9.21,0,0,0-5.59-1.66,10.42,10.42,0,0,0-6.11,1.66,5.06,5.06,0,0,0-2.38,4.35v85.9a5.38,5.38,0,0,0,2.49,4.35,10.52,10.52,0,0,0,12.1-.11q2.6-2,2.59-4.24v-47.2q0-13.46,7.87-21.94t18.42-8.48h7a6,6,0,0,0,4.66-2.28,8,8,0,0,0,2-5.38,8.38,8.38,0,0,0-2-5.49,5.88,5.88,0,0,0-4.66-2.38h-7a27.92,27.92,0,0,0-16.14,5,33.66,33.66,0,0,0-11,12v-9.72A5.11,5.11,0,0,0,698.38,99.54Z" fill="#302e2f"/><path d="M594.67,108.54q-12.1,11.91-12.11,27.84V157.5q0,15.93,12.21,28.05t28.57,12.11q16.35,0,28.67-12.22t12.32-27.94V136.38q0-16.14-12.22-27.94a40,40,0,0,0-28.77-11.8A39.54,39.54,0,0,0,594.67,108.54Zm45.44,11.08q7,7.45,7,16.76V157.5a24.42,24.42,0,0,1-7,17.08,22.16,22.16,0,0,1-16.77,7.55q-9.52,0-16.56-7.45a24.31,24.31,0,0,1-7-17.18V136.38a24,24,0,0,1,6.94-16.76,21.94,21.94,0,0,1,16.66-7.45A22.27,22.27,0,0,1,640.11,119.62Z" fill="#302e2f"/><path d="M521.81,118.58q6.42-6.42,18.83-6.41a29.14,29.14,0,0,1,14.8,3.62q6.31,3.61,7.15,3.62a6.33,6.33,0,0,0,5.07-2.79,9.22,9.22,0,0,0,2.17-5.7q0-5.17-8.8-9.73T539.4,96.64q-20.28,0-30.74,11.18t-10.45,29v20.7q0,18,10.45,29.08t30.95,11.08q13.25,0,22.36-4.77t9.1-9.93a8.79,8.79,0,0,0-2.17-5.59,6.78,6.78,0,0,0-5.49-2.69q-1,0-7.45,3.72a29.5,29.5,0,0,1-15.11,3.73q-25.46,0-25.46-24.63V136.8Q515.39,125,521.81,118.58Z" fill="#302e2f"/><path d="M1010.4,194.14a8.68,8.68,0,0,0,5.49,1.86,9.7,9.7,0,0,0,6-1.86,5.38,5.38,0,0,0,2.49-4.35V44.68a5.08,5.08,0,0,0-2.38-4.34,10.44,10.44,0,0,0-6.11-1.66,10.93,10.93,0,0,0-6.21,1.66,5,5,0,0,0-2.48,4.34v67.69a32.14,32.14,0,0,0-10.77-11.18,29.46,29.46,0,0,0-16.35-4.55q-15.11,0-26.08,11.7a39.5,39.5,0,0,0-11,28V157.5a40.58,40.58,0,0,0,11,27.94q11,12.23,25.46,12.22a32.51,32.51,0,0,0,17.18-4.77q7.86-4.75,11.38-11.38v8.28A5.46,5.46,0,0,0,1010.4,194.14Zm-3.2-31q0,5.17-7.25,12.11t-16.35,6.93q-9.32,0-16.35-7.55a24.38,24.38,0,0,1-7-17.08V136.38q0-9.32,7-16.76t16.56-7.45a22.94,22.94,0,0,1,16.35,6.72q7,6.74,7,17.49Z" fill="#302e2f"/><path d="M1563.25,151.91a45.37,45.37,0,0,0,6.94-.42,18.77,18.77,0,0,0,5.59-2,9.55,9.55,0,0,0,4.45-5.18,26.5,26.5,0,0,0,1.45-9.62,35.47,35.47,0,0,0-11.8-27.22,39.86,39.86,0,0,0-28-10.87,40.55,40.55,0,0,0-29.08,11.59q-12.11,11.59-12.11,27.53V157.5q0,18,12.83,29.08t33.12,11.08q13.88,0,23.29-5t9.42-9.73a8.4,8.4,0,0,0-2.07-5.28,6.21,6.21,0,0,0-5-2.59q-1.86,0-5,2a53,53,0,0,1-8.17,4,31.38,31.38,0,0,1-11.91,2.07q-13,0-21.21-6.83t-8.18-18.22v-6.21Zm-45.33-19a21,21,0,0,1,7-16,23.85,23.85,0,0,1,16.77-6.52,22.45,22.45,0,0,1,16.76,7,22.73,22.73,0,0,1,6.83,16.35c0,2.63-.62,4.38-1.86,5.28s-3.66,1.35-7.24,1.35h-38.3Z" fill="#302e2f"/><path d="M1451.16,99.54a9.19,9.19,0,0,0-5.59-1.66,10.39,10.39,0,0,0-6.1,1.66,5.06,5.06,0,0,0-2.38,4.35v85.9a5.39,5.39,0,0,0,2.48,4.35,10.53,10.53,0,0,0,12.11-.11q2.6-2,2.59-4.24v-47.2q0-13.46,7.86-21.94t18.43-8.48h7a6,6,0,0,0,4.65-2.28,8,8,0,0,0,2-5.38,8.39,8.39,0,0,0-2-5.49,5.86,5.86,0,0,0-4.65-2.38h-7a27.92,27.92,0,0,0-16.15,5,33.53,33.53,0,0,0-11,12v-9.72A5.12,5.12,0,0,0,1451.16,99.54Z" fill="#302e2f"/><path d="M1171.78,60.41a5.06,5.06,0,0,0,4.45-2.27,10.12,10.12,0,0,0,1.55-5.8,9.35,9.35,0,0,0-1.55-5.38,5.07,5.07,0,0,0-4.45-2.28h-72.86a9.35,9.35,0,0,0-5.49,1.66,5.24,5.24,0,0,0-2.38,4.55V190a4.91,4.91,0,0,0,2.59,4.45,12.8,12.8,0,0,0,12.21,0,4.93,4.93,0,0,0,2.59-4.45V127.48h32.29a5.14,5.14,0,0,0,4.45-2.17,8.2,8.2,0,0,0,1.55-4.86,8.88,8.88,0,0,0-1.55-5.28,5.15,5.15,0,0,0-4.45-2.18h-32.29V60.41Z" fill="#302e2f"/><path d="M1206.28,197.66a39.49,39.49,0,0,0,28.66-11.91q12.12-11.9,12.11-27.84v-54a5.15,5.15,0,0,0-2.38-4.25,10,10,0,0,0-6.1-1.76,10.2,10.2,0,0,0-6.11,1.86c-1.72,1.25-2.59,2.63-2.59,4.15v54a23.69,23.69,0,0,1-7,16.87,22.47,22.47,0,0,1-33.33-.1q-7-7.45-7-16.77V104.09q0-2.28-2.59-4.24a9.49,9.49,0,0,0-5.9-2,10.17,10.17,0,0,0-6.1,1.86,5.34,5.34,0,0,0-2.59,4.35v53.82q0,15.94,12.11,27.84A39.75,39.75,0,0,0,1206.28,197.66Z" fill="#302e2f"/><path d="M1347,99.85a9.49,9.49,0,0,0-5.9-2,10.17,10.17,0,0,0-6.1,1.86,5.34,5.34,0,0,0-2.59,4.35v53.82q0,15.94,12.11,27.84a40.7,40.7,0,0,0,57.54,0q12.12-11.9,12.11-27.84v-54a5.15,5.15,0,0,0-2.38-4.25,10,10,0,0,0-6.1-1.76,10.2,10.2,0,0,0-6.11,1.86c-1.72,1.25-2.59,2.63-2.59,4.15v54a23.69,23.69,0,0,1-7,16.87,22.47,22.47,0,0,1-33.33-.1q-7-7.45-7-16.77V104.09Q1349.63,101.81,1347,99.85Z" fill="#302e2f"/><path d="M1312.68,111.34a4.45,4.45,0,0,0,3.73-2,7.67,7.67,0,0,0,1.45-4.66,8.15,8.15,0,0,0-1.45-4.76,4.39,4.39,0,0,0-3.73-2.07H1286.6V58.14c0-1.66-.9-3.07-2.69-4.25a10.77,10.77,0,0,0-6-1.75,10.41,10.41,0,0,0-5.8,1.75c-1.79,1.18-2.69,2.59-2.69,4.25v106.6q0,31.26,34.36,31.26h6.42a6.92,6.92,0,0,0,5.38-2.28,7.72,7.72,0,0,0,2.07-5.38,7.6,7.6,0,0,0-2-5.28,7,7,0,0,0-5.48-2.17h-6.42q-9.52,0-13.35-3.62t-3.83-12.53v-53.4Z" fill="#302e2f"/><path d="M389.74,86.08q0-22.14-12.63-31.77t-33.32-9.63H305.91a7,7,0,0,0-4.45,1.87,5.41,5.41,0,0,0-1.76,4.14v139.1a5.14,5.14,0,0,0,2.58,4.55,12.07,12.07,0,0,0,12.22,0,5.15,5.15,0,0,0,2.59-4.55V128.93h23.8l31.26,60.65q3.51,6.84,7.86,6.83a10.76,10.76,0,0,0,7-2.79q3.31-2.79,3.31-6.11a5.84,5.84,0,0,0-.82-2.9L358.9,126.45Q389.74,120.24,389.74,86.08Zm-45.95,28.36h-26.7v-54h26.7q28.56,0,28.56,26.92Q372.35,114.44,343.79,114.44Z" fill="#302e2f"/><path d="M465,151.91a45.23,45.23,0,0,0,6.93-.42,18.67,18.67,0,0,0,5.59-2,9.55,9.55,0,0,0,4.45-5.18,26.29,26.29,0,0,0,1.45-9.62,35.44,35.44,0,0,0-11.8-27.22,39.85,39.85,0,0,0-27.94-10.87,40.56,40.56,0,0,0-29.09,11.59q-12.1,11.59-12.11,27.53V157.5q0,18,12.84,29.08t33.12,11.08q13.86,0,23.28-5t9.42-9.73a8.4,8.4,0,0,0-2.07-5.28,6.19,6.19,0,0,0-5-2.59q-1.86,0-5,2a53.2,53.2,0,0,1-8.18,4,31.37,31.37,0,0,1-11.9,2.07q-13.05,0-21.22-6.83t-8.18-18.22v-6.21Zm-45.34-19a21,21,0,0,1,7-16,23.85,23.85,0,0,1,16.77-6.52,22.49,22.49,0,0,1,16.77,7,22.77,22.77,0,0,1,6.83,16.35c0,2.63-.62,4.38-1.87,5.28s-3.65,1.35-7.24,1.35h-38.3Z" fill="#302e2f"/><circle cx="128" cy="120" r="18" fill="#00a955"/><circle cx="238" cy="120" r="18" fill="#0072bc"/><circle cx="18" cy="120" r="18" fill="#183c80"/><path d="M143,225V171a15,15,0,0,0-30,0v54a15,15,0,0,0,30,0Z" fill="#183c80"/><path d="M183,211a15,15,0,0,0,15-15V45a15,15,0,0,0-30,0V196A15,15,0,0,0,183,211Z" fill="#0072bc"/><path d="M73,211a15,15,0,0,0,15-15V45a15,15,0,0,0-30,0V196A15,15,0,0,0,73,211Z" fill="#183c80"/><path d="M113,15V69a15,15,0,0,0,30,0V15a15,15,0,0,0-30,0Z" fill="#0072bc"/></svg>