<?xml version="1.0" encoding="UTF-8" standalone="no"?>
<!-- Created with Inkscape (http://www.inkscape.org/) -->

<svg
   xmlns:dc="http://purl.org/dc/elements/1.1/"
   xmlns:cc="http://creativecommons.org/ns#"
   xmlns:rdf="http://www.w3.org/1999/02/22-rdf-syntax-ns#"
   xmlns:svg="http://www.w3.org/2000/svg"
   xmlns="http://www.w3.org/2000/svg"
   xmlns:sodipodi="http://sodipodi.sourceforge.net/DTD/sodipodi-0.dtd"
   xmlns:inkscape="http://www.inkscape.org/namespaces/inkscape"
   width="906.30444mm"
   height="298.50952mm"
   viewBox="0 0 906.30444 298.50952"
   version="1.1"
   id="svg547"
   inkscape:version="0.92.4 (5da689c313, 2019-01-14)"
   sodipodi:docname="bag-and-text-black-color-transparent.svg"
   inkscape:export-filename="/home/emil/Pictures/date-it/PNG/bag-and-text-black-transparent-tiny.png"
   inkscape:export-xdpi="14.349491"
   inkscape:export-ydpi="14.349491">
  <defs
     id="defs541" />
  <sodipodi:namedview
     id="base"
     pagecolor="#ffffff"
     bordercolor="#666666"
     borderopacity="1.0"
     inkscape:pageopacity="0.0"
     inkscape:pageshadow="2"
     inkscape:zoom="1"
     inkscape:cx="2299.5592"
     inkscape:cy="648.83616"
     inkscape:document-units="mm"
     inkscape:current-layer="text865-1"
     showgrid="false"
     inkscape:pagecheckerboard="true"
     borderlayer="true"
     fit-margin-top="0"
     fit-margin-left="0"
     fit-margin-right="0"
     fit-margin-bottom="0"
     inkscape:window-width="3200"
     inkscape:window-height="1737"
     inkscape:window-x="0"
     inkscape:window-y="28"
     inkscape:window-maximized="0" />
  <metadata
     id="metadata544">
    <rdf:RDF>
      <cc:Work
         rdf:about="">
        <dc:format>image/svg+xml</dc:format>
        <dc:type
           rdf:resource="http://purl.org/dc/dcmitype/StillImage" />
        <dc:title></dc:title>
      </cc:Work>
    </rdf:RDF>
  </metadata>
  <g
     inkscape:label="Layer 1"
     inkscape:groupmode="layer"
     id="layer1"
     transform="translate(397.21175,85.08809)">
    <path
       inkscape:connector-curvature="0"
       class="st1"
       d="m -266.00419,-42.562932 c 0,-11.482916 0,-22.568958 0,-33.681458 0,-4.92125 3.41312,-8.519584 8.33437,-8.810625 0.60855,-0.02646 1.24355,-0.02646 1.85209,-0.02646 20.71687,0 41.43375,0 62.17708,0 0.60854,0 1.24354,-0.02646 1.85208,0.02646 3.86292,0.264583 8.09625,3.069166 8.01688,8.41375 -0.15875,11.191875 -0.0529,22.38375 -0.0529,33.946042 0.97896,0.05292 1.98438,0.132291 2.98979,0.132291 16.85396,0 33.68146,0 50.53543,0 15.95438,0 31.908746,0 47.889576,0 6.82625,0 13.09688,1.772709 18.57375,5.87375 7.3025,5.476875 11.13896,12.7 11.13896,21.986875 -0.0265,66.569169 -0.13229,133.164787 0.0794,199.733957 0.0529,13.70542 -9.78959,25.29417 -23.495,27.75479 -2.40771,0.42333 -4.89479,0.58208 -7.35542,0.58208 -94.271046,0.0265 -188.542086,0 -282.813136,0.0529 -7.48771,0 -14.31396,-1.74625 -20.26708,-6.37646 -6.48229,-5.05354 -10.02771,-11.69458 -10.53042,-19.92312 -0.0794,-1.13771 -0.0529,-2.30188 -0.0529,-3.43959 0,-29.36875 0,-58.7375 0,-88.106248 0,-36.30083 0.15875,-72.5752 -0.0794,-108.876037 -0.10587,-16.748105 11.721,-26.537688 23.4685,-28.680813 2.32834,-0.423334 4.73604,-0.582084 7.09084,-0.582084 32.43791,-0.02646 64.90229,-0.02646 97.36667,-0.02646 1.03187,0.02646 2.0902,0.02646 3.28083,0.02646 z m -3.57188,135.942914 c 15.24,-0.23812 29.79209,-0.44979 44.74105,-0.68791 -12.72646,31.829368 -25.29417,63.182498 -37.83542,94.562078 0.52917,-0.0529 0.79375,-0.26458 0.97896,-0.52917 26.9875,-38.68208 53.975,-77.33771 80.9625,-116.019788 0.0265,-0.0529 0.0265,-0.15875 0,-0.23812 -0.0265,-0.0794 -0.0794,-0.15875 -0.15875,-0.34396 -14.49917,-0.47625 -29.07771,-0.92604 -44.02667,-1.40229 11.13896,-28.81313 22.14563,-57.255837 33.15229,-85.672087 -0.18521,-0.105833 -0.37041,-0.185208 -0.55562,-0.291042 -25.63813,36.644789 -51.24979,73.342499 -77.25834,110.622289 z m -77.31125,-8.51958 c 1.34938,-0.44979 2.30188,-0.76729 3.25438,-1.03188 9.525,-2.7252 15.53104,-8.81062 17.3302,-18.62666 0.74084,-4.1275 1.19063,-8.38729 1.24355,-12.59417 0.15875,-11.45646 0.0529,-22.91292 0.0794,-34.39583 0,-1.93146 0.0529,-3.889377 0.26458,-5.820835 0.97896,-8.7577093 5.37104,-15.0018753 13.78479,-18.0181253 2.88396,-1.031875 5.92667,-1.613959 8.96938,-2.196042 2.30187,-0.449792 4.68312,-0.529167 7.17021,-0.79375 0,-3.4131247 0,-6.7204167 0,-10.0277077 -0.39688,-0.105834 -0.635,-0.238125 -0.87312,-0.211667 -8.0698,0.238125 -16.0073,1.296458 -23.38918,4.841875 -8.09625,3.889375 -13.36146,10.1599997 -15.71625,18.8647917 -1.05833,3.942291 -1.48166,7.9639583 -1.48166,12.0385403 -0.0265,13.41438 0.0265,26.80229 -0.0265,40.21667 0,2.46062 -0.18521,4.94771 -0.66146,7.35541 -1.42875,6.93209 -5.42396,11.77396 -12.25021,13.97 -2.32833,0.74084 -4.7625,1.21709 -7.19667,1.61396 -2.03729,0.34396 -4.15396,0.44979 -6.24416,0.68792 0,3.04271 0,5.92667 0,8.96937 1.16416,0.10584 2.2225,0.1323 3.25437,0.29105 2.35479,0.34395 4.73604,0.55562 7.01146,1.16416 8.78417,2.30188 14.18167,7.85813 15.63687,16.933338 0.34396,2.06375 0.47625,4.20687 0.47625,6.32354 0.0529,12.88521 -0.0529,25.74396 0.0794,38.62916 0.0265,3.59834 0.34396,7.24959 0.97896,10.76855 2.14313,11.6152 8.70479,19.3675 20.26709,22.64833 6.32354,1.79917 12.77937,2.46062 19.34104,2.46062 0.23813,0 0.47625,-0.15875 0.84667,-0.26458 0,-3.33375 0,-6.61458 0,-10.10708 -0.97896,-0.0794 -1.82563,-0.13229 -2.6723,-0.21167 -5.29166,-0.37042 -10.53041,-1.00542 -15.47812,-3.06917 -5.47688,-2.27541 -9.02229,-6.27062 -10.795,-11.90625 -1.03188,-3.33375 -1.21709,-6.74687 -1.24354,-10.18645 -0.0265,-12.09146 0.0529,-24.15646 -0.0529,-36.24792 -0.0265,-3.33375 -0.29105,-6.69396 -0.7673,-10.00125 -1.5875,-10.847918 -7.51416,-17.991668 -18.2827,-20.822708 -0.50271,-0.13229 -1.03188,-0.23812 -1.53459,-0.39687 -0.34396,-0.10584 -0.60854,-0.34396 -1.32291,-0.84667 z m 192.06105,-93.3714593 c 1.11125,0.07937 1.98437,0.105834 2.8575,0.185209 5.29166,0.47625 10.4775,1.27 15.34583,3.598333 5.2123,2.487083 8.86355,6.429375 10.42459,11.985625 0.82021,2.9368753 1.32292,6.0589583 1.34938,9.1016623 0.15875,11.64167 0,23.28334 0.10583,34.89855 0.0265,3.70416 0.21167,7.40833 0.68792,11.05958 1.48166,11.50937 7.62,19.07646 19.12937,21.88104 0.52917,0.13229 1.00542,0.44979 1.50813,0.66146 0,0.18521 0,0.37042 0,0.55562 -1.05834,0.3175 -2.09021,0.635 -3.14854,0.9525 -8.83709,2.61938 -14.68438,8.22855 -16.69521,17.330208 -0.79375,3.59834 -1.37584,7.3025 -1.42875,10.98021 -0.18521,13.12333 -0.0794,26.27313 -0.13229,39.39646 0,2.11667 -0.15875,4.23333 -0.50271,6.32354 -1.27,7.46125 -5.31813,12.80583 -12.54126,15.31938 -3.04271,1.05833 -6.29709,1.61395 -9.49854,2.19604 -2.48709,0.42333 -5.02709,0.50271 -7.46125,0.74083 0,3.51896 0,6.82625 0,10.37167 8.49312,-0.10584 16.66875,-0.82021 24.44751,-4.15396 6.37645,-2.72521 10.87437,-7.35542 13.62604,-13.70542 2.16958,-5.00062 3.12208,-10.29229 3.12208,-15.71625 0.0529,-13.49375 0.0265,-26.9875 0.0794,-40.45479 0,-2.19604 0.13229,-4.41854 0.47625,-6.58812 1.27,-8.20209 5.76791,-13.837708 13.652496,-16.615838 1.56104,-0.55562 3.22791,-0.9525 4.86833,-1.21708 2.40771,-0.39688 4.86833,-0.635 7.3025,-0.92604 0,-3.06917 0,-6.00604 0,-8.99584 -1.00542,-0.0529 -1.77271,-0.0794 -2.56646,-0.15875 -4.04812,-0.34395 -8.04333,-0.89958 -11.853326,-2.43416 -5.31813,-2.14313 -9.02229,-5.87375 -10.50396,-11.43 -0.79375,-2.93688 -1.29646,-6.05896 -1.32292,-9.10167 -0.13229,-13.12333 -0.0265,-26.27312 -0.0794,-39.39646 -0.0265,-2.98979 -0.13229,-6.006039 -0.58209,-8.9429143 -1.64041,-11.377083 -7.8052,-19.4204157 -18.36208,-24.0241657 -6.56168,-2.8575 -13.52022,-3.783542 -20.61105,-3.995209 -0.58208,-0.02646 -1.16417,0.105834 -1.87854,0.185209 0,2.883958 0,5.609166 0,8.334375 0.0529,0.5027077 0.10583,1.0054157 0.18521,1.7991657 z m -37.72959,-61.1716657 c -21.61646,0 -42.99479,0 -64.55833,0 0,9.075208 0,18.018125 0,26.934583 4.20687,0.529167 62.75917,0.3175 64.55833,-0.211667 0,-8.837083 0,-17.62125 0,-26.722916 z"
       id="path265"
       style="fill:#000000;stroke-width:0.26458332"
       inkscape:export-filename="/home/emil/Pictures/date-it/PNG/bag-white-transparent-huge.png"
       inkscape:export-xdpi="603.83002"
       inkscape:export-ydpi="603.83002" />
    <g
       aria-label="Data- | Elektro- | Informationsteknik"
       style="font-style:normal;font-variant:normal;font-weight:normal;font-stretch:normal;font-size:5.47627258px;line-height:1.25;font-family:'Open Sans';-inkscape-font-specification:'Open Sans';text-align:center;letter-spacing:0px;word-spacing:0px;text-anchor:middle;fill:#000000;fill-opacity:1;stroke:none;stroke-width:0.29337177"
       id="text865-1"
       inkscape:export-filename="/home/emil/Pictures/date-it/PNG/text-white-transparent-tiny.png"
       inkscape:export-xdpi="26.34"
       inkscape:export-ydpi="26.34">
      <path
         d="m 34.373694,162.88636 q 0,5.06067 -2.654098,7.65976 -2.654098,2.58533 -7.797272,2.58533 h -4.813131 v -20.10513 h 5.431962 q 4.813131,0 7.315959,2.51658 2.51658,2.51658 2.51658,7.34346 z m -1.52645,0.055 q 0,-4.31807 -2.200289,-6.49085 -2.186536,-2.18654 -6.435843,-2.18654 h -3.699235 v 17.62981 h 3.327936 q 9.007431,0 9.007431,-8.95242 z"
         style="font-style:normal;font-variant:normal;font-weight:300;font-stretch:normal;font-size:28.16369057px;font-family:'Open Sans';-inkscape-font-specification:'Open Sans Light';fill:#fa6607;stroke-width:0.29337177;fill-opacity:1"
         id="path4625" />
      <path
         d="m 47.754197,173.13145 -0.343795,-2.36531 h -0.110015 q -1.127648,1.44394 -2.324054,2.04902 -1.182655,0.59133 -2.805368,0.59133 -2.200288,0 -3.424199,-1.12765 -1.22391,-1.12765 -1.22391,-3.12166 0,-2.18653 1.815238,-3.39669 1.82899,-1.21016 5.280692,-1.27892 l 2.846623,-0.0825 v -0.99013 q 0,-2.13153 -0.866364,-3.21792 -0.866363,-1.08639 -2.791615,-1.08639 -2.076523,0 -4.304314,1.15515 l -0.508817,-1.18266 q 2.461572,-1.15515 4.868138,-1.15515 2.461572,0 3.671731,1.27892 1.22391,1.27892 1.22391,3.98802 v 9.94255 z m -5.500721,-0.96262 q 2.392813,0 3.767994,-1.36143 1.388932,-1.37518 1.388932,-3.80925 v -1.47144 l -2.612843,0.11001 q -3.149162,0.15127 -4.496839,0.99013 -1.333925,0.82511 -1.333925,2.58534 0,1.40268 0.852612,2.18654 0.866363,0.7701 2.434069,0.7701 z"
         style="font-style:normal;font-variant:normal;font-weight:300;font-stretch:normal;font-size:28.16369057px;font-family:'Open Sans';-inkscape-font-specification:'Open Sans Light';fill:#fa6607;stroke-width:0.29337177;fill-opacity:1"
         id="path4627" />
      <path
         d="m 57.53173,172.19633 q 1.29267,0 2.255296,-0.22003 v 1.10015 q -0.99013,0.33004 -2.282799,0.33004 -1.98026,0 -2.929134,-1.05889 -0.935123,-1.05889 -0.935123,-3.32793 v -9.65377 h -2.21404 v -0.7976 l 2.21404,-0.61883 0.68759,-3.38295 h 0.701342 v 3.61673 h 4.386825 v 1.18265 h -4.386825 v 9.46124 q 0,1.71898 0.60508,2.54408 0.605079,0.82511 1.897748,0.82511 z"
         style="font-style:normal;font-variant:normal;font-weight:300;font-stretch:normal;font-size:28.16369057px;font-family:'Open Sans';-inkscape-font-specification:'Open Sans Light';fill:#fa6607;stroke-width:0.29337177;fill-opacity:1"
         id="path4629" />
      <path
         d="m 72.122391,173.13145 -0.343795,-2.36531 h -0.110014 q -1.127648,1.44394 -2.324055,2.04902 -1.182655,0.59133 -2.805367,0.59133 -2.200289,0 -3.424199,-1.12765 -1.22391,-1.12765 -1.22391,-3.12166 0,-2.18653 1.815237,-3.39669 1.82899,-1.21016 5.280692,-1.27892 l 2.846623,-0.0825 v -0.99013 q 0,-2.13153 -0.866363,-3.21792 -0.866364,-1.08639 -2.791616,-1.08639 -2.076522,0 -4.304314,1.15515 l -0.508817,-1.18266 q 2.461573,-1.15515 4.868138,-1.15515 2.461573,0 3.671731,1.27892 1.223911,1.27892 1.223911,3.98802 v 9.94255 z m -5.500721,-0.96262 q 2.392814,0 3.767994,-1.36143 1.388932,-1.37518 1.388932,-3.80925 v -1.47144 l -2.612842,0.11001 q -3.149163,0.15127 -4.496839,0.99013 -1.333925,0.82511 -1.333925,2.58534 0,1.40268 0.852612,2.18654 0.866363,0.7701 2.434068,0.7701 z"
         style="font-style:normal;font-variant:normal;font-weight:300;font-stretch:normal;font-size:28.16369057px;font-family:'Open Sans';-inkscape-font-specification:'Open Sans Light';fill:#fa6607;stroke-width:0.29337177;fill-opacity:1"
         id="path4631" />
      <path
         d="m 76.715492,166.09053 v -1.12765 h 6.532106 v 1.12765 z"
         style="font-style:normal;font-variant:normal;font-weight:300;font-stretch:normal;font-size:28.16369057px;font-family:'Open Sans';-inkscape-font-specification:'Open Sans Light';fill:#fa6607;stroke-width:0.29337177;fill-opacity:1"
         id="path4633" />
      <path
         d="m 98.828388,151.66489 h 1.265162 v 28.42498 h -1.265162 z"
         style="font-style:normal;font-variant:normal;font-weight:300;font-stretch:normal;font-size:28.16369057px;font-family:'Open Sans';-inkscape-font-specification:'Open Sans Light';fill:#000000;stroke-width:0.29337177;fill-opacity:1"
         id="path4635" />
      <path
         d="m 128.22974,173.13145 h -10.98769 v -20.10513 h 10.98769 v 1.29267 h -9.585 v 7.60475 h 9.04868 v 1.29267 h -9.04868 v 8.62238 h 9.585 z"
         style="font-style:normal;font-variant:normal;font-weight:300;font-stretch:normal;font-size:28.16369057px;font-family:'Open Sans';-inkscape-font-specification:'Open Sans Light';fill:#fff200;stroke-width:0.29337177;fill-opacity:1"
         id="path4637" />
      <path
         d="m 133.82672,173.13145 h -1.36142 v -21.3978 h 1.36142 z"
         style="font-style:normal;font-variant:normal;font-weight:300;font-stretch:normal;font-size:28.16369057px;font-family:'Open Sans';-inkscape-font-specification:'Open Sans Light';fill:#fff200;stroke-width:0.29337177;fill-opacity:1"
         id="path4639" />
      <path
         d="m 144.88317,173.40649 q -3.25917,0 -5.08816,-2.00776 -1.81524,-2.00777 -1.81524,-5.62449 0,-3.57547 1.76023,-5.72075 1.76023,-2.15903 4.74437,-2.15903 2.64035,0 4.1668,1.84274 1.52645,1.84274 1.52645,5.00566 v 1.10014 h -10.76766 q 0.0275,3.0804 1.43018,4.70312 1.41644,1.62271 4.04303,1.62271 1.27892,0 2.24155,-0.17878 0.97638,-0.17877 2.46157,-0.7701 v 1.23767 q -1.26517,0.55007 -2.33781,0.74259 -1.07264,0.20628 -2.36531,0.20628 z m -0.3988,-14.30187 q -2.15903,0 -3.46545,1.43018 -1.30642,1.41644 -1.52645,4.09804 h 9.24121 q 0,-2.59909 -1.12765,-4.05678 -1.12765,-1.47144 -3.12166,-1.47144 z"
         style="font-style:normal;font-variant:normal;font-weight:300;font-stretch:normal;font-size:28.16369057px;font-family:'Open Sans';-inkscape-font-specification:'Open Sans Light';fill:#fff200;stroke-width:0.29337177;fill-opacity:1"
         id="path4641" />
      <path
         d="m 155.63709,166.57184 7.63225,-8.38859 h 1.65021 l -5.88577,6.38083 6.39459,8.56737 h -1.63646 l -5.6795,-7.54973 -2.44782,2.22779 v 5.32194 h -1.36143 v -21.3978 h 1.36143 v 10.72641 l -0.0963,4.11178 z"
         style="font-style:normal;font-variant:normal;font-weight:300;font-stretch:normal;font-size:28.16369057px;font-family:'Open Sans';-inkscape-font-specification:'Open Sans Light';fill:#fff200;stroke-width:0.29337177;fill-opacity:1"
         id="path4643" />
      <path
         d="m 171.89172,172.19633 q 1.29267,0 2.25529,-0.22003 v 1.10015 q -0.99013,0.33004 -2.2828,0.33004 -1.98026,0 -2.92913,-1.05889 -0.93512,-1.05889 -0.93512,-3.32793 v -9.65377 h -2.21404 v -0.7976 l 2.21404,-0.61883 0.68759,-3.38295 h 0.70134 v 3.61673 h 4.38682 v 1.18265 h -4.38682 v 9.46124 q 0,1.71898 0.60508,2.54408 0.60508,0.82511 1.89775,0.82511 z"
         style="font-style:normal;font-variant:normal;font-weight:300;font-stretch:normal;font-size:28.16369057px;font-family:'Open Sans';-inkscape-font-specification:'Open Sans Light';fill:#fff200;stroke-width:0.29337177;fill-opacity:1"
         id="path4645" />
      <path
         d="m 183.29196,157.89446 q 0.94888,0 2.03527,0.19252 l -0.26129,1.30642 q -0.93512,-0.23378 -1.939,-0.23378 -1.9115,0 -3.13541,1.62272 -1.22391,1.62271 -1.22391,4.09803 v 8.25108 h -1.36143 v -14.9482 h 1.15515 l 0.13752,2.69535 h 0.0963 q 0.92137,-1.65022 1.96651,-2.3103 1.04514,-0.67384 2.53033,-0.67384 z"
         style="font-style:normal;font-variant:normal;font-weight:300;font-stretch:normal;font-size:28.16369057px;font-family:'Open Sans';-inkscape-font-specification:'Open Sans Light';fill:#fff200;stroke-width:0.29337177;fill-opacity:1"
         id="path4647" />
      <path
         d="m 200.71549,165.63672 q 0,3.65798 -1.77398,5.72075 -1.77399,2.04902 -4.89565,2.04902 -1.9665,0 -3.46545,-0.94887 -1.49895,-0.94888 -2.29655,-2.72286 -0.79761,-1.77398 -0.79761,-4.09804 0,-3.65798 1.77399,-5.69324 1.77398,-2.04902 4.86813,-2.04902 3.08041,0 4.82689,2.07652 1.76023,2.06277 1.76023,5.66574 z m -11.79905,0 q 0,3.08041 1.34768,4.81313 1.36143,1.71898 3.83675,1.71898 2.47533,0 3.823,-1.71898 1.36143,-1.73272 1.36143,-4.81313 0,-3.09415 -1.37518,-4.79938 -1.36143,-1.70522 -3.83675,-1.70522 -2.47533,0 -3.823,1.70522 -1.33393,1.69148 -1.33393,4.79938 z"
         style="font-style:normal;font-variant:normal;font-weight:300;font-stretch:normal;font-size:28.16369057px;font-family:'Open Sans';-inkscape-font-specification:'Open Sans Light';fill:#fff200;stroke-width:0.29337177;fill-opacity:1"
         id="path4649" />
      <path
         d="m 203.61712,166.09053 v -1.12765 h 6.53211 v 1.12765 z"
         style="font-style:normal;font-variant:normal;font-weight:300;font-stretch:normal;font-size:28.16369057px;font-family:'Open Sans';-inkscape-font-specification:'Open Sans Light';fill:#fff200;stroke-width:0.29337177;fill-opacity:1"
         id="path4651" />
      <path
         d="m 225.73002,151.66489 h 1.26517 v 28.42498 h -1.26517 z"
         style="font-style:normal;font-variant:normal;font-weight:300;font-stretch:normal;font-size:28.16369057px;font-family:'Open Sans';-inkscape-font-specification:'Open Sans Light';fill:#000000;stroke-width:0.29337177"
         id="path4653" />
      <path
         d="m 244.14368,173.13145 v -20.10513 h 1.40268 v 20.10513 z"
         style="font-style:normal;font-variant:normal;font-weight:300;font-stretch:normal;font-size:28.16369057px;font-family:'Open Sans';-inkscape-font-specification:'Open Sans Light';fill:#00a9d3;stroke-width:0.29337177;fill-opacity:1"
         id="path4655" />
      <path
         d="m 261.31968,173.13145 v -9.69502 q 0,-2.25529 -0.94887,-3.27292 -0.94888,-1.03139 -2.94289,-1.03139 -2.6816,0 -3.93301,1.36143 -1.23767,1.34767 -1.23767,4.38682 v 8.25108 h -1.36142 v -14.9482 h 1.15515 l 0.26128,2.04901 h 0.0825 q 1.45769,-2.3378 5.18443,-2.3378 5.08817,0 5.08817,5.45946 v 9.77753 z"
         style="font-style:normal;font-variant:normal;font-weight:300;font-stretch:normal;font-size:28.16369057px;font-family:'Open Sans';-inkscape-font-specification:'Open Sans Light';fill:#00a9d3;stroke-width:0.29337177;fill-opacity:1"
         id="path4657" />
      <path
         d="m 273.06373,159.3659 h -3.52047 v 13.76555 h -1.36142 V 159.3659 h -2.77787 v -0.7976 l 2.77787,-0.50882 v -1.15515 q 0,-2.75036 1.00388,-4.02928 1.01763,-1.29267 3.31418,-1.29267 1.23766,0 2.47533,0.3713 l -0.3163,1.18265 q -1.10014,-0.34379 -2.18653,-0.34379 -1.59521,0 -2.26905,0.94887 -0.66009,0.93513 -0.66009,3.0529 v 1.38894 h 3.52047 z"
         style="font-style:normal;font-variant:normal;font-weight:300;font-stretch:normal;font-size:28.16369057px;font-family:'Open Sans';-inkscape-font-specification:'Open Sans Light';fill:#00a9d3;stroke-width:0.29337177;fill-opacity:1"
         id="path4659" />
      <path
         d="m 288.34198,165.63672 q 0,3.65798 -1.77398,5.72075 -1.77398,2.04902 -4.89564,2.04902 -1.96651,0 -3.46546,-0.94887 -1.49894,-0.94888 -2.29655,-2.72286 -0.7976,-1.77398 -0.7976,-4.09804 0,-3.65798 1.77398,-5.69324 1.77398,-2.04902 4.86814,-2.04902 3.0804,0 4.82688,2.07652 1.76023,2.06277 1.76023,5.66574 z m -11.79904,0 q 0,3.08041 1.34767,4.81313 1.36143,1.71898 3.83676,1.71898 2.47532,0 3.823,-1.71898 1.36143,-1.73272 1.36143,-4.81313 0,-3.09415 -1.37518,-4.79938 -1.36143,-1.70522 -3.83676,-1.70522 -2.47532,0 -3.823,1.70522 -1.33392,1.69148 -1.33392,4.79938 z"
         style="font-style:normal;font-variant:normal;font-weight:300;font-stretch:normal;font-size:28.16369057px;font-family:'Open Sans';-inkscape-font-specification:'Open Sans Light';fill:#00a9d3;stroke-width:0.29337177;fill-opacity:1"
         id="path4661" />
      <path
         d="m 298.36705,157.89446 q 0.94888,0 2.03527,0.19252 l -0.26129,1.30642 q -0.93512,-0.23378 -1.939,-0.23378 -1.9115,0 -3.13541,1.62272 -1.22391,1.62271 -1.22391,4.09803 v 8.25108 h -1.36143 v -14.9482 h 1.15515 l 0.13752,2.69535 h 0.0963 q 0.92137,-1.65022 1.96651,-2.3103 1.04514,-0.67384 2.53033,-0.67384 z"
         style="font-style:normal;font-variant:normal;font-weight:300;font-stretch:normal;font-size:28.16369057px;font-family:'Open Sans';-inkscape-font-specification:'Open Sans Light';fill:#00a9d3;stroke-width:0.29337177;fill-opacity:1"
         id="path4663" />
      <path
         d="m 322.10264,173.13145 v -9.80503 q 0,-2.18654 -0.85261,-3.19042 -0.85262,-1.00388 -2.61285,-1.00388 -2.29655,0 -3.39669,1.26517 -1.10015,1.26516 -1.10015,3.97427 v 8.75989 h -1.38893 v -10.21758 q 0,-3.78175 -3.46545,-3.78175 -2.35156,0 -3.4242,1.37518 -1.07264,1.36143 -1.07264,4.37307 v 8.25108 h -1.36143 v -14.9482 h 1.12765 l 0.28879,2.04901 h 0.0825 q 0.61883,-1.11389 1.76023,-1.71897 1.1414,-0.61883 2.51658,-0.61883 3.53421,0 4.53809,2.6541 h 0.055 q 0.72885,-1.27892 1.95276,-1.96651 1.23766,-0.68759 2.80536,-0.68759 2.44782,0 3.67173,1.30642 1.22391,1.30642 1.22391,4.15304 v 9.77753 z"
         style="font-style:normal;font-variant:normal;font-weight:300;font-stretch:normal;font-size:28.16369057px;font-family:'Open Sans';-inkscape-font-specification:'Open Sans Light';fill:#00a9d3;stroke-width:0.29337177;fill-opacity:1"
         id="path4665" />
      <path
         d="m 337.36716,173.13145 -0.34379,-2.36531 h -0.11002 q -1.12765,1.44394 -2.32405,2.04902 -1.18266,0.59133 -2.80537,0.59133 -2.20029,0 -3.4242,-1.12765 -1.22391,-1.12765 -1.22391,-3.12166 0,-2.18653 1.81524,-3.39669 1.82899,-1.21016 5.28069,-1.27892 l 2.84662,-0.0825 v -0.99013 q 0,-2.13153 -0.86636,-3.21792 -0.86636,-1.08639 -2.79162,-1.08639 -2.07652,0 -4.30431,1.15515 l -0.50882,-1.18266 q 2.46158,-1.15515 4.86814,-1.15515 2.46157,0 3.67173,1.27892 1.22391,1.27892 1.22391,3.98802 v 9.94255 z m -5.50072,-0.96262 q 2.39281,0 3.76799,-1.36143 1.38894,-1.37518 1.38894,-3.80925 v -1.47144 l -2.61285,0.11001 q -3.14916,0.15127 -4.49684,0.99013 -1.33392,0.82511 -1.33392,2.58534 0,1.40268 0.85261,2.18654 0.86637,0.7701 2.43407,0.7701 z"
         style="font-style:normal;font-variant:normal;font-weight:300;font-stretch:normal;font-size:28.16369057px;font-family:'Open Sans';-inkscape-font-specification:'Open Sans Light';fill:#00a9d3;stroke-width:0.29337177;fill-opacity:1"
         id="path4667" />
      <path
         d="m 347.14469,172.19633 q 1.29267,0 2.2553,-0.22003 v 1.10015 q -0.99013,0.33004 -2.2828,0.33004 -1.98026,0 -2.92914,-1.05889 -0.93512,-1.05889 -0.93512,-3.32793 v -9.65377 h -2.21404 v -0.7976 l 2.21404,-0.61883 0.68759,-3.38295 h 0.70134 v 3.61673 h 4.38683 v 1.18265 h -4.38683 v 9.46124 q 0,1.71898 0.60508,2.54408 0.60508,0.82511 1.89775,0.82511 z"
         style="font-style:normal;font-variant:normal;font-weight:300;font-stretch:normal;font-size:28.16369057px;font-family:'Open Sans';-inkscape-font-specification:'Open Sans Light';fill:#00a9d3;stroke-width:0.29337177;fill-opacity:1"
         id="path4669" />
      <path
         d="m 354.02056,173.13145 h -1.36142 v -14.9482 h 1.36142 z m -1.55395,-19.10125 q 0,-1.32017 0.86636,-1.32017 0.42631,0 0.66009,0.34379 0.24753,0.3438 0.24753,0.97638 0,0.61883 -0.24753,0.97638 -0.23378,0.35755 -0.66009,0.35755 -0.86636,0 -0.86636,-1.33393 z"
         style="font-style:normal;font-variant:normal;font-weight:300;font-stretch:normal;font-size:28.16369057px;font-family:'Open Sans';-inkscape-font-specification:'Open Sans Light';fill:#00a9d3;stroke-width:0.29337177;fill-opacity:1"
         id="path4671" />
      <path
         d="m 371.40287,165.63672 q 0,3.65798 -1.77399,5.72075 -1.77398,2.04902 -4.89564,2.04902 -1.96651,0 -3.46545,-0.94887 -1.49895,-0.94888 -2.29655,-2.72286 -0.79761,-1.77398 -0.79761,-4.09804 0,-3.65798 1.77398,-5.69324 1.77399,-2.04902 4.86814,-2.04902 3.08041,0 4.82688,2.07652 1.76024,2.06277 1.76024,5.66574 z m -11.79905,0 q 0,3.08041 1.34768,4.81313 1.36142,1.71898 3.83675,1.71898 2.47532,0 3.823,-1.71898 1.36143,-1.73272 1.36143,-4.81313 0,-3.09415 -1.37518,-4.79938 -1.36143,-1.70522 -3.83675,-1.70522 -2.47533,0 -3.82301,1.70522 -1.33392,1.69148 -1.33392,4.79938 z"
         style="font-style:normal;font-variant:normal;font-weight:300;font-stretch:normal;font-size:28.16369057px;font-family:'Open Sans';-inkscape-font-specification:'Open Sans Light';fill:#00a9d3;stroke-width:0.29337177;fill-opacity:1"
         id="path4673" />
      <path
         d="m 385.96603,173.13145 v -9.69502 q 0,-2.25529 -0.94888,-3.27292 -0.94887,-1.03139 -2.94288,-1.03139 -2.6816,0 -3.93302,1.36143 -1.23766,1.34767 -1.23766,4.38682 v 8.25108 h -1.36143 v -14.9482 h 1.15515 l 0.26129,2.04901 h 0.0825 q 1.45769,-2.3378 5.18443,-2.3378 5.08816,0 5.08816,5.45946 v 9.77753 z"
         style="font-style:normal;font-variant:normal;font-weight:300;font-stretch:normal;font-size:28.16369057px;font-family:'Open Sans';-inkscape-font-specification:'Open Sans Light';fill:#00a9d3;stroke-width:0.29337177;fill-opacity:1"
         id="path4675" />
      <path
         d="m 401.42303,169.23969 q 0,2.00777 -1.52645,3.09416 -1.52645,1.07264 -4.33182,1.07264 -2.99789,0 -4.75812,-0.92137 v -1.47144 q 2.25529,1.12764 4.75812,1.12764 2.21404,0 3.35544,-0.72884 1.15515,-0.7426 1.15515,-1.96651 0,-1.12765 -0.92137,-1.89775 -0.90762,-0.7701 -2.99789,-1.5127 -2.24155,-0.81135 -3.14916,-1.38893 -0.90762,-0.59132 -1.37518,-1.32017 -0.45381,-0.7426 -0.45381,-1.80149 0,-1.67772 1.40268,-2.65409 1.41644,-0.97638 3.94677,-0.97638 2.42031,0 4.5931,0.90762 l -0.50882,1.23766 q -2.20029,-0.90762 -4.08428,-0.90762 -1.82899,0 -2.90163,0.60508 -1.07264,0.60508 -1.07264,1.67772 0,1.1689 0.8251,1.87024 0.83886,0.70135 3.25918,1.56771 2.02152,0.72885 2.94289,1.32017 0.92137,0.57758 1.37518,1.32018 0.46756,0.74259 0.46756,1.74647 z"
         style="font-style:normal;font-variant:normal;font-weight:300;font-stretch:normal;font-size:28.16369057px;font-family:'Open Sans';-inkscape-font-specification:'Open Sans Light';fill:#00a9d3;stroke-width:0.29337177;fill-opacity:1"
         id="path4677" />
      <path
         d="m 409.24781,172.19633 q 1.29267,0 2.2553,-0.22003 v 1.10015 q -0.99013,0.33004 -2.2828,0.33004 -1.98026,0 -2.92914,-1.05889 -0.93512,-1.05889 -0.93512,-3.32793 v -9.65377 h -2.21404 v -0.7976 l 2.21404,-0.61883 0.68759,-3.38295 h 0.70134 v 3.61673 h 4.38683 v 1.18265 h -4.38683 v 9.46124 q 0,1.71898 0.60508,2.54408 0.60508,0.82511 1.89775,0.82511 z"
         style="font-style:normal;font-variant:normal;font-weight:300;font-stretch:normal;font-size:28.16369057px;font-family:'Open Sans';-inkscape-font-specification:'Open Sans Light';fill:#00a9d3;stroke-width:0.29337177;fill-opacity:1"
         id="path4679" />
      <path
         d="m 420.79933,173.40649 q -3.25918,0 -5.08817,-2.00776 -1.81524,-2.00777 -1.81524,-5.62449 0,-3.57547 1.76023,-5.72075 1.76023,-2.15903 4.74437,-2.15903 2.64035,0 4.1668,1.84274 1.52645,1.84274 1.52645,5.00566 v 1.10014 h -10.76766 q 0.0275,3.0804 1.43019,4.70312 1.41643,1.62271 4.04303,1.62271 1.27891,0 2.24154,-0.17878 0.97638,-0.17877 2.46157,-0.7701 v 1.23767 q -1.26516,0.55007 -2.3378,0.74259 -1.07264,0.20628 -2.36531,0.20628 z m -0.39881,-14.30187 q -2.15903,0 -3.46545,1.43018 -1.30642,1.41644 -1.52645,4.09804 h 9.24121 q 0,-2.59909 -1.12765,-4.05678 -1.12764,-1.47144 -3.12166,-1.47144 z"
         style="font-style:normal;font-variant:normal;font-weight:300;font-stretch:normal;font-size:28.16369057px;font-family:'Open Sans';-inkscape-font-specification:'Open Sans Light';fill:#00a9d3;stroke-width:0.29337177;fill-opacity:1"
         id="path4681" />
      <path
         d="m 431.55324,166.57184 7.63225,-8.38859 h 1.65022 l -5.88577,6.38083 6.39458,8.56737 h -1.63646 l -5.67949,-7.54973 -2.44782,2.22779 v 5.32194 h -1.36143 v -21.3978 h 1.36143 v 10.72641 l -0.0963,4.11178 z"
         style="font-style:normal;font-variant:normal;font-weight:300;font-stretch:normal;font-size:28.16369057px;font-family:'Open Sans';-inkscape-font-specification:'Open Sans Light';fill:#00a9d3;stroke-width:0.29337177;fill-opacity:1"
         id="path4683" />
      <path
         d="m 454.28497,173.13145 v -9.69502 q 0,-2.25529 -0.94888,-3.27292 -0.94887,-1.03139 -2.94288,-1.03139 -2.6816,0 -3.93302,1.36143 -1.23766,1.34767 -1.23766,4.38682 v 8.25108 h -1.36143 v -14.9482 h 1.15515 l 0.26129,2.04901 h 0.0825 q 1.45769,-2.3378 5.18443,-2.3378 5.08816,0 5.08816,5.45946 v 9.77753 z"
         style="font-style:normal;font-variant:normal;font-weight:300;font-stretch:normal;font-size:28.16369057px;font-family:'Open Sans';-inkscape-font-specification:'Open Sans Light';fill:#00a9d3;stroke-width:0.29337177;fill-opacity:1"
         id="path4685" />
      <path
         d="m 461.83471,173.13145 h -1.36143 v -14.9482 h 1.36143 z m -1.55395,-19.10125 q 0,-1.32017 0.86636,-1.32017 0.42631,0 0.66009,0.34379 0.24753,0.3438 0.24753,0.97638 0,0.61883 -0.24753,0.97638 -0.23378,0.35755 -0.66009,0.35755 -0.86636,0 -0.86636,-1.33393 z"
         style="font-style:normal;font-variant:normal;font-weight:300;font-stretch:normal;font-size:28.16369057px;font-family:'Open Sans';-inkscape-font-specification:'Open Sans Light';fill:#00a9d3;stroke-width:0.29337177;fill-opacity:1"
         id="path4687" />
      <path
         d="m 468.18804,166.57184 7.63225,-8.38859 h 1.65021 l -5.88577,6.38083 6.39459,8.56737 h -1.63646 l -5.6795,-7.54973 -2.44782,2.22779 v 5.32194 h -1.36143 v -21.3978 h 1.36143 v 10.72641 l -0.0963,4.11178 z"
         style="font-style:normal;font-variant:normal;font-weight:300;font-stretch:normal;font-size:28.16369057px;font-family:'Open Sans';-inkscape-font-specification:'Open Sans Light';fill:#00a9d3;stroke-width:0.29337177;fill-opacity:1"
         id="path4689" />
    </g>
    <g
       aria-label="DatE-IT"
       style="font-style:normal;font-variant:normal;font-weight:normal;font-stretch:normal;font-size:15.39753914px;line-height:1.25;font-family:'Open Sans';-inkscape-font-specification:'Open Sans';text-align:center;letter-spacing:0px;word-spacing:0px;text-anchor:middle;fill:#000000;fill-opacity:1;stroke:none;stroke-width:0.8248682"
       id="text977"
       inkscape:export-filename="/home/emil/Pictures/date-it/PNG/text-white-transparent-tiny.png"
       inkscape:export-xdpi="26.34"
       inkscape:export-ydpi="26.34">
      <path
         d="m 101.23247,58.323788 q 0,28.457953 -14.924956,43.073582 -14.924959,14.53831 -43.8469,14.53831 H 15.394626 V 2.8771786 h 30.545901 q 27.065987,0 41.140301,14.1516454 14.151642,14.151645 14.151642,41.294964 z m -8.583782,0.309326 q 0,-24.282058 -12.373023,-36.500418 Q 67.979974,9.8370041 44.084573,9.8370041 H 23.282428 V 108.97585 h 18.714197 q 50.652063,0 50.652063,-50.342736 z"
         style="font-style:normal;font-variant:normal;font-weight:300;font-stretch:normal;font-size:158.37469482px;font-family:'Open Sans';-inkscape-font-specification:'Open Sans Light';fill:#000000;stroke-width:0.8248682"
         id="path4610" />
      <path
         d="m 176.47592,115.93568 -1.93328,-13.301 h -0.61865 q -6.34118,8.11979 -13.06901,11.52237 -6.6505,3.32525 -15.7756,3.32525 -12.37303,0 -19.25552,-6.34117 -6.8825,-6.34117 -6.8825,-17.554226 0,-12.295692 10.20775,-19.100855 10.28507,-6.805162 29.69525,-7.191819 l 16.0076,-0.463989 v -5.56786 q 0,-11.986366 -4.87188,-18.095546 -4.87187,-6.10918 -15.69827,-6.10918 -11.67704,0 -24.20472,6.495837 l -2.86127,-6.6505 q 13.84232,-6.495837 27.37532,-6.495837 13.84232,0 20.64748,7.191819 6.88249,7.19182 6.88249,22.426105 v 55.910601 z m -30.93256,-5.4132 q 13.45567,0 21.18881,-7.65581 7.81047,-7.733138 7.81047,-21.420795 v -8.274459 l -14.69297,0.618651 q -17.70889,0.850645 -25.28736,5.56786 -7.50115,4.639884 -7.50115,14.538302 0,7.887801 4.79455,12.295691 4.87188,4.33056 13.68765,4.33056 z"
         style="font-style:normal;font-variant:normal;font-weight:300;font-stretch:normal;font-size:158.37469482px;font-family:'Open Sans';-inkscape-font-specification:'Open Sans Light';fill:#000000;stroke-width:0.8248682"
         id="path4612" />
      <path
         d="m 231.45855,110.67714 q 7.26915,0 12.68235,-1.2373 v 6.18651 q -5.56786,1.85595 -12.83701,1.85595 -11.13572,0 -16.47159,-5.95451 -5.25853,-5.95452 -5.25853,-18.7142 V 38.526951 H 197.12341 V 34.04173 l 12.45036,-3.479912 3.86657,-19.023523 h 3.9439 v 20.338156 h 24.66871 v 6.6505 H 217.38424 V 91.73095 q 0,9.66642 3.40258,14.30631 3.40258,4.63988 10.67173,4.63988 z"
         style="font-style:normal;font-variant:normal;font-weight:300;font-stretch:normal;font-size:158.37469482px;font-family:'Open Sans';-inkscape-font-specification:'Open Sans Light';fill:#000000;stroke-width:0.8248682"
         id="path4614" />
      <path
         d="M 326.18951,115.93568 H 264.40172 V 2.8771786 h 61.78779 V 10.14633 h -53.89999 v 42.76426 h 50.88406 v 7.269152 h -50.88406 v 48.486788 h 53.89999 z"
         style="font-style:normal;font-variant:normal;font-weight:300;font-stretch:normal;font-size:158.37469482px;font-family:'Open Sans';-inkscape-font-specification:'Open Sans Light';fill:#000000;stroke-width:0.8248682"
         id="path4616" />
      <path
         d="m 343.04775,76.342003 v -6.341174 h 36.73241 v 6.341174 z"
         style="font-style:normal;font-variant:normal;font-weight:300;font-stretch:normal;font-size:158.37469482px;font-family:'Open Sans';-inkscape-font-specification:'Open Sans Light';fill:#000000;stroke-width:0.8248682"
         id="path4618" />
      <path
         d="M 402.97959,115.93568 V 2.8771786 h 7.8878 V 115.93568 Z"
         style="font-style:normal;font-variant:normal;font-weight:300;font-stretch:normal;font-size:158.37469482px;font-family:'Open Sans';-inkscape-font-specification:'Open Sans Light';fill:#000000;stroke-width:0.8248682"
         id="path4620" />
      <path
         d="M 472.34583,115.93568 H 464.3807 V 10.300992 H 427.64829 V 2.8771786 h 81.42995 v 7.4238134 h -36.73241 z"
         style="font-style:normal;font-variant:normal;font-weight:300;font-stretch:normal;font-size:158.37469482px;font-family:'Open Sans';-inkscape-font-specification:'Open Sans Light';fill:#000000;stroke-width:0.8248682"
         id="path4622" />
    </g>
  </g>
</svg>
