<?xml version="1.0" encoding="UTF-8" standalone="no"?>
<svg
   xmlns:dc="http://purl.org/dc/elements/1.1/"
   xmlns:cc="http://creativecommons.org/ns#"
   xmlns:rdf="http://www.w3.org/1999/02/22-rdf-syntax-ns#"
   xmlns:svg="http://www.w3.org/2000/svg"
   xmlns="http://www.w3.org/2000/svg"
   xmlns:sodipodi="http://sodipodi.sourceforge.net/DTD/sodipodi-0.dtd"
   xmlns:inkscape="http://www.inkscape.org/namespaces/inkscape"
   width="14190"
   height="16000"
   preserveAspectRatio="xMidYMid meet"
   version="1.1"
   id="svg1026"
   sodipodi:docname="map-newsvg.svg"
   inkscape:version="0.92.4 (5da689c313, 2019-01-14)">
  <metadata
     id="metadata1032">
    <rdf:RDF>
      <cc:Work
         rdf:about="">
        <dc:format>image/svg+xml</dc:format>
        <dc:type
           rdf:resource="http://purl.org/dc/dcmitype/StillImage" />
        <dc:title></dc:title>
      </cc:Work>
    </rdf:RDF>
  </metadata>
  <defs
     id="defs1030" />
  <sodipodi:namedview
     pagecolor="#ffffff"
     bordercolor="#666666"
     borderopacity="1"
     objecttolerance="10"
     gridtolerance="10"
     guidetolerance="10"
     inkscape:pageopacity="0"
     inkscape:pageshadow="2"
     inkscape:window-width="3200"
     inkscape:window-height="1737"
     id="namedview1028"
     showgrid="false"
     showguides="true"
     inkscape:zoom="0.18725"
     inkscape:cx="13756.795"
     inkscape:cy="5027.6482"
     inkscape:window-x="0"
     inkscape:window-y="28"
     inkscape:window-maximized="0"
     inkscape:current-layer="svg1026" />
  <g
     id="g818"
     style="">
    <title
       id="title815">background</title>
    <rect
       fill="none"
       id="canvas_background"
       height="402"
       width="582"
       y="-1"
       x="-1"
       style="" />
  </g>
  <g
     id="g1024"
     transform="rotate(23.657785,7792.8107,8973.463)"
     style="">
    <title
       id="title820">Layer 1</title>
    <g
       id="layer101"
       style="fill:#030303">
      <path
         id="svg_1"
         d="m 6664.8182,15813 c -7,-2 -13,-17 -13,-32 0,-15 -4,-31 -9,-36 -5,-6 -28,-57 -52,-115 -23,-58 -46,-109 -49,-115 -4,-5 -36,-77 -70,-160 -35,-82 -67,-154 -71,-159 -5,-6 -9,-16 -9,-23 0,-7 -9,-32 -19,-56 -11,-23 -34,-78 -52,-122 -17,-44 -42,-102 -54,-130 -12,-27 -34,-76 -49,-108 -14,-32 -26,-61 -26,-64 0,-4 -9,-26 -20,-50 -23,-50 -58,-128 -72,-163 -6,-14 -14,-32 -18,-41 -29,-59 -170,-402 -170,-414 0,-8 -3,-15 -8,-15 -4,0 -15,-23 -25,-51 -10,-28 -32,-81 -49,-117 -16,-37 -39,-87 -49,-111 -11,-24 -29,-64 -39,-90 -10,-25 -31,-75 -48,-111 -16,-36 -55,-128 -87,-205 -31,-77 -66,-159 -76,-182 -10,-24 -19,-45 -19,-48 0,-2 -13,-34 -30,-70 -16,-36 -30,-71 -30,-78 0,-7 -4,-17 -9,-23 -5,-5 -19,-33 -31,-63 -11,-30 -32,-77 -45,-105 -36,-80 -65,-144 -85,-195 -10,-25 -30,-72 -45,-105 -40,-87 -95,-219 -95,-228 0,-4 -12,-33 -26,-65 -42,-93 -59,-133 -128,-294 -46,-109 -171,-399 -186,-434 -5,-11 -18,-42 -30,-70 -12,-27 -25,-59 -30,-70 -5,-11 -30,-72 -55,-135 -26,-63 -55,-133 -65,-155 -43,-95 -70,-156 -70,-161 0,-3 -11,-29 -24,-57 -52,-115 -68,-150 -100,-229 -19,-46 -42,-96 -50,-113 -9,-16 -16,-34 -16,-38 0,-7 -18,-50 -50,-122 -5,-11 -21,-49 -36,-85 -14,-36 -32,-78 -39,-95 -7,-16 -34,-79 -60,-140 -89,-206 -107,-250 -121,-280 -92,-213 -114,-268 -114,-285 0,-19 29,-35 176,-96 48,-20 94,-39 103,-44 9,-4 27,-12 41,-18 14,-6 46,-20 73,-31 26,-12 66,-29 90,-40 23,-10 62,-27 87,-39 25,-11 74,-32 110,-47 36,-15 83,-35 105,-45 22,-10 105,-46 185,-80 79,-34 160,-68 180,-77 19,-9 54,-24 78,-34 23,-11 63,-28 90,-40 26,-11 56,-24 67,-29 11,-5 40,-17 65,-28 25,-11 115,-50 200,-87 85,-37 175,-76 200,-87 25,-11 54,-23 65,-28 11,-5 41,-18 68,-29 26,-12 66,-29 90,-40 23,-10 62,-27 87,-39 25,-11 74,-32 110,-47 36,-15 79,-33 95,-42 17,-8 79,-35 139,-59 59,-25 116,-49 125,-54 16,-8 37,-17 136,-60 60,-26 95,-41 155,-68 25,-11 74,-32 110,-47 62,-26 91,-39 190,-83 25,-11 85,-37 134,-57 49,-20 96,-40 105,-45 9,-4 27,-12 41,-18 14,-6 46,-20 73,-31 26,-12 68,-30 95,-42 26,-11 54,-24 63,-29 9,-5 68,-30 130,-55 63,-26 119,-50 124,-54 6,-4 42,-20 80,-36 64,-25 94,-39 220,-95 170,-76 173,-77 199,-12 11,26 27,65 37,87 10,22 39,92 64,155 44,107 84,201 142,327 12,28 23,54 23,57 0,5 44,106 60,136 4,9 51,121 105,250 53,129 106,254 116,277 11,24 35,82 55,130 20,49 39,93 43,98 4,6 13,26 21,45 15,40 35,87 79,183 17,37 31,73 31,80 0,7 4,17 9,22 5,6 46,100 91,210 46,110 94,223 106,252 13,28 24,54 24,57 0,3 18,44 40,91 22,47 40,88 40,91 0,3 9,24 19,47 10,23 31,70 45,105 15,34 40,92 56,128 17,35 30,70 30,77 0,7 4,17 9,22 6,6 38,80 72,165 33,85 65,160 68,165 4,6 13,26 21,45 7,19 21,54 31,78 11,23 27,61 38,85 10,23 27,62 39,87 11,25 32,74 47,110 14.9998,36 32.9998,79 39.9998,95 8,17 25,55 38,85 13,30 39,91 57,135 17,44 41,103 52,130 21,52 29,70 73,170 15,33 34,78 42,100 17,45 76,180 104,236 4,9 29,67 54,129 25,62 50,120 54,129 5,9 14,30 21,46 7,17 18,44 25,60 7,17 32,77 56,135 23,58 52,128 65,155 12,28 34,76 48,108 14,32 26,60 26,63 0,3 11,29 24,57 54,120 69,155 166,388 56,134 109,262 119,284 58,130 81,187 81,206 0,15 -14,26 -57,45 -32,14 -71,32 -88,39 -16,7 -56,25 -87,39 -31,14 -61,26 -67,26 -5,0 -22,7 -38,15 -53,28 -184,85 -197,85 -6,0 -16,4 -21,9 -6,5 -50,26 -99,46 -49,20 -96,40 -105,45 -9,4 -27,12 -41,18 -14,6 -46,20 -72,31 -27,12 -69,30 -95,42 -27,11 -57,25 -68,29 -11,5 -45,20 -75,33 -29.9998,14 -74.9998,33 -99.9998,43 -25,9 -49,20 -55,25 -5,4 -61,28 -124,54 -62,25 -121,50 -130,55 -16,8 -37,17 -136,60 -63,27 -96,41 -167,74 -31,14 -59,26 -62,26 -6,0 -107,45 -137,60 -9,5 -55,24 -103,44 -47,20 -107,45 -134,57 -54,23 -96,42 -132,57 -14,5 -46,20 -72,31 -27,12 -69,30 -95,42 -27,11 -57,25 -68,29 -11,5 -50,22 -88,39 -37,17 -69,31 -72,31 -3,0 -34,13 -68,29 -34,16 -102,46 -151,66 -49,20 -96,40 -105,45 -9,4 -27,12 -41,18 -14,6 -52,22 -85,37 -33,15 -73,33 -90,40 -16,7 -55,24 -85,37 -30,14 -86,38 -125,53 -38,16 -74,32 -80,36 -5,4 -49,23 -98,43 -83,34 -117,49 -234,102 -28,13 -54,24 -57,24 -3,0 -31,12 -63,26 -202,92 -351,154 -370,153 -10,0 -24,-3 -30,-6 z"
         inkscape:connector-curvature="0"
         style="" />
      <path
         id="svg_8"
         d="m 13188.818,5333 c -13,-12 -7,-43 8,-43 8,0 23,-4 33,-9 9,-5 36,-17 59,-27 51,-23 59,-38 33,-64 -19,-19 -20,-19 -95,12 -64,26 -78,29 -86,17 -17,-27 -9,-37 49,-59 31,-12 71,-29 89,-36 42,-19 62,-18 69,4 4,9 15,36 27,58 20,39 20,43 4,67 -9,13 -38,35 -64,47 -26,12 -56,26 -65,31 -21,11 -52,12 -61,2 z"
         inkscape:connector-curvature="0"
         style="" />
    </g>
    <g
       id="layer102"
       style="fill:#ffffff">
      <path
         id="svg_45"
         d="m 6644.8181,15808.454 c -7,-2 -13,-17 -13,-32 0,-15 -4,-31 -9,-36 -5,-6 -28,-57 -52,-115 -23,-58 -46,-109 -49,-115 -4,-5 -36,-77 -70,-160 -35,-82 -67,-154 -71,-159 -5,-6 -9,-16 -9,-23 0,-7 -9,-32 -19,-56 -11,-23 -34,-78 -52,-122 -17,-44 -42,-102 -54,-130 -12,-27 -34,-76 -49,-108 -14,-32 -26,-61 -26,-64 0,-4 -9,-26 -20,-50 -23,-50 -58,-128 -72,-163 -6,-14 -14,-32 -18,-41 -29,-59 -170,-402 -170,-414 0,-8 -3,-15 -8,-15 -4,0 -15,-23 -25,-51 -10,-28 -32,-81 -49,-117 -16,-37 -39,-87 -49,-111 -11,-24 -29,-64 -39,-90 -10,-25 -31,-75 -48,-111 -16,-36 -55,-128 -87,-205 -31,-77 -66,-159 -76,-182 -10,-24 -19,-45 -19,-48 0,-2 -13,-34 -30,-70 -16,-36 -30,-71 -30,-78 0,-7 -4,-17 -9,-23 -5,-5 -19,-33 -31,-63 -11,-30 -32,-77 -45,-105 -36,-80 -65,-144 -85,-195 -10,-25 -30,-72 -45,-105 -40,-87 -95,-219 -95,-228 0,-4 -12,-33 -26,-65 -42,-93 -59,-133 -128,-294 -46,-109 -171,-399 -186,-434 -5,-11 -18,-42 -30,-70 -12,-27 -25,-59 -30,-70 -5,-11 -30,-72 -55,-135 -26,-63 -55,-133 -65,-155 -43,-95 -70,-156 -70,-161 0,-3 -11,-29 -24,-57 -52,-115 -68,-150 -100,-229 -19,-46 -42,-96 -50,-113 -9,-16 -16,-34 -16,-38 0,-7 -18,-50 -50,-122 -5,-11 -21,-49 -36,-85 -14,-36 -32,-78 -39,-95 -7,-16 -34,-79 -60,-139.9997 -89,-206 -107,-250 -121,-280 -92,-213 -114,-268 -114,-285 0,-19 29,-35 176,-96 48,-20 94,-39 103,-44 9,-4 27,-12 41,-18 14,-6 46,-20 73,-31 26,-12 66,-29 90,-40 23,-10 62,-27 87,-39 25,-11 74,-32 110,-47 36,-15 83,-35 105,-45 22,-10 105,-46 185,-80 79,-34 160,-68 180,-77 19,-9 54,-24 78,-34 23,-11 63,-28 90,-40 26,-11 56,-24 67,-29 11,-5 40,-17 65,-28 25,-11 115,-50 200,-87 85,-37 175,-76 200,-87 25,-11 54,-23 65,-28 11,-5 41,-18 68,-29 26,-12 66,-29 90,-40 23,-10 62,-27 87,-39 25,-11 74,-32 110,-47 36,-15 79,-33 95,-42 17,-8 79,-35 139,-59 59,-25 116,-49 125,-54 16,-8 37,-17 136,-60 60,-26 95,-41 155,-68 25,-11 74,-32 110,-47 62,-26 91,-39 190,-83 25,-11 85,-37 134,-57 49,-20 96,-40 105,-45 9,-4 27,-12 41,-18 14,-6 46,-20 73,-31 26,-12 68,-30 95,-42 26,-11 54,-24 63,-29 9,-5 68,-30 130,-55 63,-26 119,-50 124,-54 6,-4 42,-20 80,-36 64,-25 94,-39 220,-95 170,-76 173,-77 199,-12 11,26 27,65 37,87 10,22 39,92 64,155 44,107 84,201 142,327 12,28 23,54 23,57 0,5 44,106 60,136 4,9 51,121 105,250 53,129 106,254 116,277 11,24 35,82 55,130 20,49 39,93 43,98 4,6 13,26 21,45 15,40 35,87 79,183 17,37 31,73 31,80 0,7 4,17 9,22 5,6 46,100 91,210 46,110 94,223 106,252 13,28 24,54 24,57 0,3 18,44 40,91 22,46.9997 40,87.9997 40,90.9997 0,3 9,24 19,47 10,23 31,70 45,105 15,34 40,92 56,128 17,35 30,70 30,77 0,7 4,17 9,22 6,6 38,80 72,165 33,85 65,160 68,165 4,6 13,26 21,45 7,19 21,54 31,78 11,23 27,61 38,85 10,23 27,62 39,87 11,25 32,74 47,110 15,36 33,79 39.9999,95 8,17 25,55 38,85 13,30 39,91 57,135 17,44 41,103 52,130 21,52 29,70 73,170 15,33 34,78 42,100 17,45 76,180 104,236 4,9 29,67 54,129 25,62 50,120 54,129 5,9 14,30 21,46 7,17 18,44 25,60 7,17 32,77 56,135 23,58 52,128 65,155 12,28 34,76 48,108 14,32 26,60 26,63 0,3 11,29 24,57 54,120 69,155 166,388 56,134 109,262 119,284 58,130 81,187 81,206 0,15 -14,26 -57,45 -32,14 -71,32 -88,39 -16,7 -56,25 -87,39 -31,14 -61,26 -67,26 -5,0 -22,7 -38,15 -53,28 -184,85 -197,85 -6,0 -16,4 -21,9 -6,5 -50,26 -99,46 -49,20 -96,40 -105,45 -9,4 -27,12 -41,18 -14,6 -46,20 -72,31 -27,12 -69,30 -95,42 -27,11 -57,25 -68,29 -11,5 -45,20 -75,33 -29.9999,14 -74.9999,33 -99.9999,43 -25,9 -49,20 -55,25 -5,4 -61,28 -124,54 -62,25 -121,50 -130,55 -16,8 -37,17 -136,60 -63,27 -96,41 -167,74 -31,14 -59,26 -62,26 -6,0 -107,45 -137,60 -9,5 -55,24 -103,44 -47,20 -107,45 -134,57 -54,23 -96,42 -132,57 -14,5 -46,20 -72,31 -27,12 -69,30 -95,42 -27,11 -57,25 -68,29 -11,5 -50,22 -88,39 -37,17 -69,31 -72,31 -3,0 -34,13 -68,29 -34,16 -102,46 -151,66 -49,20 -96,40 -105,45 -9,4 -27,12 -41,18 -14,6 -52,22 -85,37 -33,15 -73,33 -90,40 -16,7 -55,24 -85,37 -30,14 -86,38 -125,53 -38,16 -74,32 -80,36 -5,4 -49,23 -98,43 -83,34 -117,49 -234,102 -28,13 -54,24 -57,24 -3,0 -31,12 -63,26 -202,92 -351,154 -370,153 -10,0 -24,-3 -30,-6 z m 709,-435 c 103,-58 103,-227 1,-288 -49,-29 -139,-27 -183,3 -58,39 -75,71 -75,140 0,69 23,111 80,147 43,28 125,27 177,-2 z m 508,-213 c 42,-29 80,-94 80,-137 0,-31 -23,-85 -47,-114 -34,-38 -70,-54 -128,-54 -184,0 -238,235 -73,319 55,28 114,24 168,-14 z m 483,-206 c 49,-32 87,-95 87,-143 0,-41 -49,-125 -83,-142 -80,-42 -196,-19 -236,47 -97,159 79,340 232,238 z m 507,-221 c 72,-53 91,-143 48,-220 -85,-151 -318,-90 -318,83 0,75 49,144 115,162 42,12 123,-1 155,-25 z m -2250,-20 c 103,-76 90,-232 -23,-287 -55,-27 -99,-27 -154,0 -135,65 -121,260 22,311 38,14 122,1 155,-24 z m 2726,-179 c 124,-76 106,-252 -31,-305 -54,-20 -98,-15 -153,20 -102,64 -98,212 7,283 45,31 130,32 177,2 z m -2939,-315 c 22,-15 48,-42 57,-61 37,-77 8,-182 -61,-223 -49,-29 -139,-27 -183,3 -58,39 -75,71 -75,140 0,70 24,114 79,148 48,29 131,26 183,-7 z m 810,-48 c 43,-30 71,-73 79,-125 5,-31 1,-49 -21,-90 -37,-66 -78,-91 -154,-91 -48,0 -65,5 -98,29 -42,30 -73,89 -73,138 0,43 39,112 78,138 51,35 138,35 189,1 z m 3242.9999,-102 c 23,-15 48,-44 60,-68 21,-45 27,-111 10,-121 -5,-3 -10,-13 -10,-21 0,-25 -51,-73 -96,-90 -150,-57 -291,117 -204,251 33,50 78,74 143,74 46,1 65,-4 97,-25 z m -2912.9999,-48 c 70,-48 100,-134 70,-199 -48,-100 -148,-142 -235,-98 -64,33 -102,93 -102,159 0,42 40,112 79,137 52,34 138,34 188,1 z m -1354,-297 c 49,-32 87,-94 87,-143 0,-15 -9,-43 -19,-64 -49,-95 -143,-127 -239,-81 -128,63 -116,256 20,306 58,20 101,16 151,-18 z m 825,-36 c 37,-28 70,-78 78,-121 9,-49 -34,-133 -85,-163 -128,-77 -279,27 -256,177 7,48 66,119 107,127 49,11 129,0 156,-20 z m 1399,-64 c 55,-27 82,-66 90,-128 16,-136 -126,-233 -247,-169 -63,34 -90,77 -90,146 0,132 126,209 247,151 z m -1074,-80 c 49,-32 87,-94 87,-143 0,-15 -9,-43 -19,-64 -49,-95 -143,-127 -239,-81 -128,63 -116,256 20,306 58,20 101,16 151,-18 z m 1948,-252 c 51,-27 76,-66 85,-130 18,-131 -127,-228 -246,-165 -64,35 -90,77 -90,147 0,70 30,119 92,150 56,27 104,27 159,-2 z m -1223,-34 c 15,-11 38,-35 50,-54 20,-28 23,-44 20,-94 -4,-72 -32,-116 -93,-145 -54,-26 -99,-25 -155,4 -118,60 -117,231 1,294 54,29 134,27 177,-5 z m -2088,-26 c 71,-37 108,-134 77,-200 -48,-100 -148,-142 -235,-98 -52,27 -79,59 -93,111 -22,83 20,168 96,195 58,21 106,18 155,-8 z m 817,-20 c 56,-38 77,-83 71,-152 l -5,-56 31,29 c 111,104 278,40 293,-111 5,-57 -30,-124 -80,-150 -79,-41 -152,-32 -213,26 -50,45 -63,113 -37,184 3,10 -13,-1 -36,-24 -63,-63 -154,-71 -222,-21 -47,35 -69,78 -69,137 0,138 153,217 267,138 z m 2813,-80 c 28,-15 51,-36 63,-61 24,-45 34,-120 18,-130 -6,-4 -11,-15 -11,-24 -1,-24 -59,-77 -99,-91 -132,-44 -258,72 -221,204 30,108 148,156 250,102 z m -1248,-3 c 84,-43 124,-126 99,-202 -36,-107 -149,-151 -251,-99 -54,27 -85,80 -85,148 0,116 138,204 237,153 z m 2065.9999,-65 c 25,-13 54,-37 69,-60 22,-33 25,-47 21,-96 -5,-70 -33,-114 -93,-143 -53,-26 -98,-25 -153,1 -72,35 -105,114 -82,200 27,99 139,145 238,98 z m -1355.9999,-243 c 94,-40 132,-140 87,-232 -46,-97 -183,-124 -264,-53 -42,37 -70,106 -61,151 10,51 50,103 98,127 50,25 92,27 140,7 z m -1190,-28 c 103,-58 103,-227 1,-288 -49,-29 -139,-27 -183,3 -58,39 -75,71 -75,140 0,69 23,111 80,147 43,28 125,27 177,-2 z m -2103,-49 c 44,-32 61,-63 68,-119 16,-133 -120,-229 -242,-170 -137,66 -125,261 20,312 38,13 122,1 154,-23 z m 798,-1 c 64,-29 113,-100 113,-163 v -24 l 43,24 c 84,49 184,29 241,-48 29,-40 30,-144 0,-184 -37,-50 -81,-73 -141,-73 -107,0 -173,63 -173,166 v 48 l -28,-27 c -52,-50 -129,-60 -200,-26 -128,62 -115,263 20,306 46,15 92,15 125,1 z m 2831,-89 c 25,-13 54,-37 69,-60 22,-33 25,-47 21,-96 -5,-71 -33,-114 -96,-144 -121,-59 -255,38 -239,173 8,61 35,100 89,127 54,27 100,27 156,0 z m -1200,-19 c 45,-33 62,-63 69,-120 9,-75 -23,-132 -93,-166 -65,-32 -110,-29 -171,9 -50,32 -73,75 -73,139 0,75 42,138 106,158 50,16 126,6 162,-20 z m 2039.9999,-73 c 89,-66 108,-169 45,-246 -38,-45 -73,-61 -138,-61 -73,0 -127,32 -154.9999,94 -25,57 -25,75 2,138 28.9999,69 72.9999,97 153.9999,97 48,1 66,-4 92,-22 z m -1366.9999,-240 c 56,-30 82,-75 83,-142 l 1,-53 33,34 c 48,49 131,68 189,42 75,-34 108,-90 101,-171 -5,-65 -36,-109 -93,-137 -54,-26 -99,-25 -155,4 -57,29 -84,74 -85,142 v 52 l -33,-34 c -57,-59 -146,-68 -218,-23 -52,32 -74,73 -74,139 0,69 30,118 92,149 56,27 104,27 159,-2 z m -1208,-41 c 43,-33 57,-60 67,-127 4,-30 8,-48 9,-42 0,7 19,24 41,38 56,36 139,35 192,-1 42,-29 78,-94 78,-141 0,-44 -39,-111 -80,-139 -50,-34 -135,-34 -191,2 -48,30 -83,98 -77,149 l 4,33 -23,-24 c -51,-55 -129,-68 -200,-33 -135,65 -121,260 22,311 40,14 123,1 158,-26 z m -2124,4 c 126,-64 134,-227 15,-301 -58,-35 -163,-21 -214,30 -46,46 -54,149 -16,209 27,43 95,82 144,82 18,0 50,-9 71,-20 z m 4469,-191 c 24.9999,-13 53.9999,-37 68.9999,-60 22,-33 25,-47 21,-96 -3,-41 -11,-68 -28,-91 -29,-38 -93.9999,-72 -139.9999,-72 -47,0 -119,37 -140,73 -92,151 59,322 218,246 z m -1371,-250 c 58,-22 112,-99 113,-160 0,-52 -49,-122 -104,-149 -54,-26 -95,-25 -151,1 -101,48 -124,188 -44,268 46,46 125,63 186,40 z m -3289,-93 c 50,-34 72,-74 72,-130 0,-138 -124,-215 -248,-155 -71,35 -105,114 -82,197 29,108 163,154 258,88 z m 3657,-69 c 53,-36 75,-77 75,-141 0,-91 -57,-153 -151,-163 -68,-7 -118,14 -157,65 -23,30 -27,45 -27,96 1,84 23,121 88,152 64,31 118,28 172,-9 z m 814,-93 c 41,-26 81,-100 81,-146 0,-13 -13,-46 -29,-73 -49,-85 -140,-116 -220,-75 -125,63 -134,225 -16,300 46,30 134,27 184,-6 z m -3759,-139 c 43,-30 80,-95 80,-139 0,-41 -49,-125 -83,-142 -15,-8 -50,-18 -76,-21 -123,-14 -216,93 -181,210 33,114 163,159 260,92 z m 327,-139 c 70,-48 100,-134 70,-199 -48,-100 -148,-142 -235,-98 -64,33 -102,93 -102,159 0,42 40,112 79,137 52,34 138,34 188,1 z m -1238,-27 c 75,-55 93,-145 46,-225 -28,-47 -90,-84 -143,-84 -41,0 -118,36 -138,64 -23,34 -36,96 -29,143 5,34 16,54 46,83 45,43 62,49 134,46 35,-2 61,-10 84,-27 z m 4448,-160 c 79,-38 115,-130 83,-214 -23,-61 -92,-105 -164,-105 -44,0 -115,38 -136,73 -92,151 60,322 217,246 z m -2498,-120 c 45,-33 62,-64 68,-122 10,-104 -64,-182 -173,-182 -61,0 -123,36 -148,86 -20,40 -21,121 -2,158 16,30 70,75 101,84 41,12 123,-1 154,-24 z m -1273,-40 c 52,-25 83,-71 90,-136 15,-130 -129,-223 -246,-161 -63,34 -90,77 -90,145 0,30 6,66 14,81 44,84 143,115 232,71 z m 1575,-83 c 61,-26 109,-97 109,-163 0,-39 -41,-114 -74,-134 -66,-40 -169,-34 -219,14 -34,31 -61,109 -53,149 10,51 50,103 98,127 50,24 92,27 139,7 z m -1244,-37 c 58,-22 112,-99 113,-160 0,-78 -95,-169 -177,-169 -89,0 -173,82 -173,170 0,115 127,201 237,159 z m -1220,-53 c 50,-35 73,-77 73,-137 0,-103 -67,-169 -171,-169 -60,0 -106,24 -141,73 -18,25 -23,46 -23,94 0,69 17,101 75,141 48,32 138,31 187,-2 z m 4472,-151 c 41,-28 81,-96 81,-140 0,-41 -48,-122 -87,-145 -24,-14 -52,-20 -92,-20 -48,0 -65,5 -98,29 -42,30 -73,89 -73,138 0,43 39,112 78,138 52,35 137,35 191,0 z m -1274,-86 c 49,-33 75,-80 75,-136 0,-154 -178,-230 -289,-123 -46,45 -60,100 -41,170 28,105 162,151 255,89 z m -1272,-5 c 114,-58 141,-186 58,-272 -66,-68 -183,-70 -249,-4 -29,29 -56,107 -49,142 10,50 51,104 98,127 52,27 98,29 142,7 z m -1224,-85 c 44,-32 61,-63 68,-119 9,-75 -24,-135 -91,-166 -28,-13 -64,-24 -80,-24 -45,0 -116,41 -142,82 -57,90 -8,224 91,251 41,12 123,-1 154,-24 z m 2829,-46 c 48,-35 72,-81 72,-136 0,-125 -120,-209 -231,-163 -78,33 -117,105 -104,192 7,48 66,119 107,127 49,11 129,0 156,-20 z m -1269,-23 c 126,-64 134,-227 15,-301 -58,-35 -163,-21 -214,30 -67,67 -48,214 34,259 67,37 111,40 165,12 z m -1241,-54 c 89,-46 118,-168 58,-249 -34,-47 -77,-67 -140,-67 -96,0 -155,54 -173,157 -7,43 32,119 77,149 42,27 135,32 178,10 z m -1242,-17 c 33,-15 49,-32 68,-72 39,-78 32,-124 -31,-193 -88,-96.9997 -250,-54 -284,76 -37,143 110,256 247,189 z m 4473,-190 c 75,-55 93,-144.9997 46,-224.9997 -28,-47 -90,-84 -143,-84 -41,0 -118,36 -138,64 -23,34 -36,96 -29,142.9997 5,34 16,54 46,83 45,43 62,49 134,46 35,-2 61,-10 84,-27 z m -1286,-33 c 73,-30 121,-126.9997 97,-193.9997 -20,-55 -49,-90 -95,-112 -70,-34 -142,-21 -198,35 -25,25 -47,79 -47,115 0,118.9997 131,202.9997 243,155.9997 z m -1211,-52 c 40,-28 78,-93.9997 78,-136.9997 0,-44 -40,-116 -79,-143 -51,-34 -136,-34 -191,1 -43,27 -80,93 -80,142 0,41 42,113.9997 81,139.9997 51,33 140,32 191,-3 z m 1567,-98.9997 c 41,-28 81,-96 81,-140 0,-41 -48,-122 -87,-145 -24,-14 -52,-20 -92,-20 -48,0 -65,5 -98,29 -42,30 -73,89 -73,138 0,43 39,112 78,138 52,35 137,35 191,0 z m -1258,-19 c 80,-34 125,-127 99,-205 -37,-112 -169,-154 -270,-87 -53,35 -79,112 -61,179 28,98 139,152 232,113 z m -2446,-117 c 95,-64 102,-203 14,-270 -72,-55 -164,-51 -228,11 -46,45 -60,100 -41,170 28,105 162,151 255,89 z m 4422,-173 c 50,-35 73,-77 73,-137 0,-103 -67,-169 -171,-169 -60,0 -106,24 -141,73 -18,25 -23,46 -23,94 0,69 17,101 75,141 48,32 138,31 187,-2 z m -1257,-72 c 42,-28 80,-93 80,-136 0,-31 -23,-85 -47,-114 -34,-39 -70,-54 -131,-54 -49,0 -66,5 -99,29 -42,30 -73,89 -73,138 0,43 39,112 79,138 53,35 137,34 191,-1 z m 316,-130 c 57,-38 72,-58 86,-108 37,-138 -111,-249 -249,-186 -126,57 -118,241 12,301 57,26 105,24 151,-7 z m -3069,-28 c 78,-53 98,-154 47,-233 -65,-99 -215,-99 -286,0 -18,25 -23,46 -23,94 0,69 17,101 75,141 48,32 138,31 187,-2 z m 3810,-252 c 22,-15 48,-42 57,-61 38,-79 6,-187 -66,-224 -53,-27 -135,-26 -178,4 -58,39 -75,71 -75,142 0,71 17,103 75,143 49,33 132,31 187,-4 z m -2117,-436 c 58,-40 75,-72 75,-141 0,-50 -5,-68 -25,-95 -39,-53 -79,-72 -146,-72 -79,1 -129,34 -156,105 -30,77 -5,155 64,202 47,31 142,32 188,1 z m 1871,-42 c 80,-34 125,-127 99,-205 -37,-112 -169,-154 -270,-87 -53,35 -79,112 -61,179 28,98 139,152 232,113 z m -1530,-130 c 80,-34 125,-127 99,-205 -37,-112 -169,-154 -270,-87 -53,35 -79,112 -61,179 28,98 139,152 232,113 z m 532,-267 c 48,-32 87,-94 87,-141 0,-66 -55,-140 -116,-157 -115,-32 -211,22 -229,130 -13,74 28,147 100,180 59,27 104,24 158,-12 z m 525,-246 c 105,-78 94,-233 -21,-291 -52,-26 -96,-28 -140,-6 -79,40 -115,106 -102,190 7,48 66,119 107,127 49,11 129,0 156,-20 z"
         inkscape:connector-curvature="0"
         style="" />
      <path
         id="svg_46"
         d="m 7153.8181,15309.454 c -18,-12 -22,-25 -22,-70 0,-45 4,-59 25,-80 26,-26 60,-26 77,0 12,18 9,31 -4,18 -7,-7 -24,-12 -39,-12 -27,0 -39,15 -39,48 0,12 3,13 12,4 32,-32 95,10 83,56 -11,49 -52,65 -93,36 z m 66,-16 c 30,-30 0,-75 -43,-64 -19,5 -25,13 -25,35 0,38 41,56 68,29 z"
         inkscape:connector-curvature="0"
         style="" />
      <path
         id="svg_47"
         d="m 7297.8181,15310.454 c -20,-20 -22,-123 -3,-149 15,-20 62,-25 79,-8 17,17 21,113 6,142 -16,30 -59,38 -82,15 z m 62,-17 c 14,-14 16,-96 3,-116 -4,-8 -19,-12 -32,-10 -21,3 -24,9 -27,47 -2,25 -1,55 3,68 6,25 33,31 53,11 z"
         inkscape:connector-curvature="0"
         style="" />
      <path
         id="svg_48"
         d="m 7660.8181,15096.454 c -13,-11 -20,-23 -16,-27 4,-5 12,-3 16,5 5,7 21,11 37,9 26,-3 29,-7 29,-38 0,-35 0,-35 -42,-34 -47,1 -50,-4 -32,-55 10,-28 15,-31 50,-31 21,0 39,5 39,10 0,6 -15,10 -34,10 -25,0 -35,5 -39,20 -4,17 0,20 23,20 31,0 60,31 60,63 0,19 -42,67 -58,67 -6,0 -20,-9 -33,-19 z"
         inkscape:connector-curvature="0"
         style="" />
      <path
         id="svg_49"
         d="m 7800.8181,15094.454 c -23,-23 -18,-39 5,-20 23,19 60,10 64,-16 3,-18 -1,-21 -29,-20 -26,2 -36,-4 -48,-25 -14,-25 -14,-31 -1,-55 19,-34 43,-40 75,-19 22,14 25,24 25,76 0,51 -3,61 -26,79 -33,26 -39,26 -65,0 z m 66,-109 c 0,-38 -24,-52 -50,-30 -31,25 -9,73 30,68 16,-2 20,-11 20,-38 z"
         inkscape:connector-curvature="0"
         style="" />
      <path
         id="svg_50"
         d="m 8143.8181,14893.454 c -6,-6 -12,-19 -12,-27 1,-14 3,-13 14,2 21,27 64,22 72,-8 11,-44 -1,-58 -47,-52 l -41,5 7,-36 c 4,-20 9,-40 11,-44 8,-12 84,-10 84,2 0,6 -15,10 -34,10 -22,0 -36,6 -40,16 -9,23 -9,22 26,26 23,2 37,11 48,31 13,24 13,30 0,55 -17,30 -66,42 -88,20 z"
         inkscape:connector-curvature="0"
         style="" />
      <path
         id="svg_51"
         d="m 8281.8181,14886.454 c -13,-25 -13,-58 0,-66 5,-3 7,-19 3,-35 -3,-18 0,-36 7,-45 31,-38 102,5 79,48 -8,13 -8,22 0,30 15,15 14,60 -1,75 -20,20 -76,15 -88,-7 z m 75,-36 c 0,-27 -3,-30 -30,-30 -21,0 -31,5 -33,18 -6,33 6,49 35,45 24,-3 28,-8 28,-33 z m -5,-80 c 0,-20 -5,-25 -25,-25 -20,0 -25,5 -25,25 0,20 5,25 25,25 20,0 25,-5 25,-25 z"
         inkscape:connector-curvature="0"
         style="" />
      <path
         id="svg_52"
         d="m 8640.8181,14684.454 c -11,-11 -18,-23 -15,-27 4,-3 12,0 18,6 7,7 25,12 41,12 27,0 28,-2 25,-37 -3,-38 -3,-38 -44,-36 l -42,2 9,-37 c 5,-20 9,-40 9,-44 0,-12 90,-9 90,2 0,6 -15,10 -34,10 -22,0 -36,6 -40,16 -10,27 -7,31 22,26 54,-8 78,73 33,110 -30,23 -46,23 -72,-3 z"
         inkscape:connector-curvature="0"
         style="" />
      <path
         id="svg_53"
         d="m 8791.8181,14683.454 c 0,-27 35,-106 57,-130 15,-17 13,-18 -35,-18 -29,0 -52,-4 -52,-10 0,-6 27,-10 60,-10 33,0 60,2 60,4 0,3 -14,27 -31,54 -17,27 -33,68 -36,91 -6,43 -23,57 -23,19 z"
         inkscape:connector-curvature="0"
         style="" />
      <path
         id="svg_54"
         d="m 6404.8181,14660.454 c -43,-30 -41,-133 3,-162 28,-18 69,-11 78,13 9,24 -3,33 -15,11 -13,-22 -42,-22 -62,1 -20,22 -17,109 4,123 32,20 63,-3 57,-43 -2,-18 -10,-24 -36,-26 -39,-4 -33,-22 8,-22 50,0 70,75 28,104 -28,20 -38,20 -65,1 z"
         inkscape:connector-curvature="0"
         style="" />
      <path
         id="svg_55"
         d="m 6581.8181,14599.454 c 0,-67 -2,-75 -15,-64 -9,7 -18,10 -22,6 -3,-3 -4,-7 -2,-8 2,-2 16,-14 32,-27 l 27,-24 v 96 c 0,58 -4,97 -10,97 -6,0 -10,-32 -10,-76 z"
         inkscape:connector-curvature="0"
         style="" />
      <path
         id="svg_56"
         d="m 9117.8181,14453.454 c -9,-12 -13,-24 -10,-27 3,-3 10,2 15,12 12,21 52,22 69,2 7,-9 10,-25 6,-41 -7,-25 -10,-26 -50,-21 l -43,6 10,-44 c 10,-45 11,-45 54,-45 24,0 43,5 43,10 0,6 -15,10 -34,10 -22,0 -36,6 -40,16 -9,24 -8,26 14,19 31,-10 74,38 65,73 -10,39 -24,52 -56,52 -17,0 -34,-8 -43,-22 z"
         inkscape:connector-curvature="0"
         style="" />
      <path
         id="svg_57"
         d="m 9262.8181,14461.454 c -29,-34 -26,-120 5,-150 23,-23 71,-20 84,5 14,25 3,41 -11,16 -13,-23 -56,-22 -69,2 -17,33 -13,42 14,30 51,-24 94,36 62,86 -19,28 -66,34 -85,11 z m 74,-40 c 0,-36 -27,-56 -52,-40 -40,25 -20,77 26,72 21,-2 26,-8 26,-32 z"
         inkscape:connector-curvature="0"
         style="" />
      <path
         id="svg_58"
         d="m 6167.8181,14143.454 c -23,-33 -21,-109 4,-136 21,-22 55,-28 76,-14 14,9 26,42 15,42 -5,0 -11,-7 -15,-15 -8,-22 -53,-19 -66,4 -17,33 -13,42 14,30 51,-24 94,36 62,86 -21,33 -69,34 -90,3 z m 82,-26 c 4,-28 -14,-52 -38,-52 -26,0 -43,26 -36,55 6,22 11,26 39,23 25,-2 33,-8 35,-26 z"
         inkscape:connector-curvature="0"
         style="" />
      <path
         id="svg_59"
         d="m 6297.8181,14152.454 c 2,-7 25,-30 50,-51 36,-30 45,-43 42,-64 -2,-21 -9,-28 -29,-30 -15,-2 -34,4 -43,14 -23,22 -29,13 -10,-14 16,-24 53,-29 85,-12 33,18 24,59 -23,107 l -42,43 h 42 c 23,0 42,5 42,10 0,6 -27,10 -60,10 -45,0 -58,-3 -54,-13 z"
         inkscape:connector-curvature="0"
         style="" />
      <path
         id="svg_60"
         d="m 6987.8181,14109.454 c -9,-8 -16,-20 -16,-25 0,-15 17,-10 24,6 3,8 17,15 30,15 19,0 27,-7 32,-25 12,-48 -20,-80 -58,-56 -28,18 -32,8 -18,-44 12,-43 14,-45 51,-45 28,0 39,4 39,15 0,10 -11,15 -35,15 -28,0 -35,4 -35,20 0,13 5,18 15,14 26,-11 65,23 65,56 0,55 -59,89 -94,54 z"
         inkscape:connector-curvature="0"
         style="" />
      <path
         id="svg_61"
         d="m 7127.8181,14103.454 c -20,-28 -12,-36 13,-14 32,29 56,17 56,-29 0,-36 -2,-40 -25,-39 -14,1 -32,4 -42,8 -15,7 -15,3 -4,-41 12,-47 13,-48 54,-51 32,-2 42,0 42,12 0,10 -12,16 -37,18 -27,2 -39,8 -41,21 -3,14 1,17 21,12 31,-8 71,37 61,69 -17,55 -70,74 -98,34 z"
         inkscape:connector-curvature="0"
         style="" />
      <path
         id="svg_62"
         d="m 10261.818,13955.454 c 0,-68 -1,-70 -20,-60 -29,16 -24,-2 10,-35 l 30,-29 v 97 c 0,58 -4,97 -10,97 -6,0 -10,-30 -10,-70 z"
         inkscape:connector-curvature="0"
         style="" />
      <path
         id="svg_63"
         d="m 10421.818,14005.454 c 0,-17 -7,-20 -40,-20 -24,0 -40,-5 -40,-12 0,-16 80,-138 91,-138 5,0 9,29 9,64 0,42 4,66 13,70 10,5 10,7 0,12 -7,3 -13,14 -13,25 0,10 -4,19 -10,19 -5,0 -10,-9 -10,-20 z m 0,-80 c 0,-22 -2,-40 -5,-40 -6,0 -45,62 -45,73 0,4 11,7 25,7 23,0 25,-4 25,-40 z"
         inkscape:connector-curvature="0"
         style="" />
      <path
         id="svg_64"
         d="m 7371.8181,13945.454 c 0,-17 -7,-20 -40,-20 -22,0 -40,-4 -40,-10 0,-18 75,-129 88,-130 8,0 12,18 12,59 0,38 5,61 13,65 10,5 10,7 0,12 -7,3 -13,14 -13,25 0,10 -4,19 -10,19 -5,0 -10,-9 -10,-20 z m 0,-80 c 0,-22 -2,-40 -4,-40 -5,0 -46,65 -46,74 0,3 11,6 25,6 23,0 25,-4 25,-40 z"
         inkscape:connector-curvature="0"
         style="" />
      <path
         id="svg_65"
         d="m 7441.8181,13954.454 c 0,-6 18,-27 41,-47 52,-47 64,-69 48,-88 -15,-19 -48,-18 -71,3 -15,13 -18,14 -18,2 0,-43 78,-55 104,-17 9,12 16,26 16,31 0,4 -21,30 -46,57 l -47,50 h 47 c 25,0 46,5 46,10 0,6 -27,10 -60,10 -36,0 -60,-4 -60,-11 z"
         inkscape:connector-curvature="0"
         style="" />
      <path
         id="svg_66"
         d="m 5971.8181,13655.454 c -15,-15 -20,-33 -20,-74 0,-47 4,-57 26,-75 34,-26 49,-26 75,0 25,25 17,39 -9,16 -25,-22 -49,-21 -62,2 -16,31 -12,37 24,33 59,-7 84,59 40,103 -21,21 -50,19 -74,-5 z m 70,-15 c 7,-9 10,-25 6,-40 -6,-22 -11,-26 -39,-23 -25,2 -33,8 -35,26 -7,44 41,70 68,37 z"
         inkscape:connector-curvature="0"
         style="" />
      <path
         id="svg_67"
         d="m 6120.8181,13656.454 c -13,-11 -20,-23 -16,-28 5,-4 14,0 21,10 16,21 39,22 56,2 17,-21 9,-48 -20,-62 l -25,-13 23,-6 c 25,-7 30,-41 7,-51 -9,-3 -25,3 -35,12 -11,10 -23,15 -28,11 -9,-9 35,-46 54,-46 8,0 23,9 34,20 17,17 18,24 9,41 -8,15 -8,24 0,32 19,19 13,65 -11,81 -29,21 -41,20 -69,-3 z"
         inkscape:connector-curvature="0"
         style="" />
      <path
         id="svg_68"
         d="m 6790.8181,13624.454 c -25,-25 -17,-39 9,-16 33,30 72,15 72,-29 0,-35 -26,-50 -62,-36 l -30,11 6,-41 c 4,-23 9,-45 12,-50 7,-12 84,-10 84,2 0,6 -15,10 -34,10 -22,0 -36,6 -40,16 -11,28 -6,35 18,28 28,-7 66,25 66,55 0,26 -38,71 -61,71 -10,0 -28,-9 -40,-21 z"
         inkscape:connector-curvature="0"
         style="" />
      <path
         id="svg_69"
         d="m 6991.8181,13625.454 c 0,-17 -7,-20 -40,-20 -24,0 -40,-5 -40,-12 0,-16 80,-138 91,-138 5,0 9,27 9,60 0,33 4,60 10,60 6,0 10,7 10,15 0,8 -4,15 -10,15 -5,0 -10,9 -10,20 0,11 -4,20 -10,20 -5,0 -10,-9 -10,-20 z m 0,-92 c 0,-45 -4,-44 -36,15 -14,26 -14,27 11,27 23,0 25,-4 25,-42 z"
         inkscape:connector-curvature="0"
         style="" />
      <path
         id="svg_70"
         d="m 8191.8181,13565.454 c 0,-6 23,-32 50,-59 51,-50 59,-68 38,-89 -16,-16 -34,-15 -52,4 -9,8 -21,14 -28,12 -20,-7 29,-48 57,-48 28,0 65,32 65,56 0,9 -20,37 -45,62 -25,24 -45,46 -45,48 0,2 20,4 45,4 25,0 45,5 45,10 0,6 -28,10 -65,10 -38,0 -65,-4 -65,-10 z"
         inkscape:connector-curvature="0"
         style="" />
      <path
         id="svg_71"
         d="m 8356.8181,13553.454 c -19,-29 -2,-37 25,-13 16,15 22,15 35,5 8,-7 15,-20 15,-29 0,-13 -7,-16 -35,-13 -30,4 -36,1 -45,-23 -14,-38 -13,-52 10,-75 46,-46 100,-9 100,69 0,84 -66,134 -105,79 z m 73,-106 c 2,-22 -2,-34 -12,-38 -22,-8 -46,13 -46,41 0,28 9,37 35,33 15,-2 21,-12 23,-36 z"
         inkscape:connector-curvature="0"
         style="" />
      <path
         id="svg_72"
         d="m 7179.8181,13483.454 c -2,-19 -10,-24 -40,-26 -21,-2 -38,-8 -38,-14 0,-19 74,-128 88,-128 8,0 12,18 12,59 0,38 5,61 13,65 10,5 10,7 0,12 -7,3 -13,14 -13,24 0,28 -18,34 -22,8 z m 2,-88 c 0,-22 -2,-40 -4,-40 -2,0 -15,18 -30,40 l -26,40 h 30 c 28,0 30,-2 30,-40 z"
         inkscape:connector-curvature="0"
         style="" />
      <path
         id="svg_73"
         d="m 7270.8181,13486.454 c -13,-11 -21,-23 -17,-27 4,-4 14,-1 22,5 8,7 25,11 38,9 18,-2 23,-9 23,-33 0,-23 -5,-31 -22,-33 -29,-4 -30,-18 -2,-25 13,-4 20,-12 17,-24 -4,-23 -46,-30 -54,-9 -7,17 -24,22 -24,7 0,-16 31,-41 51,-41 10,0 28,9 39,20 17,17 18,24 9,41 -8,15 -8,24 0,32 15,15 14,49 -1,69 -21,27 -53,30 -79,9 z"
         inkscape:connector-curvature="0"
         style="" />
      <path
         id="svg_74"
         d="m 9061.8181,13227.454 c 0,-4 23,-30 50,-57 52,-52 60,-79 28,-99 -13,-8 -22,-6 -37,8 -29,26 -50,15 -23,-12 27,-27 66,-28 92,-2 29,29 25,45 -26,100 l -47,50 h 47 c 25,0 46,5 46,10 0,6 -28,10 -65,10 -36,0 -65,-4 -65,-8 z"
         inkscape:connector-curvature="0"
         style="" />
      <path
         id="svg_75"
         d="m 9227.8181,13213.454 c -20,-28 -20,-52 -1,-68 12,-10 12,-16 4,-26 -17,-21 -2,-63 25,-70 48,-12 88,40 56,72 -8,8 -6,15 5,24 19,16 19,54 -1,74 -23,24 -70,20 -88,-6 z m 69,-33 c 0,-25 -4,-30 -25,-30 -19,0 -26,6 -28,24 -4,25 13,43 38,38 9,-1 15,-13 15,-32 z m 1,-76 c 8,-14 -21,-43 -35,-35 -6,4 -11,16 -11,27 0,21 34,27 46,8 z"
         inkscape:connector-curvature="0"
         style="" />
      <path
         id="svg_76"
         d="m 7901.8181,13195.454 c 0,-16 -7,-20 -34,-20 -19,0 -37,-4 -41,-9 -6,-11 73,-141 86,-141 5,0 9,27 9,60 0,33 4,60 10,60 6,0 10,7 10,15 0,8 -4,15 -10,15 -5,0 -10,9 -10,20 0,11 -4,20 -10,20 -5,0 -10,-9 -10,-20 z m 0,-87 c -1,-36 -1,-37 -16,-18 -35,45 -36,55 -9,55 22,0 25,-4 25,-37 z"
         inkscape:connector-curvature="0"
         style="" />
      <path
         id="svg_77"
         d="m 8031.8181,13145.454 c 0,-70 -5,-81 -28,-58 -7,7 -12,8 -12,2 0,-6 14,-23 30,-39 l 30,-29 v 97 c 0,58 -4,97 -10,97 -6,0 -10,-30 -10,-70 z"
         inkscape:connector-curvature="0"
         style="" />
      <path
         id="svg_78"
         d="m 5768.8181,13157.454 c -22,-24 -23,-109 -1,-140 26,-37 95,-25 94,18 -1,13 -3,12 -14,-2 -16,-22 -62,-23 -70,-2 -13,34 -7,44 18,33 49,-23 89,26 64,78 -17,35 -66,43 -91,15 z m 71,-14 c 30,-30 0,-75 -43,-64 -19,5 -25,13 -25,35 0,15 3,31 7,34 11,11 48,8 61,-5 z"
         inkscape:connector-curvature="0"
         style="" />
      <path
         id="svg_79"
         d="m 5971.8181,13155.454 c 0,-17 -7,-20 -40,-20 -24,0 -40,-5 -40,-12 0,-19 74,-128 88,-128 8,0 12,18 12,59 0,38 5,61 13,65 10,5 10,7 0,12 -7,3 -13,14 -13,25 0,10 -4,19 -10,19 -5,0 -10,-9 -10,-20 z m 0,-80 c 0,-22 -2,-40 -4,-40 -5,0 -46,65 -46,74 0,3 11,6 25,6 23,0 25,-4 25,-40 z"
         inkscape:connector-curvature="0"
         style="" />
      <path
         id="svg_80"
         d="m 6573.8181,13159.454 c -12,-8 -22,-23 -22,-32 1,-16 2,-16 14,1 18,24 63,22 71,-3 3,-11 3,-30 0,-41 -6,-18 -13,-21 -47,-16 l -40,5 6,-30 c 3,-17 6,-37 6,-44 0,-10 13,-14 45,-14 25,0 45,5 45,10 0,6 -15,10 -34,10 -22,0 -36,6 -40,16 -9,23 -8,24 24,24 58,0 77,80 27,115 -26,19 -28,19 -55,-1 z"
         inkscape:connector-curvature="0"
         style="" />
      <path
         id="svg_81"
         d="m 6720.8181,13162.454 c -13,-7 -26,-21 -28,-32 -3,-19 -3,-19 17,-2 11,10 31,17 44,15 18,-2 23,-9 23,-33 0,-23 -5,-31 -22,-33 -29,-4 -30,-18 -2,-25 13,-4 20,-12 17,-24 -5,-24 -39,-29 -55,-7 -15,20 -26,14 -17,-10 8,-20 52,-32 73,-19 19,12 28,63 10,63 -8,0 -6,6 4,18 43,47 -8,116 -64,89 z"
         inkscape:connector-curvature="0"
         style="" />
      <path
         id="svg_82"
         d="m 6931.8181,12985.454 c 0,-17 -7,-20 -40,-20 -22,0 -40,-4 -40,-9 0,-15 83,-141 92,-141 4,0 8,26 8,58 0,33 5,64 13,71 10,11 10,14 0,18 -7,3 -13,13 -13,24 0,10 -4,19 -10,19 -5,0 -10,-9 -10,-20 z m 0,-82 v -42 l -25,34 c -14,19 -25,38 -25,42 0,4 11,8 25,8 23,0 25,-4 25,-42 z"
         inkscape:connector-curvature="0"
         style="" />
      <path
         id="svg_83"
         d="m 7081.8181,12985.454 c 0,-17 -7,-20 -40,-20 -51,0 -52,-16 -2,-89 52,-77 62,-76 62,2 0,43 4,67 13,71 10,5 10,7 0,12 -7,3 -13,14 -13,25 0,10 -4,19 -10,19 -5,0 -10,-9 -10,-20 z m -2,-82 c 4,-47 -6,-48 -35,-3 -23,36 -20,47 12,43 15,-2 21,-12 23,-40 z"
         inkscape:connector-curvature="0"
         style="" />
      <path
         id="svg_84"
         d="m 9411.8181,13014.454 c 0,-63 -2,-70 -15,-59 -9,7 -18,10 -22,6 -7,-7 46,-66 59,-66 4,0 8,43 8,95 0,78 -3,95 -15,95 -12,0 -15,-15 -15,-71 z"
         inkscape:connector-curvature="0"
         style="" />
      <path
         id="svg_85"
         d="m 9518.8181,13067.454 c -10,-10 -17,-22 -17,-25 0,-14 23,-7 36,11 18,24 48,4 52,-36 4,-36 -24,-50 -58,-32 -31,16 -35,7 -20,-45 12,-45 13,-45 56,-45 24,0 44,5 44,10 0,6 -15,10 -34,10 -25,0 -35,5 -39,20 -4,16 0,20 19,20 38,0 67,36 60,74 -11,54 -66,75 -99,38 z"
         inkscape:connector-curvature="0"
         style="" />
      <path
         id="svg_86"
         d="m 8170.8181,13046.454 c -13,-11 -20,-23 -16,-28 5,-4 13,0 18,10 20,34 75,10 67,-30 -2,-10 -13,-22 -26,-28 -28,-12 -28,-21 -1,-28 13,-4 20,-12 17,-24 -5,-24 -39,-29 -55,-7 -15,20 -26,14 -17,-10 8,-22 47,-30 73,-16 22,11 30,60 10,60 -5,0 -3,10 5,22 21,30 20,54 -4,78 -25,25 -41,25 -71,1 z"
         inkscape:connector-curvature="0"
         style="" />
      <path
         id="svg_87"
         d="m 8319.8181,13055.454 c -20,-12 -32,-75 -22,-125 9,-48 42,-65 79,-41 22,15 25,23 25,76 0,47 -4,64 -20,80 -22,22 -37,24 -62,10 z m 51,-24 c 19,-22 10,-117 -12,-130 -25,-15 -47,16 -47,67 0,65 30,98 59,63 z"
         inkscape:connector-curvature="0"
         style="" />
      <path
         id="svg_88"
         d="m 10211.818,12995.454 c 0,-5 9,-10 20,-10 18,0 20,-7 20,-56 0,-47 -3,-57 -20,-61 -23,-6 -27,-23 -5,-23 9,0 18,-7 21,-15 14,-37 24,-8 24,70 0,78 2,85 20,85 11,0 20,5 20,10 0,6 -22,10 -50,10 -27,0 -50,-4 -50,-10 z"
         inkscape:connector-curvature="0"
         style="" />
      <path
         id="svg_89"
         d="m 10354.818,12998.454 c -7,-2 -13,-11 -13,-19 0,-12 4,-12 21,-4 11,7 32,9 46,6 33,-9 29,-58 -5,-66 -30,-7 -33,-24 -4,-28 16,-3 22,-10 22,-29 0,-23 -3,-25 -35,-21 -24,3 -35,0 -35,-9 0,-17 71,-18 88,-1 15,15 16,50 2,64 -8,8 -6,15 5,24 49,41 -27,110 -92,83 z"
         inkscape:connector-curvature="0"
         style="" />
      <path
         id="svg_90"
         d="m 8851.8181,12747.454 c 0,-4 23,-30 50,-57 52,-52 60,-79 28,-99 -13,-8 -22,-6 -37,8 -29,26 -50,15 -23,-12 27,-27 66,-28 92,-2 29,29 25,45 -26,100 l -47,50 h 47 c 25,0 46,5 46,10 0,6 -28,10 -65,10 -36,0 -65,-4 -65,-8 z"
         inkscape:connector-curvature="0"
         style="" />
      <path
         id="svg_91"
         d="m 9027.8181,12728.454 c 11,-46 23,-74 44,-103 11,-16 20,-31 20,-34 0,-3 -22,-6 -50,-6 -27,0 -50,-4 -50,-10 0,-6 28,-10 65,-10 39,0 65,4 65,11 0,5 -11,26 -24,46 -14,20 -31,58 -37,85 -7,27 -19,48 -26,48 -10,0 -11,-8 -7,-27 z"
         inkscape:connector-curvature="0"
         style="" />
      <path
         id="svg_92"
         d="m 7718.8181,12728.454 c -4,-3 -7,-15 -7,-25 0,-14 -8,-18 -35,-18 -20,0 -35,-5 -35,-12 0,-19 74,-128 88,-128 8,0 12,18 12,59 0,38 5,61 13,65 10,5 10,7 0,12 -7,3 -13,17 -13,30 0,23 -10,31 -23,17 z m -7,-100 c 0,-20 -1,-34 -3,-32 -2,2 -14,19 -26,37 l -22,32 h 25 c 23,0 26,-4 26,-37 z"
         inkscape:connector-curvature="0"
         style="" />
      <path
         id="svg_93"
         d="m 7811.8181,12715.454 c -15,-15 -20,-33 -20,-74 0,-69 23,-102 64,-92 34,8 49,46 43,110 -6,71 -46,97 -87,56 z m 66,-35 c 17,-68 -15,-135 -50,-106 -23,19 -22,117 1,129 23,13 42,4 49,-23 z"
         inkscape:connector-curvature="0"
         style="" />
      <path
         id="svg_94"
         d="m 5554.8181,12690.454 c -46,-32 -37,-145 13,-167 29,-13 74,3 74,27 0,19 -16,20 -24,0 -8,-22 -43,-18 -60,7 -20,28 -22,58 -4,40 7,-7 24,-12 38,-12 35,0 50,17 50,56 0,23 -7,38 -22,48 -28,20 -38,20 -65,1 z m 55,-14 c 8,-5 12,-21 10,-37 -2,-21 -9,-30 -26,-32 -44,-7 -67,32 -36,62 17,18 32,20 52,7 z"
         inkscape:connector-curvature="0"
         style="" />
      <path
         id="svg_95"
         d="m 5689.8181,12683.454 c -15,-15 -18,-23 -9,-26 7,-2 18,4 25,13 17,24 49,15 60,-17 14,-39 -8,-62 -52,-54 -34,5 -34,5 -28,-26 3,-17 6,-37 6,-44 0,-10 13,-14 45,-14 25,0 45,5 45,10 0,6 -15,10 -34,10 -22,0 -36,6 -40,16 -10,27 -7,31 18,27 29,-6 66,27 66,57 0,24 -42,70 -65,70 -8,0 -25,-10 -37,-22 z"
         inkscape:connector-curvature="0"
         style="" />
      <path
         id="svg_96"
         d="m 6379.8181,12653.454 c -16,-16 -18,-23 -8,-26 7,-3 17,3 22,12 19,33 68,12 68,-30 0,-35 -26,-50 -62,-36 l -30,11 6,-41 c 4,-23 9,-45 12,-50 7,-12 84,-10 84,2 0,6 -15,10 -34,10 -22,0 -36,6 -40,16 -11,28 -6,35 18,28 28,-7 66,25 66,55 0,26 -38,71 -61,71 -10,0 -29,-10 -41,-22 z"
         inkscape:connector-curvature="0"
         style="" />
      <path
         id="svg_97"
         d="m 6501.8181,12667.454 c 0,-4 23,-30 50,-57 28,-27 50,-56 50,-65 0,-37 -47,-53 -70,-25 -18,22 -33,18 -20,-5 25,-48 110,-27 110,27 0,18 -14,39 -47,70 l -48,43 h 48 c 26,0 47,5 47,10 0,6 -27,10 -60,10 -33,0 -60,-4 -60,-8 z"
         inkscape:connector-curvature="0"
         style="" />
      <path
         id="svg_98"
         d="m 6747.8181,12528.454 c -3,-3 -6,-15 -6,-25 0,-14 -8,-18 -35,-18 -20,0 -35,-5 -35,-12 0,-19 74,-128 88,-128 8,0 12,18 12,59 0,38 5,61 13,65 10,5 10,7 0,12 -7,3 -13,14 -13,24 0,20 -13,33 -24,23 z m -6,-98 c 0,-19 -2,-35 -4,-35 -2,0 -13,16 -25,35 l -20,35 h 24 c 22,0 25,-4 25,-35 z"
         inkscape:connector-curvature="0"
         style="" />
      <path
         id="svg_99"
         d="m 6840.8181,12516.454 c -13,-11 -21,-23 -17,-27 4,-4 14,-1 22,5 8,7 25,11 38,9 19,-2 23,-9 23,-38 0,-35 0,-35 -42,-34 -47,1 -50,-4 -32,-55 10,-28 15,-31 50,-31 21,0 39,5 39,10 0,6 -15,10 -34,10 -25,0 -35,5 -39,20 -4,17 0,20 23,20 59,0 80,61 35,105 -29,30 -36,31 -66,6 z"
         inkscape:connector-curvature="0"
         style="" />
      <path
         id="svg_100"
         d="m 9221.8181,12529.454 c 0,-61 -1,-65 -20,-59 -11,3 -20,3 -20,0 0,-7 59,-65 66,-65 2,0 4,43 4,95 0,78 -3,95 -15,95 -12,0 -15,-14 -15,-66 z"
         inkscape:connector-curvature="0"
         style="" />
      <path
         id="svg_101"
         d="m 9329.8181,12578.454 c -35,-40 -29,-130 9,-159 25,-19 57,-17 76,4 21,23 21,32 2,32 -8,0 -15,-4 -15,-9 0,-19 -31,-20 -50,-1 -28,28 -25,37 13,32 41,-5 67,18 67,57 0,53 -68,82 -102,44 z m 56,-9 c 22,-8 21,-63 0,-71 -36,-13 -68,33 -44,62 14,17 21,18 44,9 z"
         inkscape:connector-curvature="0"
         style="" />
      <path
         id="svg_102"
         d="m 7977.8181,12569.454 c -9,-8 -16,-20 -16,-25 0,-15 17,-10 24,7 4,10 15,14 33,12 24,-3 28,-8 28,-33 0,-23 -5,-31 -22,-33 -13,-2 -23,-7 -23,-10 0,-4 10,-12 23,-17 12,-6 22,-17 22,-25 0,-22 -46,-25 -62,-4 -15,20 -26,14 -17,-9 7,-20 38,-31 69,-23 28,7 38,31 25,56 -7,13 -7,21 0,25 5,3 10,19 10,34 0,51 -60,80 -94,45 z"
         inkscape:connector-curvature="0"
         style="" />
      <path
         id="svg_103"
         d="m 8161.8181,12515.454 c 0,-68 -1,-70 -20,-60 -11,6 -20,8 -20,4 0,-7 48,-54 56,-54 2,0 4,41 4,90 0,53 -4,90 -10,90 -6,0 -10,-30 -10,-70 z"
         inkscape:connector-curvature="0"
         style="" />
      <path
         id="svg_104"
         d="m 10041.818,12450.454 c 0,-65 0,-65 -25,-59 -14,3 -24.9999,3 -24.9999,0 0,-11 64.9999,-64 71.9999,-60 5,3 8,45 8,95 0,72 -3,89 -15,89 -12,0 -15,-14 -15,-65 z"
         inkscape:connector-curvature="0"
         style="" />
      <path
         id="svg_105"
         d="m 10121.818,12503.454 c 0,-6 23,-33 51,-59 57,-53 62,-82 16,-87 -16,-2 -35,2 -43,9 -8,6 -18,9 -22,5 -11,-11 37,-46 63,-46 29,0 55,30 55,62 0,19 -14,38 -46,67 l -47,41 h 47 c 25,0 46,5 46,10 0,6 -27,10 -60,10 -40,0 -60,-4 -60,-12 z"
         inkscape:connector-curvature="0"
         style="" />
      <path
         id="svg_106"
         d="m 8650.8181,12248.454 c 5,-10 28,-35 51,-56 44,-40 50,-71 18,-91 -13,-8 -22,-6 -37,8 -29,26 -50,15 -23,-12 41,-41 112,-18 112,37 0,13 -18,39 -47,66 l -47,45 h 47 c 26,0 47,5 47,10 0,6 -28,10 -65,10 -60,0 -65,-2 -56,-17 z"
         inkscape:connector-curvature="0"
         style="" />
      <path
         id="svg_107"
         d="m 8812.8181,12246.454 c -31,-31 -30,-119 2,-149 29,-27 58,-28 82,-2 23,26 13,37 -16,16 -25,-17 -54,-8 -61,21 -4,15 2,18 36,18 35,0 43,4 54,29 13,25 12,31 -5,55 -26,33 -65,39 -92,12 z m 69,-16 c 26,-32 -13,-81 -47,-59 -24,15 -27,38 -8,58 20,20 39,20 55,1 z"
         inkscape:connector-curvature="0"
         style="" />
      <path
         id="svg_108"
         d="m 9021.8181,12080.454 v -65 l -27,6 -28,7 29,-32 c 17,-17 33,-31 38,-31 4,0 8,41 8,90 0,53 -4,90 -10,90 -6,0 -10,-28 -10,-65 z"
         inkscape:connector-curvature="0"
         style="" />
      <path
         id="svg_109"
         d="m 9133.8181,12108.454 c 5,-21 21,-57 34,-80 l 25,-43 h -46 c -25,0 -45,-4 -45,-10 0,-6 27,-10 60,-10 33,0 60,4 60,10 0,5 -11,25 -23,44 -13,19 -30,55 -37,80 -7,25 -18,46 -25,46 -11,0 -11,-8 -3,-37 z"
         inkscape:connector-curvature="0"
         style="" />
      <path
         id="svg_110"
         d="m 7437.8181,12209.454 c -9,-8 -16,-20 -16,-25 0,-15 17,-10 24,7 4,10 15,14 33,12 24,-3 28,-8 28,-33 0,-24 -5,-31 -24,-33 l -24,-4 28,-22 c 17,-13 25,-28 21,-34 -10,-17 -56,-15 -62,3 -9,22 -23,18 -17,-5 6,-23 35,-34 68,-26 27,7 39,31 26,53 -5,10 -3,25 5,41 30,59 -43,113 -90,66 z"
         inkscape:connector-curvature="0"
         style="" />
      <path
         id="svg_111"
         d="m 7583.8181,12213.454 c -7,-7 -12,-19 -12,-27 1,-14 3,-13 14,2 18,23 53,22 66,-2 17,-32 13,-43 -10,-31 -28,15 -55,5 -69,-26 -17,-39 5,-78 46,-82 27,-3 34,2 47,27 9,16 16,41 16,55 0,31 -18,78 -33,88 -18,12 -52,9 -65,-4 z m 68,-83 c 7,-9 10,-25 6,-41 -5,-20 -12,-25 -34,-22 -28,3 -40,32 -28,64 7,18 40,18 56,-1 z"
         inkscape:connector-curvature="0"
         style="" />
      <path
         id="svg_112"
         d="m 7741.8181,12074.454 c -15,-26 -4,-38 13,-15 8,11 23,17 38,14 19,-2 24,-9 24,-33 0,-23 -5,-31 -22,-33 -24,-4 -32,-22 -10,-22 19,0 36,-20 30,-36 -7,-19 -52,-18 -59,1 -7,16 -24,21 -24,6 0,-5 7,-17 16,-25 36,-36 108,0 85,43 -7,13 -8,22 -1,26 14,9 13,68 -2,83 -20,20 -76,15 -88,-9 z"
         inkscape:connector-curvature="0"
         style="" />
      <path
         id="svg_113"
         d="m 7871.8181,12088.454 c 0,-4 24,-31 52,-60 44,-44 51,-56 42,-71 -15,-23 -62,-28 -70,-8 -8,20 -24,21 -24,1 0,-39 82,-47 105,-11 20,31 9,57 -43,103 l -37,33 h 48 c 26,0 47,5 47,10 0,6 -27,10 -60,10 -33,0 -60,-3 -60,-7 z"
         inkscape:connector-curvature="0"
         style="" />
      <path
         id="svg_114"
         d="m 5335.8181,12190.454 c -34,-82 3,-157 72,-143 21,4 41,34 30,45 -4,4 -12,0 -17,-10 -13,-23 -56,-22 -69,2 -17,33 -13,42 15,29 35,-16 75,12 75,52 0,37 -23,60 -61,60 -25,0 -33,-6 -45,-35 z m 81,-19 c 0,-36 -27,-56 -52,-40 -40,25 -20,77 26,72 21,-2 26,-8 26,-32 z"
         inkscape:connector-curvature="0"
         style="" />
      <path
         id="svg_115"
         d="m 5486.8181,12205.454 c -24,-26 -24,-99 -1,-134 21,-33 68,-35 90,-4 20,28 12,37 -12,15 -35,-32 -72,-17 -72,29 0,11 5,11 24,3 50,-23 93,38 61,87 -19,30 -65,32 -90,4 z m 75,-15 c 10,-12 10,-21 2,-40 -12,-25 -27,-30 -56,-19 -16,6 -22,54 -9,67 12,12 50,7 63,-8 z"
         inkscape:connector-curvature="0"
         style="" />
      <path
         id="svg_116"
         d="m 9851.8181,11964.454 c 0,-63 -2,-70 -15,-59 -9,7 -18,10 -22,6 -7,-7 46,-66 59,-66 4,0 8,43 8,95 0,78 -3,95 -15,95 -12,0 -15,-15 -15,-71 z"
         inkscape:connector-curvature="0"
         style="" />
      <path
         id="svg_117"
         d="m 9971.8181,11964.454 c 0,-63 -2,-70 -15,-59 -9,7 -18,10 -22,6 -7,-6 46,-65 60,-66 4,0 6.9999,43 6.9999,95 0,78 -2.9999,95 -14.9999,95 -12,0 -15,-15 -15,-71 z"
         inkscape:connector-curvature="0"
         style="" />
      <path
         id="svg_118"
         d="m 8431.8181,11763.454 c 0,-6 23,-33 51,-59 59,-55 63,-82 11,-87 -18,-2 -32,1 -32,7 0,6 -7,11 -15,11 -8,0 -15,-4 -15,-9 0,-15 42,-41 66,-41 22,0 64,42 64,63 0,6 -22,32 -50,59 l -50,48 h 50 c 28,0 50,5 50,10 0,6 -28,10 -65,10 -44,0 -65,-4 -65,-12 z"
         inkscape:connector-curvature="0"
         style="" />
      <path
         id="svg_119"
         d="m 8597.8181,11759.454 c -9,-8 -16,-20 -16,-25 0,-15 22,-10 36,9 17,23 48,5 52,-30 4,-36 -22,-55 -53,-38 -34,18 -40,8 -25,-45 12,-45 13,-45 56,-45 32,0 44,4 44,15 0,10 -10,15 -34,15 -22,0 -36,6 -40,16 -8,22 -9,22 18,17 37,-7 70,30 62,71 -10,52 -66,75 -100,40 z"
         inkscape:connector-curvature="0"
         style="" />
      <path
         id="svg_120"
         d="m 5128.8181,11697.454 c -22,-24 -23,-110 -1,-140 20,-29 68,-30 88,0 18,26 10,41 -8,15 -16,-21 -62,-22 -70,-1 -13,34 -7,44 18,33 51,-24 94,36 62,86 -20,30 -65,34 -89,7 z m 73,-17 c 15,-18 10,-45 -12,-59 -33,-20 -69,20 -54,60 7,18 50,18 66,-1 z"
         inkscape:connector-curvature="0"
         style="" />
      <path
         id="svg_121"
         d="m 5281.8181,11698.454 c 1,-23 37,-103 57,-125 15,-17 13,-18 -35,-18 -29,0 -52,-4 -52,-10 0,-6 27,-10 60,-10 33,0 60,2 60,5 0,2 -13,25 -29,50 -16,26 -32,64 -36,86 -7,39 -25,55 -25,22 z"
         inkscape:connector-curvature="0"
         style="" />
      <path
         id="svg_122"
         d="m 8811.8181,11565.454 c 0,-66 -1,-70 -19,-61 -32,18 -33,-2 -1,-31 17,-15 35,-28 41,-28 5,0 9,42 9,95 0,78 -3,95 -15,95 -12,0 -15,-14 -15,-70 z"
         inkscape:connector-curvature="0"
         style="" />
      <path
         id="svg_123"
         d="m 8912.8181,11609.454 c -25,-32 -25,-34 -7,-59 10,-14 11,-25 3,-42 -22,-49 51,-84 89,-42 15,17 16,23 6,40 -10,16 -9,24 4,45 16,24 16,27 -3,52 -28,38 -65,40 -92,6 z m 69,-9 c 26,-31 -13,-82 -44,-56 -21,18 -20,48 2,60 23,14 28,13 42,-4 z m -2,-108 c 4,-20 -25,-34 -40,-19 -15,15 -1,44 19,40 10,-2 19,-11 21,-21 z"
         inkscape:connector-curvature="0"
         style="" />
      <path
         id="svg_124"
         d="m 9631.8181,11480.454 c 0,-65 0,-65 -25,-59 -14,3 -25,3 -25,0 0,-11 65,-64 72,-60 5,3 8,45 8,95 0,72 -3,89 -15,89 -12,0 -15,-14 -15,-65 z"
         inkscape:connector-curvature="0"
         style="" />
      <path
         id="svg_125"
         d="m 9743.8181,11537.454 c -36,-23 -37,-135 -1,-168 46,-42 106,26 93,106 -9,58 -52,87 -92,62 z m 58,-31 c 11,-22 13,-80 4,-105 -3,-9 -16,-16 -29,-16 -27,0 -35,17 -35,74 0,61 37,89 60,47 z"
         inkscape:connector-curvature="0"
         style="" />
      <path
         id="svg_126"
         d="m 5846.8181,11385.454 c -10,-11 -15,-23 -12,-27 4,-4 13,1 20,11 8,11 23,17 38,14 20,-2 25,-9 27,-42 l 3,-39 -44,6 -44,6 10,-44 c 10,-45 11,-45 54,-45 24,0 43,5 43,10 0,6 -15,10 -34,10 -22,0 -36,6 -40,16 -8,22 -9,22 21,22 53,0 77,66 41,109 -16,20 -63,15 -83,-7 z"
         inkscape:connector-curvature="0"
         style="" />
      <path
         id="svg_127"
         d="m 6031.8181,11334.454 c 0,-63 -2,-70 -15,-59 -9,7 -18,10 -22,6 -3,-3 -4,-7 -2,-8 2,-2 16,-14 32,-27 l 27,-24 v 91 c 0,55 -4,92 -10,92 -6,0 -10,-30 -10,-71 z"
         inkscape:connector-curvature="0"
         style="" />
      <path
         id="svg_128"
         d="m 6231.8181,11235.454 c 0,-17 -7,-20 -40,-20 -24,0 -40,-5 -40,-12 0,-19 74,-128 88,-128 8,0 12,18 12,59 0,38 5,61 13,65 10,5 10,7 0,12 -7,3 -13,14 -13,25 0,10 -4,19 -10,19 -5,0 -10,-9 -10,-20 z m 0,-80 c 0,-22 -2,-40 -4,-40 -2,0 -15,18 -30,40 l -26,40 h 30 c 28,0 30,-2 30,-40 z"
         inkscape:connector-curvature="0"
         style="" />
      <path
         id="svg_129"
         d="m 6317.8181,11240.454 c -39,-39 -26,-150 19,-161 13,-3 31,-4 41,-2 21,4 41,34 30,45 -4,4 -12,0 -17,-10 -13,-23 -56,-22 -69,2 -17,33 -13,42 15,29 54,-24 102,53 59,96 -20,20 -58,20 -78,1 z m 69,-45 c 0,-29 -4,-36 -23,-38 -43,-6 -69,37 -40,66 7,7 24,12 38,10 21,-3 25,-8 25,-38 z"
         inkscape:connector-curvature="0"
         style="" />
      <path
         id="svg_130"
         d="m 4929.8181,11218.454 c -38,-43 -30,-123 14,-156 25,-19 28,-19 52,-3 14,9 26,24 26,34 -1,16 -2,16 -14,-1 -21,-27 -70,-19 -74,11 -3,20 0,23 17,17 31,-10 61,3 72,32 22,59 -53,112 -93,66 z m 67,-43 c 0,-32 -2,-35 -30,-35 -24,0 -31,5 -33,23 -6,38 5,54 35,50 25,-3 28,-7 28,-38 z"
         inkscape:connector-curvature="0"
         style="" />
      <path
         id="svg_131"
         d="m 5079.8181,11224.454 c -20,-11 -25,-73 -8,-84 7,-4 7,-13 0,-26 -23,-41 29,-80 69,-52 22,15 28,47 12,58 -6,3 -3,18 7,34 15,27 15,30 -1,55 -18,27 -49,33 -79,15 z m 67,-44 c 0,-27 -3,-30 -30,-30 -21,0 -31,5 -33,18 -6,33 6,49 35,45 24,-3 28,-8 28,-33 z m -7,-82 c 3,-19 -1,-23 -22,-23 -28,0 -41,14 -32,36 9,24 50,13 54,-13 z"
         inkscape:connector-curvature="0"
         style="" />
      <path
         id="svg_132"
         d="m 9476.8181,11055.454 c -24,-26 -13,-37 16,-16 21,14 24,14 41,-1 29,-26 22,-40 -19,-39 -31,1 -39,-3 -50,-26 -17,-34 0,-76 35,-85 51,-12 88,41 77,109 -12,70 -63,99 -100,58 z m 63,-82 c 17,-17 15,-43 -4,-59 -31,-26 -70,25 -44,56 15,18 32,19 48,3 z"
         inkscape:connector-curvature="0"
         style="" />
      <path
         id="svg_133"
         d="m 6871.8181,10924.454 c -15,-26 -4,-38 13,-15 8,11 23,17 38,14 19,-2 24,-9 24,-33 0,-24 -5,-31 -24,-33 l -24,-4 28,-22 c 17,-13 25,-28 21,-34 -10,-17 -56,-15 -62,3 -4,8 -10,15 -15,15 -11,0 1,-33 15,-42 37,-26 96,14 77,51 -7,13 -8,22 -1,26 14,9 13,68 -2,83 -20,20 -76,15 -88,-9 z"
         inkscape:connector-curvature="0"
         style="" />
      <path
         id="svg_134"
         d="m 7017.8181,10923.454 c -20,-28 -20,-43 0,-63 13,-13 14,-18 4,-31 -10,-11 -10,-20 -2,-39 16,-35 68,-35 84,0 8,18 8,29 1,36 -8,8 -6,19 5,39 15,25 15,30 -1,54 -22,34 -69,36 -91,4 z m 81,-14 c 14,-38 -41,-71 -66,-40 -7,8 -10,24 -6,36 8,25 62,28 72,4 z m -12,-99 c 0,-22 -31,-33 -47,-17 -17,17 -1,44 24,40 15,-2 23,-10 23,-23 z"
         inkscape:connector-curvature="0"
         style="" />
      <path
         id="svg_135"
         d="m 5636.8181,10895.454 c -10,-11 -15,-23 -12,-27 4,-4 13,1 20,11 28,38 75,1 63,-49 -7,-26 -9,-27 -46,-21 -44,7 -44,7 -29,-46 9,-36 12,-38 49,-38 22,0 40,5 40,10 0,6 -16,10 -35,10 -19,0 -35,4 -35,9 0,5 -3,16 -6,25 -5,13 -1,15 24,10 25,-5 33,-2 47,20 42,63 -30,141 -80,86 z"
         inkscape:connector-curvature="0"
         style="" />
      <path
         id="svg_136"
         d="m 5785.8181,10901.454 c -15,-12 -19,-27 -19,-81 0,-54 4,-69 19,-81 27,-19 42,-18 66,6 30,30 29,133 -2,154 -28,20 -39,20 -64,2 z m 55,-20 c 19,-22 10,-117 -12,-130 -25,-15 -47,16 -47,67 0,65 30,98 59,63 z"
         inkscape:connector-curvature="0"
         style="" />
      <path
         id="svg_137"
         d="m 7220.8181,10796.454 c -13,-11 -21,-23 -17,-27 5,-4 17,1 29,11 15,15 24,17 37,8 25,-15 22,-56 -5,-68 -29,-12 -30,-25 -2,-25 15,0 20,-5 17,-22 -4,-29 -37,-36 -55,-12 -7,10 -16,15 -20,11 -10,-10 28,-47 49,-47 10,0 27,9 38,20 17,17 18,24 9,41 -8,15 -8,24 0,32 19,19 13,65 -11,81 -29,21 -41,20 -69,-3 z"
         inkscape:connector-curvature="0"
         style="" />
      <path
         id="svg_138"
         d="m 7360.8181,10794.454 c -26,-26 -17,-39 10,-15 30,27 55,17 59,-22 3,-27 -1,-35 -17,-39 -27,-7 -27,-19 -1,-26 26,-7 26,-34 -1,-42 -13,-4 -27,0 -40,11 -27,24 -36,11 -10,-15 26,-26 42,-26 72,-2 21,18 23,22 11,42 -9,13 -10,24 -4,28 24,15 23,51 -2,76 -31,30 -49,32 -77,4 z"
         inkscape:connector-curvature="0"
         style="" />
      <path
         id="svg_139"
         d="m 6021.8181,10765.454 c 0,-17 -7,-20 -40,-20 -25,0 -40,-5 -40,-12 1,-19 79,-138 90,-138 6,0 10,27 10,60 0,33 4,60 10,60 6,0 10,7 10,15 0,8 -4,15 -10,15 -5,0 -10,9 -10,20 0,11 -4,20 -10,20 -5,0 -10,-9 -10,-20 z m 0,-92 c 0,-45 -4,-44 -36,15 -14,26 -14,27 11,27 23,0 25,-4 25,-42 z"
         inkscape:connector-curvature="0"
         style="" />
      <path
         id="svg_140"
         d="m 6117.8181,10758.454 c 10,-42 40,-110 53,-117 24,-15 8,-26 -39,-26 -27,0 -50,-4 -50,-10 0,-6 27,-10 60,-10 33,0 60,4 60,8 0,5 -13,33 -29,63 -16,30 -32,69 -36,87 -4,17 -11,32 -16,32 -5,0 -7,-12 -3,-27 z"
         inkscape:connector-curvature="0"
         style="" />
      <path
         id="svg_141"
         d="m 4718.8181,10727.454 c -22,-24 -23,-110 -1,-140 20,-29 68,-30 88,0 18,26 10,41 -8,15 -16,-21 -62,-22 -70,-1 -13,34 -7,44 18,33 51,-24 94,36 62,86 -20,30 -65,34 -89,7 z m 73,-17 c 15,-18 10,-45 -12,-59 -33,-20 -69,20 -54,60 7,18 50,18 66,-1 z"
         inkscape:connector-curvature="0"
         style="" />
      <path
         id="svg_142"
         d="m 4863.8181,10733.454 c -14,-14 -16,-38 -3,-38 5,0 11,7 15,15 8,21 43,19 56,-4 17,-33 13,-42 -15,-29 -47,21 -83,-40 -55,-93 16,-29 65,-25 86,6 19,29 15,114 -6,140 -15,18 -61,20 -78,3 z m 68,-82 c 6,-8 10,-25 8,-38 -2,-18 -9,-23 -33,-23 -24,0 -31,5 -33,23 -4,25 13,52 33,52 7,0 18,-7 25,-14 z"
         inkscape:connector-curvature="0"
         style="" />
      <path
         id="svg_143"
         d="m 9257.8181,10579.454 c -21,-20 -20,-53 1,-76 9,-11 11,-18 5,-18 -16,0 -15,-43 0,-58 7,-7 24,-12 38,-12 14,0 31,5 38,12 15,15 16,58 0,58 -6,0 -4,7 5,18 35,39 10,92 -43,92 -16,0 -36,-7 -44,-16 z m 69,-39 c 0,-25 -4,-30 -25,-30 -16,0 -26,6 -28,18 -6,30 6,49 30,45 18,-2 23,-9 23,-33 z m -5,-70 c 15,-18 5,-35 -20,-35 -10,0 -22,5 -25,10 -7,11 12,40 25,40 4,0 13,-7 20,-15 z"
         inkscape:connector-curvature="0"
         style="" />
      <path
         id="svg_144"
         d="m 7900.8181,10486.454 c 6,-10 28,-33 50,-50 44,-35 56,-65 34,-86 -18,-19 -24,-19 -49,0 -24,18 -34,19 -34,0 0,-34 76,-47 103,-17 29,31 20,62 -28,109 l -45,43 h 45 c 25,0 45,5 45,10 0,6 -28,10 -65,10 -61,0 -65,-1 -56,-19 z"
         inkscape:connector-curvature="0"
         style="" />
      <path
         id="svg_145"
         d="m 8121.8181,10485.454 c 0,-17 -7,-20 -40,-20 -25,0 -40,-5 -40,-12 0,-23 79,-138 95,-138 12,0 15,13 15,59 0,38 4,61 13,64 10,4 10,7 0,18 -7,7 -13,21 -13,31 0,10 -7,18 -15,18 -8,0 -15,-9 -15,-20 z m 0,-87 c 0,-20 -1,-34 -3,-32 -2,2 -14,19 -26,37 l -22,32 h 25 c 23,0 26,-4 26,-37 z"
         inkscape:connector-curvature="0"
         style="" />
      <path
         id="svg_146"
         d="m 6677.8181,10479.454 c -9,-8 -16,-20 -16,-25 0,-15 17,-10 24,7 4,10 15,14 33,12 24,-3 28,-8 28,-33 0,-23 -5,-31 -22,-33 -28,-4 -30,-18 -3,-25 30,-8 27,-47 -4,-47 -14,0 -28,5 -31,10 -10,16 -25,12 -19,-5 10,-25 40,-36 67,-26 29,11 42,38 26,58 -9,10 -9,17 -1,25 18,18 14,63 -6,81 -23,21 -56,22 -76,1 z"
         inkscape:connector-curvature="0"
         style="" />
      <path
         id="svg_147"
         d="m 6838.8181,10443.454 c 8,-29 24,-65 34,-80 l 20,-27 -48,-3 c -63,-4 -62,-22 1,-26 74,-5 81,1 52,45 -20,32 -38,75 -52,131 -2,6 -8,12 -13,12 -6,0 -3,-22 6,-52 z"
         inkscape:connector-curvature="0"
         style="" />
      <path
         id="svg_148"
         d="m 5461.8181,10395.454 c 0,-16 -7,-20 -35,-20 -45,0 -45,-15 1,-85 49,-73 64,-72 64,4 0,38 5,61 13,65 10,5 10,7 0,12 -7,3 -13,14 -13,25 0,10 -7,19 -15,19 -8,0 -15,-9 -15,-20 z m 0,-77 c -1,-36 -1,-37 -16,-18 -35,45 -36,55 -9,55 22,0 25,-4 25,-37 z"
         inkscape:connector-curvature="0"
         style="" />
      <path
         id="svg_149"
         d="m 5553.8181,10403.454 c -14,-14 -16,-38 -3,-38 5,0 11,7 15,15 8,21 43,19 56,-4 17,-32 13,-43 -11,-31 -32,18 -69,-11 -69,-53 0,-40 15,-57 52,-57 41,0 62,37 56,102 -4,34 -12,56 -24,65 -22,16 -56,17 -72,1 z m 68,-82 c 6,-8 10,-25 8,-38 -2,-18 -9,-23 -33,-23 -24,0 -31,5 -33,23 -4,25 13,52 33,52 7,0 18,-7 25,-14 z"
         inkscape:connector-curvature="0"
         style="" />
      <path
         id="svg_150"
         d="m 8271.8181,10304.454 c 0,-63 -2,-70 -15,-59 -9,7 -18,10 -22,6 -7,-7 46,-66 59,-66 4,0 8,43 8,95 0,78 -3,95 -15,95 -12,0 -15,-15 -15,-71 z"
         inkscape:connector-curvature="0"
         style="" />
      <path
         id="svg_151"
         d="m 8379.8181,10364.454 c -18,-10 -25,-39 -9,-39 5,0 14,7 21,15 16,19 25,19 44,-1 26,-26 20,-40 -17,-36 -56,6 -82,-49 -44,-94 33,-37 72,-28 93,23 35,83 -23,170 -88,132 z m 70,-110 c 6,-50 -52,-63 -64,-13 -8,32 3,46 34,42 21,-2 28,-9 30,-29 z"
         inkscape:connector-curvature="0"
         style="" />
      <path
         id="svg_152"
         d="m 7007.8181,10319.454 c -9,-8 -16,-20 -16,-25 0,-15 17,-10 24,7 4,10 15,14 33,12 24,-3 28,-8 28,-33 0,-23 -5,-31 -22,-33 -24,-4 -32,-22 -10,-22 19,0 36,-20 30,-36 -7,-19 -52,-18 -59,1 -7,16 -24,21 -24,6 0,-5 7,-17 16,-25 36,-36 108,0 85,43 -7,13 -8,22 -1,26 5,3 10,19 10,34 0,51 -60,80 -94,45 z"
         inkscape:connector-curvature="0"
         style="" />
      <path
         id="svg_153"
         d="m 7201.8181,10315.454 c 0,-16 -7,-20 -35,-20 -45,0 -45,-15 1,-85 49,-73 64,-72 64,4 0,38 5,61 13,65 10,5 10,7 0,12 -7,3 -13,14 -13,25 0,10 -7,19 -15,19 -8,0 -15,-9 -15,-20 z m 0,-77 c -1,-36 -1,-37 -16,-18 -35,45 -36,55 -9,55 22,0 25,-4 25,-37 z"
         inkscape:connector-curvature="0"
         style="" />
      <path
         id="svg_154"
         d="m 5809.8181,10279.454 c -5,-4 -8,-16 -8,-26 0,-14 -8,-18 -40,-18 -22,0 -40,-2 -40,-5 0,-13 83,-135 91,-135 5,0 9,27 9,60 0,47 3,60 15,60 8,0 15,5 15,10 0,6 -6,10 -14,10 -8,0 -16,12 -18,26 -2,14 -6,22 -10,18 z m -8,-101 c -1,-36 -1,-37 -16,-18 -35,45 -36,55 -9,55 22,0 25,-4 25,-37 z"
         inkscape:connector-curvature="0"
         style="" />
      <path
         id="svg_155"
         d="m 5904.8181,10270.454 c -28,-19 -34,-49 -16,-75 11,-16 12,-24 3,-35 -30,-36 25,-79 69,-55 22,11 29,54 11,65 -6,4 -4,12 5,21 43,44 -21,115 -72,79 z m 64,-31 c 9,-24 -10,-49 -38,-49 -20,0 -25,6 -27,33 -3,30 -1,32 28,32 19,0 33,-6 37,-16 z m -12,-99 c 0,-22 -31,-33 -47,-17 -17,17 -1,44 24,40 15,-2 23,-10 23,-23 z"
         inkscape:connector-curvature="0"
         style="" />
      <path
         id="svg_156"
         d="m 4521.8181,10263.454 c 0,-27 35,-106 57,-130 15,-17 13,-18 -35,-18 -29,0 -52,-4 -52,-10 0,-6 27,-10 60,-10 33,0 60,2 60,4 0,3 -14,27 -31,54 -17,27 -33,68 -36,91 -6,43 -23,57 -23,19 z"
         inkscape:connector-curvature="0"
         style="" />
      <path
         id="svg_157"
         d="m 4666.8181,10272.454 c -26,-20 -33,-118 -11,-152 21,-32 59,-33 80,-3 19,27 21,118 4,140 -19,23 -51,30 -73,15 z m 60,-81 c 0,-44 -4,-61 -17,-69 -27,-17 -48,9 -48,58 0,62 8,77 39,73 25,-3 26,-6 26,-62 z"
         inkscape:connector-curvature="0"
         style="" />
      <path
         id="svg_158"
         d="m 9051.8181,10081.454 c 0,-30 22,-83.9997 50,-117.9997 l 21,-28 h -50 c -28,0 -51,-4 -51,-10 0,-6 29,-10 66,-10 h 66 l -18,28 c -31,47 -54,94.9997 -60,128.9997 -7,38 -24,45 -24,9 z"
         inkscape:connector-curvature="0"
         style="" />
      <path
         id="svg_159"
         d="m 7703.8181,10007.454 c 7,-9.9997 30,-33.9997 51,-51.9997 29,-25 37,-39 35,-59 -4,-31 -38,-40 -62,-16 -24,24 -39,14 -21,-13 12,-16 26,-22 54,-22 75,0 83,51 17,116 l -43,43.9997 h 43 c 24,0 44,5 44,10 0,6 -29,10 -66,10 -61,0 -64,-1 -52,-18 z"
         inkscape:connector-curvature="0"
         style="" />
      <path
         id="svg_160"
         d="m 7863.8181,10013.454 c -14,-13.9997 -16,-37.9997 -3,-37.9997 5,0 12,7 15,16 4,9.9997 15,13.9997 33,11.9997 22,-2 28,-7.9997 28,-27.9997 0,-16 -8,-28 -22,-35 -28,-12 -29,-22 -3,-30 11,-3 20,-13 20,-21 0,-23 -29,-28 -50,-9 -23,21 -39,12 -24,-13 6,-10 27,-18 47,-20 28,-2 38,1 47,18 7,13 7,26 2,37 -6,11 -4,25 6,43 15,25 14,30 -1,54 -13,18.9997 -26,25.9997 -50,25.9997 -18,0 -38,-5 -45,-12 z"
         inkscape:connector-curvature="0"
         style="" />
      <path
         id="svg_161"
         d="m 6485.8181,9995.4543 c -12,-5 -24,-15 -27,-24 -7,-18 4,-21 20,-5 6,6 21,9 34,7 19,-2 24,-9 24,-33 0,-23 -5,-30 -24,-35 l -24,-6 26,-17 c 16,-10 24,-23 21,-32 -8,-21 -51,-19 -63,2 -5,10 -12,15 -15,12 -11,-11 26,-49 48,-49 34,0 60,33 47,59 -7,13 -8,22 -1,26 14,9 12,71 -2,82 -22,17 -42,20.9997 -64,13 z"
         inkscape:connector-curvature="0"
         style="" />
      <path
         id="svg_162"
         d="m 6617.8181,9984.4543 c -22,-17 -26,-28 -26,-73 0,-39 5,-58 20,-74 27,-28 65,-28 84,0 20,28 12,37 -12,15 -32,-29 -72,-15 -72,25 0,15 3,16 26,6 24,-11 29,-9 50,15 30,35 30,52 -1,82 -29,29.9997 -35,30.9997 -69,4 z m 68,-25 c 16,-42 -16,-74 -54,-54 -19,10 -27,49 -13,63 13,13 61,7 67,-9 z"
         inkscape:connector-curvature="0"
         style="" />
      <path
         id="svg_163"
         d="m 8031.8181,9887.4543 c 0,-4 20,-28 45,-52 34,-34 45,-51 43,-70 -4,-30 -38,-39 -62,-15 -24,24 -39,14 -21,-13 12,-16 26,-22 54,-22 74,0 83,52 19,117 l -42,43 h 42 c 23,0 42,5 42,10 0,6 -27,10 -60,10 -33,0 -60,-4 -60,-8 z"
         inkscape:connector-curvature="0"
         style="" />
      <path
         id="svg_164"
         d="m 8193.8181,9878.4543 c -31,-61 -19,-148 23,-159 43,-11 59,-1 74,45 12,39 12,51 0,85 -13,37 -18,41 -51,44 -27,2 -39,-1 -46,-15 z m 67,-17 c 7,-8 11,-35 9,-62 -6,-90 -68,-81 -68,11 0,57 31,84 59,51 z"
         inkscape:connector-curvature="0"
         style="" />
      <path
         id="svg_165"
         d="m 6810.8181,9846.4543 c -13,-11 -20,-23 -16,-28 5,-4 13,0 18,10 20,34 75,10 67,-30 -2,-10 -14,-23 -28,-30 l -25,-13 23,-6 c 25,-7 30,-41 7,-51 -9,-3 -25,3 -35,12 -11,10 -23,15 -28,11 -9,-9 35,-46 54,-46 8,0 23,9 35,21 19,19 19,22 5,44 -13,20 -13,24 -1,29 24,9 19,62 -7,80 -29,21 -41,20 -69,-3 z"
         inkscape:connector-curvature="0"
         style="" />
      <path
         id="svg_166"
         d="m 6950.8181,9844.4543 c -26,-26 -17,-39 10,-15 32,29 56,17 56,-29 0,-34 -3,-40 -23,-43 -13,-2 -30,2 -39,10 -15,12 -16,9 -10,-27 4,-22 7,-46 7,-52 0,-9 16,-13 45,-13 25,0 45,5 45,10 0,6 -15,10 -34,10 -22,0 -36,6 -40,16 -9,24 -7,36 5,29 19,-12 55,4 67,30 14,30 2,69 -27,84 -28,15 -38,14 -62,-10 z"
         inkscape:connector-curvature="0"
         style="" />
      <path
         id="svg_167"
         d="m 4351.8181,9768.4543 c 0,-24 25,-92 46,-125 l 24,-38 h -50 c -27,0 -50,-4 -50,-10 0,-6 27,-10 60,-10 33,0 60,4 60,10 0,5 -11,25 -24,45 -13,19 -30,58 -37,85 -7,28 -16,50 -21,50 -4,0 -8,-3 -8,-7 z"
         inkscape:connector-curvature="0"
         style="" />
      <path
         id="svg_168"
         d="m 4531.8181,9699.4543 c 0,-67 -2,-75 -15,-64 -9,7 -18,10 -22,6 -3,-3 -4,-7 -2,-8 2,-2 16,-14 32,-27 l 27,-24 v 96 c 0,58 -4,97 -10,97 -6,0 -10,-32 -10,-76 z"
         inkscape:connector-curvature="0"
         style="" />
      <path
         id="svg_169"
         d="m 8834.8181,9580.4543 c -38,-27 -43,-124 -7,-160 23,-23 70,-19 89,7 11,16 12,24 4,27 -7,2 -16,-4 -21,-13 -12,-22 -45,-20 -58,3 -16,31 -13,43 9,29 15,-9 25,-9 45,0 35,16 44,57 19,90 -24,32 -50,38 -80,17 z m 65,-47 c 4,-34 -26,-54 -53,-34 -13,9 -16,20 -11,40 5,22 11,27 34,24 21,-2 28,-9 30,-30 z"
         inkscape:connector-curvature="0"
         style="" />
      <path
         id="svg_170"
         d="m 7481.8181,9501.4543 c 0,-8 20,-31 45,-51 51,-42 64,-70 42,-92 -15,-16 -57,-10 -57,8 0,5 -7,9 -15,9 -19,0 -19,-14 1,-34 22,-22 70,-20 94,4 11,11 20,23 20,28 0,16 -41,72 -65,88 -37,24 -31,34 20,34 25,0 45,5 45,10 0,6 -28,10 -65,10 -50,0 -65,-3 -65,-14 z"
         inkscape:connector-curvature="0"
         style="" />
      <path
         id="svg_171"
         d="m 7621.8181,9506.4543 c 0,-5 23,-31 50,-57 31,-30 50,-56 50,-70 0,-30 -35,-41 -60,-19 -29,26 -49,14 -22,-13 27,-27 73,-28 97,-2 24,27 14,60 -34,103 -22,19 -37,38 -33,41 3,3 23,6 44,6 21,0 38,5 38,10 0,6 -28,10 -65,10 -36,0 -65,-4 -65,-9 z"
         inkscape:connector-curvature="0"
         style="" />
      <path
         id="svg_172"
         d="m 7830.8181,9368.4543 c 5,-10 28,-36 50,-58 24,-23 41,-48 41,-61 0,-30 -35,-41 -60,-19 -29,26 -49,14 -22,-13 40,-40 112,-18 112,33 0,11 -21,41 -47,67 l -47,48 h 47 c 26,0 47,5 47,10 0,6 -28,10 -65,10 -60,0 -65,-2 -56,-17 z"
         inkscape:connector-curvature="0"
         style="" />
      <path
         id="svg_173"
         d="m 8031.8181,9313.4543 c 0,-56 -3,-69 -12,-60 -15,15 -28,16 -28,2 0,-12 50,-59 63,-60 4,0 7,43 7,95 0,78 -3,95 -15,95 -12,0 -15,-15 -15,-72 z"
         inkscape:connector-curvature="0"
         style="" />
      <path
         stroke="null"
         id="svg_174"
         d="m 4847.2726,9320.4543 c 0,-45.6061 6.909,-79.5454 17.2727,-79.5454 10.3636,0 17.2727,33.9393 17.2727,79.5454 0,45.6061 -6.9091,79.5455 -17.2727,79.5455 -10.3637,0 -17.2727,-33.9394 -17.2727,-79.5455 z"
         inkscape:connector-curvature="0"
         style="" />
      <path
         id="svg_175"
         d="m 8629.8181,9104.4543 c -10,-5 -18,-17 -18,-24 0,-20 9,-19 32,2 24,22 52,7 56,-29 4,-36 -21,-54 -55,-39 -14,6 -28,9 -31,7 -2,-3 1,-26 8,-51 12,-45 13,-45 56,-45 32,0 44,4 44,15 0,10 -10,15 -34,15 -22,0 -36,6 -40,16 -8,22 -8,26 5,19 20,-13 57,5 69,34 25,61 -35,113 -92,80 z"
         inkscape:connector-curvature="0"
         style="" />
      <path
         id="svg_176"
         d="m 6456.8181,8638.4543 c 4,-21 20,-59 36,-85 l 28,-48 h -49 c -28,0 -50,-4 -50,-10 0,-6 27,-10 60,-10 33,0 60,2 60,4 0,2 -13,29 -30,60 -16,31 -32,72 -36,91 -3,19 -10,35 -16,35 -5,0 -6,-16 -3,-37 z"
         inkscape:connector-curvature="0"
         style="" />
      <path
         id="svg_177"
         d="m 6551.8181,8665.4543 c 0,-6 23,-32 50,-59 51,-49 63,-84 34,-95 -24,-9 -31,-8 -48,10 -24,23 -39,13 -21,-14 23,-32 79,-31 101,3 21,32 12,55 -36,99 l -40,36 h 45 c 33,0 45,4 45,15 0,12 -14,15 -65,15 -38,0 -65,-4 -65,-10 z"
         inkscape:connector-curvature="0"
         style="" />
      <path
         id="svg_178"
         d="m 8468.8181,8618.4543 c -4,-3 -7,-15 -7,-25 0,-14 -8,-18 -40,-18 -22,0 -40,-3 -40,-7 0,-17 84,-133 96,-133 10,0 14,15 14,59 0,38 5,61 13,65 10,5 10,7 0,12 -7,3 -13,17 -13,30 0,23 -10,31 -23,17 z m -7,-95 v -33 l -20,25 c -25,32 -25,40 0,40 16,0 20,-7 20,-32 z"
         inkscape:connector-curvature="0"
         style="" />
      <path
         id="svg_179"
         d="m 6921.8181,8430.4543 v -65 l -27,6 -28,7 29,-32 c 48,-51 56,-43 56,59 0,73 -3,90 -15,90 -12,0 -15,-14 -15,-65 z"
         inkscape:connector-curvature="0"
         style="" />
      <path
         id="svg_180"
         d="m 7371.8181,8225.4543 c 0,-6 23,-32 50,-59 51,-50 59,-68 38,-89 -16,-16 -34,-15 -52,4 -9,8 -21,14 -28,12 -20,-7 29,-48 57,-48 28,0 65,32 65,56 0,9 -20,37 -45,62 -25,24 -45,46 -45,48 0,2 20,4 45,4 25,0 45,5 45,10 0,6 -28,10 -65,10 -38,0 -65,-4 -65,-10 z"
         inkscape:connector-curvature="0"
         style="" />
      <path
         id="svg_181"
         d="m 7919.8181,7984.4543 c -17,-10 -25,-39 -11,-39 3,0 15,8 25,17 24,22 53,6 53,-28 0,-17 -6,-25 -22,-27 -28,-4 -29,-13 -3,-30 11,-7 20,-18 20,-26 0,-21 -25,-26 -49,-9 -29,20 -39,9 -16,-17 23,-25 46,-25 76,-1 21,17 22,22 11,40 -10,18 -10,25 4,47 16,24 16,27 -3,52 -22,29 -58,38 -85,21 z"
         inkscape:connector-curvature="0"
         style="" />
      <path
         id="svg_194"
         inkscape:connector-curvature="0"
         style="" />
    </g>
  </g>
  <rect
     style="fill:none;fill-opacity:1;stroke:#0f0000;stroke-width:19.93397331;stroke-miterlimit:4;stroke-dasharray:none;stroke-opacity:1"
     id="rect1034"
     width="4842.8242"
     height="7054.9141"
     x="9155.6025"
     y="7815.2246" />
  <text
     xml:space="preserve"
     style="font-style:normal;font-variant:normal;font-weight:bold;font-stretch:normal;font-size:37.33333206px;line-height:1.25;font-family:'Open Sans';-inkscape-font-specification:'Open Sans Bold';text-align:start;letter-spacing:0px;word-spacing:0px;text-anchor:start;fill:#000000;fill-opacity:1;stroke:none;"
     x="12038.753"
     y="8130.251"
     id="text1048"><tspan
       sodipodi:role="line"
       id="tspan1046"
       x="12038.753"
       y="8163.2822"></tspan></text>
  <g
     id="c1"
     transform="translate(411.61356)"
     inkscape:label="#1">
    <title
       id="title1216">c1</title>
    <circle
       r="170.74644"
       cy="8072.7305"
       cx="12066.445"
       id="path1044"
       style="fill:#000000;fill-opacity:1;stroke:none;stroke-width:20.62727165;stroke-miterlimit:4;stroke-dasharray:none;stroke-opacity:1" />
    <text
       id="text1052"
       y="8150.4907"
       x="12061.706"
       style="font-style:normal;font-variant:normal;font-weight:bold;font-stretch:normal;font-size:62.22373199px;line-height:1.25;font-family:'Open Sans';-inkscape-font-specification:'Open Sans Bold';text-align:start;letter-spacing:0px;word-spacing:0px;text-anchor:start;fill:#000000;fill-opacity:1;stroke:none;stroke-width:1.66670716"
       xml:space="preserve"><tspan
         style="font-style:normal;font-variant:normal;font-weight:bold;font-stretch:normal;font-size:213.33332825px;font-family:'DejaVu Sans';-inkscape-font-specification:'DejaVu Sans Bold';text-align:center;text-anchor:middle;fill:#ffffff;stroke-width:1.66670716"
         y="8150.4907"
         x="12061.706"
         id="tspan1050"
         sodipodi:role="line">1</tspan></text>
  </g>
  <g
     id="c2"
     transform="translate(227.934,2.109375)"
     inkscape:label="#2">
    <title
       id="title1218">c2</title>
    <circle
       r="170.74644"
       cy="8070.6211"
       cx="12834.817"
       id="path1044-8"
       style="fill:#000000;fill-opacity:1;stroke:none;stroke-width:20.62727165;stroke-miterlimit:4;stroke-dasharray:none;stroke-opacity:1" />
    <text
       id="text1052-8"
       y="8149.7876"
       x="12835.599"
       style="font-style:normal;font-variant:normal;font-weight:bold;font-stretch:normal;font-size:213.33332825px;line-height:1.25;font-family:'Open Sans';-inkscape-font-specification:'Open Sans Bold';text-align:start;letter-spacing:0px;word-spacing:0px;text-anchor:start;fill:#000000;fill-opacity:1;stroke:none;stroke-width:1.66670716"
       xml:space="preserve"><tspan
         style="font-style:normal;font-variant:normal;font-weight:bold;font-stretch:normal;font-size:213.33332825px;font-family:'DejaVu Sans';-inkscape-font-specification:'DejaVu Sans Bold';text-align:center;text-anchor:middle;fill:#ffffff;stroke-width:1.66670716"
         y="8149.7876"
         x="12835.599"
         id="tspan1050-8"
         sodipodi:role="line">2</tspan></text>
  </g>
  <g
     id="c3"
     transform="translate(100.997,2.109375)"
     inkscape:label="#3">
    <title
       id="title1220">c3</title>
    <circle
       r="167.74644"
       cy="8072.8677"
       cx="13499.487"
       id="path1044-8-3"
       style="fill:#000000;fill-opacity:1;stroke:none;stroke-width:20.26485443;stroke-miterlimit:4;stroke-dasharray:none;stroke-opacity:1" />
    <text
       id="text1052-8-3"
       y="8150.5239"
       x="13500.789"
       style="font-style:normal;font-variant:normal;font-weight:bold;font-stretch:normal;font-size:61.69975662px;line-height:1.25;font-family:'Open Sans';-inkscape-font-specification:'Open Sans Bold';text-align:start;letter-spacing:0px;word-spacing:0px;text-anchor:start;fill:#000000;fill-opacity:1;stroke:none;stroke-width:1.65267205"
       xml:space="preserve"><tspan
         style="font-style:normal;font-variant:normal;font-weight:bold;font-stretch:normal;font-size:213.33332825px;font-family:'DejaVu Sans';-inkscape-font-specification:'DejaVu Sans Bold';text-align:center;text-anchor:middle;fill:#ffffff;stroke-width:1.65267205"
         y="8150.5239"
         x="13500.789"
         id="tspan1050-8-3"
         sodipodi:role="line">3</tspan></text>
  </g>
  <g
     id="c72"
     transform="translate(-33.986441)"
     inkscape:label="#72">
    <title
       id="title1222">c72</title>
    <circle
       r="170.74644"
       cy="8072.7305"
       cx="12066.445"
       id="path1044-0"
       style="fill:#000000;fill-opacity:1;stroke:none;stroke-width:20.62727165;stroke-miterlimit:4;stroke-dasharray:none;stroke-opacity:1" />
    <text
       id="text1052-4"
       y="8151.897"
       x="12068.528"
       style="font-style:normal;font-variant:normal;font-weight:bold;font-stretch:normal;font-size:62.22373199px;line-height:1.25;font-family:'Open Sans';-inkscape-font-specification:'Open Sans Bold';text-align:center;letter-spacing:0px;word-spacing:0px;text-anchor:middle;fill:#000000;fill-opacity:1;stroke:none;stroke-width:1.66670716"
       xml:space="preserve"><tspan
         style="font-style:normal;font-variant:normal;font-weight:bold;font-stretch:normal;font-size:213.33332825px;font-family:'DejaVu Sans';-inkscape-font-specification:'DejaVu Sans Bold';text-align:center;text-anchor:middle;fill:#ffffff;stroke-width:1.66670716"
         y="8151.897"
         x="12068.528"
         id="tspan1050-7"
         sodipodi:role="line">72</tspan></text>
  </g>
  <g
     id="c444"
     transform="translate(209.45796,701.49815)"
     inkscape:label="#4">
    <title
       id="title1220-8">c4</title>
    <circle
       r="167.74644"
       cy="8072.8677"
       cx="13499.487"
       id="c4"
       style="fill:#000000;fill-opacity:1;stroke:none;stroke-width:20.26485443;stroke-miterlimit:4;stroke-dasharray:none;stroke-opacity:1"
       inkscape:label="#4">
      <title
         id="title1259">c4</title>
    </circle>
    <text
       id="text1052-8-3-0"
       y="8150.5239"
       x="13500.789"
       style="font-style:normal;font-variant:normal;font-weight:bold;font-stretch:normal;font-size:61.69975662px;line-height:1.25;font-family:'Open Sans';-inkscape-font-specification:'Open Sans Bold';text-align:start;letter-spacing:0px;word-spacing:0px;text-anchor:start;fill:#000000;fill-opacity:1;stroke:none;stroke-width:1.65267205"
       xml:space="preserve"><tspan
         style="font-style:normal;font-variant:normal;font-weight:bold;font-stretch:normal;font-size:213.33332825px;font-family:'DejaVu Sans';-inkscape-font-specification:'DejaVu Sans Bold';text-align:center;text-anchor:middle;fill:#ffffff;stroke-width:1.65267205"
         y="8150.5239"
         x="13500.789"
         sodipodi:role="line"
         id="tspan1255">4</tspan></text>
  </g>
  <g
     id="c5"
     transform="translate(209.45796,1230.7966)"
     inkscape:label="#5">
    <title
       id="title1220-8-7">c5</title>
    <circle
       r="167.74644"
       cy="8072.8677"
       cx="13499.487"
       id="c4-9"
       style="fill:#000000;fill-opacity:1;stroke:none;stroke-width:20.26485443;stroke-miterlimit:4;stroke-dasharray:none;stroke-opacity:1"
       inkscape:label="#4">
      <title
         id="title1259-0">c4</title>
    </circle>
    <text
       id="text1052-8-3-0-3"
       y="8150.5239"
       x="13500.789"
       style="font-style:normal;font-variant:normal;font-weight:bold;font-stretch:normal;font-size:61.69975662px;line-height:1.25;font-family:'Open Sans';-inkscape-font-specification:'Open Sans Bold';text-align:start;letter-spacing:0px;word-spacing:0px;text-anchor:start;fill:#000000;fill-opacity:1;stroke:none;stroke-width:1.65267205"
       xml:space="preserve"><tspan
         style="font-style:normal;font-variant:normal;font-weight:bold;font-stretch:normal;font-size:213.33332825px;font-family:'DejaVu Sans';-inkscape-font-specification:'DejaVu Sans Bold';text-align:center;text-anchor:middle;fill:#ffffff;stroke-width:1.65267205"
         y="8150.5239"
         x="13500.789"
         sodipodi:role="line"
         id="tspan1255-3">5</tspan></text>
  </g>
  <g
     id="c6"
     transform="translate(209.45796,1760.0947)"
     inkscape:label="#6">
    <title
       id="title1220-8-7-7">c6</title>
    <circle
       r="167.74644"
       cy="8072.8677"
       cx="13499.487"
       id="c4-9-3"
       style="fill:#000000;fill-opacity:1;stroke:none;stroke-width:20.26485443;stroke-miterlimit:4;stroke-dasharray:none;stroke-opacity:1"
       inkscape:label="#4">
      <title
         id="title1259-0-2">c4</title>
    </circle>
    <text
       id="text1052-8-3-0-3-6"
       y="8150.5239"
       x="13500.789"
       style="font-style:normal;font-variant:normal;font-weight:bold;font-stretch:normal;font-size:61.69975662px;line-height:1.25;font-family:'Open Sans';-inkscape-font-specification:'Open Sans Bold';text-align:start;letter-spacing:0px;word-spacing:0px;text-anchor:start;fill:#000000;fill-opacity:1;stroke:none;stroke-width:1.65267205"
       xml:space="preserve"><tspan
         style="font-style:normal;font-variant:normal;font-weight:bold;font-stretch:normal;font-size:213.33332825px;font-family:'DejaVu Sans';-inkscape-font-specification:'DejaVu Sans Bold';text-align:center;text-anchor:middle;fill:#ffffff;stroke-width:1.65267205"
         y="8150.5239"
         x="13500.789"
         sodipodi:role="line"
         id="tspan1255-3-5">6</tspan></text>
  </g>
  <g
     id="c7"
     transform="translate(209.45796,2289.3931)"
     inkscape:label="#7">
    <title
       id="title1220-8-7-7-6">c7</title>
    <circle
       r="167.74644"
       cy="8072.8677"
       cx="13499.487"
       id="c4-9-3-5"
       style="fill:#000000;fill-opacity:1;stroke:none;stroke-width:20.26485443;stroke-miterlimit:4;stroke-dasharray:none;stroke-opacity:1"
       inkscape:label="#4">
      <title
         id="title1259-0-2-8">c4</title>
    </circle>
    <text
       id="text1052-8-3-0-3-6-7"
       y="8150.5239"
       x="13500.789"
       style="font-style:normal;font-variant:normal;font-weight:bold;font-stretch:normal;font-size:61.69975662px;line-height:1.25;font-family:'Open Sans';-inkscape-font-specification:'Open Sans Bold';text-align:start;letter-spacing:0px;word-spacing:0px;text-anchor:start;fill:#000000;fill-opacity:1;stroke:none;stroke-width:1.65267205"
       xml:space="preserve"><tspan
         style="font-style:normal;font-variant:normal;font-weight:bold;font-stretch:normal;font-size:213.33332825px;font-family:'DejaVu Sans';-inkscape-font-specification:'DejaVu Sans Bold';text-align:center;text-anchor:middle;fill:#ffffff;stroke-width:1.65267205"
         y="8150.5239"
         x="13500.789"
         sodipodi:role="line"
         id="tspan1255-3-5-9">7</tspan></text>
  </g>
  <g
     id="c8"
     transform="translate(209.45796,2818.6913)"
     inkscape:label="#8">
    <title
       id="title1220-8-7-7-6-0">c8</title>
    <circle
       r="167.74644"
       cy="8072.8677"
       cx="13499.487"
       id="c4-9-3-5-4"
       style="fill:#000000;fill-opacity:1;stroke:none;stroke-width:20.26485443;stroke-miterlimit:4;stroke-dasharray:none;stroke-opacity:1"
       inkscape:label="#4">
      <title
         id="title1259-0-2-8-1">c4</title>
    </circle>
    <text
       id="text1052-8-3-0-3-6-7-0"
       y="8150.5239"
       x="13500.789"
       style="font-style:normal;font-variant:normal;font-weight:bold;font-stretch:normal;font-size:61.69975662px;line-height:1.25;font-family:'Open Sans';-inkscape-font-specification:'Open Sans Bold';text-align:start;letter-spacing:0px;word-spacing:0px;text-anchor:start;fill:#000000;fill-opacity:1;stroke:none;stroke-width:1.65267205"
       xml:space="preserve"><tspan
         style="font-style:normal;font-variant:normal;font-weight:bold;font-stretch:normal;font-size:213.33332825px;font-family:'DejaVu Sans';-inkscape-font-specification:'DejaVu Sans Bold';text-align:center;text-anchor:middle;fill:#ffffff;stroke-width:1.65267205"
         y="8150.5239"
         x="13500.789"
         sodipodi:role="line"
         id="tspan1255-3-5-9-4">8</tspan></text>
  </g>
  <g
     id="c9"
     transform="translate(209.45796,3347.9899)"
     inkscape:label="#9">
    <title
       id="title1220-8-7-7-6-0-7-7">c9</title>
    <circle
       r="167.74644"
       cy="8072.8677"
       cx="13499.487"
       id="c4-9-3-5-4-0-9"
       style="fill:#000000;fill-opacity:1;stroke:none;stroke-width:20.26485443;stroke-miterlimit:4;stroke-dasharray:none;stroke-opacity:1"
       inkscape:label="#4">
      <title
         id="title1259-0-2-8-1-8-3">c4</title>
    </circle>
    <text
       id="text1052-8-3-0-3-6-7-0-6-9"
       y="8150.5239"
       x="13500.789"
       style="font-style:normal;font-variant:normal;font-weight:bold;font-stretch:normal;font-size:61.69975662px;line-height:1.25;font-family:'Open Sans';-inkscape-font-specification:'Open Sans Bold';text-align:start;letter-spacing:0px;word-spacing:0px;text-anchor:start;fill:#000000;fill-opacity:1;stroke:none;stroke-width:1.65267205"
       xml:space="preserve"><tspan
         style="font-style:normal;font-variant:normal;font-weight:bold;font-stretch:normal;font-size:213.33332825px;font-family:'DejaVu Sans';-inkscape-font-specification:'DejaVu Sans Bold';text-align:center;text-anchor:middle;fill:#ffffff;stroke-width:1.65267205"
         y="8150.5239"
         x="13500.789"
         sodipodi:role="line"
         id="tspan1255-3-5-9-4-2-2">9</tspan></text>
  </g>
  <g
     id="c10"
     transform="translate(209.45796,3877.2881)"
     inkscape:label="#10">
    <title
       id="title1220-8-7-7-6-0-7-7-3">c10</title>
    <circle
       r="167.74644"
       cy="8072.8677"
       cx="13499.487"
       id="c4-9-3-5-4-0-9-0"
       style="fill:#000000;fill-opacity:1;stroke:none;stroke-width:20.26485443;stroke-miterlimit:4;stroke-dasharray:none;stroke-opacity:1"
       inkscape:label="#4">
      <title
         id="title1259-0-2-8-1-8-3-1">c4</title>
    </circle>
    <text
       id="text1052-8-3-0-3-6-7-0-6-9-7"
       y="8150.5239"
       x="13500.789"
       style="font-style:normal;font-variant:normal;font-weight:bold;font-stretch:normal;font-size:61.69975662px;line-height:1.25;font-family:'Open Sans';-inkscape-font-specification:'Open Sans Bold';text-align:start;letter-spacing:0px;word-spacing:0px;text-anchor:start;fill:#000000;fill-opacity:1;stroke:none;stroke-width:1.65267205"
       xml:space="preserve"><tspan
         style="font-style:normal;font-variant:normal;font-weight:bold;font-stretch:normal;font-size:213.33332825px;font-family:'DejaVu Sans';-inkscape-font-specification:'DejaVu Sans Bold';text-align:center;text-anchor:middle;fill:#ffffff;stroke-width:1.65267205"
         y="8150.5239"
         x="13500.789"
         sodipodi:role="line"
         id="tspan1255-3-5-9-4-2-2-8">10</tspan></text>
  </g>
  <g
     id="c11"
     transform="translate(209.45796,4406.5863)"
     inkscape:label="#11">
    <title
       id="title1220-8-7-7-6-0-7-7-3-1">c11</title>
    <circle
       r="167.74644"
       cy="8072.8677"
       cx="13499.487"
       id="c4-9-3-5-4-0-9-0-5"
       style="fill:#000000;fill-opacity:1;stroke:none;stroke-width:20.26485443;stroke-miterlimit:4;stroke-dasharray:none;stroke-opacity:1"
       inkscape:label="#4">
      <title
         id="title1259-0-2-8-1-8-3-1-4">c4</title>
    </circle>
    <text
       id="text1052-8-3-0-3-6-7-0-6-9-7-9"
       y="8150.5239"
       x="13500.789"
       style="font-style:normal;font-variant:normal;font-weight:bold;font-stretch:normal;font-size:61.69975662px;line-height:1.25;font-family:'Open Sans';-inkscape-font-specification:'Open Sans Bold';text-align:start;letter-spacing:0px;word-spacing:0px;text-anchor:start;fill:#000000;fill-opacity:1;stroke:none;stroke-width:1.65267205"
       xml:space="preserve"><tspan
         style="font-style:normal;font-variant:normal;font-weight:bold;font-stretch:normal;font-size:213.33332825px;font-family:'DejaVu Sans';-inkscape-font-specification:'DejaVu Sans Bold';text-align:center;text-anchor:middle;fill:#ffffff;stroke-width:1.65267205"
         y="8150.5239"
         x="13500.789"
         sodipodi:role="line"
         id="tspan1255-3-5-9-4-2-2-8-2">11</tspan></text>
  </g>
  <g
     id="c12"
     transform="translate(209.45796,4935.8849)"
     inkscape:label="#12">
    <title
       id="title1220-8-7-7-6-0-7-7-3-1-7">c12</title>
    <circle
       r="167.74644"
       cy="8072.8677"
       cx="13499.487"
       id="c4-9-3-5-4-0-9-0-5-4"
       style="fill:#000000;fill-opacity:1;stroke:none;stroke-width:20.26485443;stroke-miterlimit:4;stroke-dasharray:none;stroke-opacity:1"
       inkscape:label="#4">
      <title
         id="title1259-0-2-8-1-8-3-1-4-9">c4</title>
    </circle>
    <text
       id="text1052-8-3-0-3-6-7-0-6-9-7-9-9"
       y="8150.5239"
       x="13500.789"
       style="font-style:normal;font-variant:normal;font-weight:bold;font-stretch:normal;font-size:61.69975662px;line-height:1.25;font-family:'Open Sans';-inkscape-font-specification:'Open Sans Bold';text-align:start;letter-spacing:0px;word-spacing:0px;text-anchor:start;fill:#000000;fill-opacity:1;stroke:none;stroke-width:1.65267205"
       xml:space="preserve"><tspan
         style="font-style:normal;font-variant:normal;font-weight:bold;font-stretch:normal;font-size:213.33332825px;font-family:'DejaVu Sans';-inkscape-font-specification:'DejaVu Sans Bold';text-align:center;text-anchor:middle;fill:#ffffff;stroke-width:1.65267205"
         y="8150.5239"
         x="13500.789"
         sodipodi:role="line"
         id="tspan1255-3-5-9-4-2-2-8-2-4">12</tspan></text>
  </g>
  <g
     id="c13"
     transform="translate(209.45796,5465.1831)"
     inkscape:label="#13">
    <title
       id="title1220-8-7-7-6-0-7-7-3-1-7-9">c13</title>
    <circle
       r="167.74644"
       cy="8072.8677"
       cx="13499.487"
       id="c4-9-3-5-4-0-9-0-5-4-3"
       style="fill:#000000;fill-opacity:1;stroke:none;stroke-width:20.26485443;stroke-miterlimit:4;stroke-dasharray:none;stroke-opacity:1"
       inkscape:label="#4">
      <title
         id="title1259-0-2-8-1-8-3-1-4-9-5">c4</title>
    </circle>
    <text
       id="text1052-8-3-0-3-6-7-0-6-9-7-9-9-7"
       y="8150.5239"
       x="13500.789"
       style="font-style:normal;font-variant:normal;font-weight:bold;font-stretch:normal;font-size:61.69975662px;line-height:1.25;font-family:'Open Sans';-inkscape-font-specification:'Open Sans Bold';text-align:start;letter-spacing:0px;word-spacing:0px;text-anchor:start;fill:#000000;fill-opacity:1;stroke:none;stroke-width:1.65267205"
       xml:space="preserve"><tspan
         style="font-style:normal;font-variant:normal;font-weight:bold;font-stretch:normal;font-size:213.33332825px;font-family:'DejaVu Sans';-inkscape-font-specification:'DejaVu Sans Bold';text-align:center;text-anchor:middle;fill:#ffffff;stroke-width:1.65267205"
         y="8150.5239"
         x="13500.789"
         sodipodi:role="line"
         id="tspan1255-3-5-9-4-2-2-8-2-4-0">13</tspan></text>
  </g>
</svg>
