<svg width="14190" height="16000" xmlns="http://www.w3.org/2000/svg" preserveAspectRatio="xMidYMid meet">

 <g>
  <title>background</title>
  <rect fill="none" id="canvas_background" height="402" width="582" y="-1" x="-1"/>
 </g>
 <g>
  <title>Layer 1</title>
  <g fill="#030303" id="layer101">
   <path id="svg_1" d="m6664.818181,15813c-7,-2 -13,-17 -13,-32c0,-15 -4,-31 -9,-36c-5,-6 -28,-57 -52,-115c-23,-58 -46,-109 -49,-115c-4,-5 -36,-77 -70,-160c-35,-82 -67,-154 -71,-159c-5,-6 -9,-16 -9,-23c0,-7 -9,-32 -19,-56c-11,-23 -34,-78 -52,-122c-17,-44 -42,-102 -54,-130c-12,-27 -34,-76 -49,-108c-14,-32 -26,-61 -26,-64c0,-4 -9,-26 -20,-50c-23,-50 -58,-128 -72,-163c-6,-14 -14,-32 -18,-41c-29,-59 -170,-402 -170,-414c0,-8 -3,-15 -8,-15c-4,0 -15,-23 -25,-51c-10,-28 -32,-81 -49,-117c-16,-37 -39,-87 -49,-111c-11,-24 -29,-64 -39,-90c-10,-25 -31,-75 -48,-111c-16,-36 -55,-128 -87,-205c-31,-77 -66,-159 -76,-182c-10,-24 -19,-45 -19,-48c0,-2 -13,-34 -30,-70c-16,-36 -30,-71 -30,-78c0,-7 -4,-17 -9,-23c-5,-5 -19,-33 -31,-63c-11,-30 -32,-77 -45,-105c-36,-80 -65,-144 -85,-195c-10,-25 -30,-72 -45,-105c-40,-87 -95,-219 -95,-228c0,-4 -12,-33 -26,-65c-42,-93 -59,-133 -128,-294c-46,-109 -171,-399 -186,-434c-5,-11 -18,-42 -30,-70c-12,-27 -25,-59 -30,-70c-5,-11 -30,-72 -55,-135c-26,-63 -55,-133 -65,-155c-43,-95 -70,-156 -70,-161c0,-3 -11,-29 -24,-57c-52,-115 -68,-150 -100,-229c-19,-46 -42,-96 -50,-113c-9,-16 -16,-34 -16,-38c0,-7 -18,-50 -50,-122c-5,-11 -21,-49 -36,-85c-14,-36 -32,-78 -39,-95c-7,-16 -34,-79 -60,-140c-89,-206 -107,-250 -121,-280c-92,-213 -114,-268 -114,-285c0,-19 29,-35 176,-96c48,-20 94,-39 103,-44c9,-4 27,-12 41,-18c14,-6 46,-20 73,-31c26,-12 66,-29 90,-40c23,-10 62,-27 87,-39c25,-11 74,-32 110,-47c36,-15 83,-35 105,-45c22,-10 105,-46 185,-80c79,-34 160,-68 180,-77c19,-9 54,-24 78,-34c23,-11 63,-28 90,-40c26,-11 56,-24 67,-29c11,-5 40,-17 65,-28c25,-11 115,-50 200,-87c85,-37 175,-76 200,-87c25,-11 54,-23 65,-28c11,-5 41,-18 68,-29c26,-12 66,-29 90,-40c23,-10 62,-27 87,-39c25,-11 74,-32 110,-47c36,-15 79,-33 95,-42c17,-8 79,-35 139,-59c59,-25 116,-49 125,-54c16,-8 37,-17 136,-60c60,-26 95,-41 155,-68c25,-11 74,-32 110,-47c62,-26 91,-39 190,-83c25,-11 85,-37 134,-57c49,-20 96,-40 105,-45c9,-4 27,-12 41,-18c14,-6 46,-20 73,-31c26,-12 68,-30 95,-42c26,-11 54,-24 63,-29c9,-5 68,-30 130,-55c63,-26 119,-50 124,-54c6,-4 42,-20 80,-36c64,-25 94,-39 220,-95c170,-76 173,-77 199,-12c11,26 27,65 37,87c10,22 39,92 64,155c44,107 84,201 142,327c12,28 23,54 23,57c0,5 44,106 60,136c4,9 51,121 105,250c53,129 106,254 116,277c11,24 35,82 55,130c20,49 39,93 43,98c4,6 13,26 21,45c15,40 35,87 79,183c17,37 31,73 31,80c0,7 4,17 9,22c5,6 46,100 91,210c46,110 94,223 106,252c13,28 24,54 24,57c0,3 18,44 40,91c22,47 40,88 40,91c0,3 9,24 19,47c10,23 31,70 45,105c15,34 40,92 56,128c17,35 30,70 30,77c0,7 4,17 9,22c6,6 38,80 72,165c33,85 65,160 68,165c4,6 13,26 21,45c7,19 21,54 31,78c11,23 27,61 38,85c10,23 27,62 39,87c11,25 32,74 47,110c15,36 33,79 40,95c8,17 25,55 38,85c13,30 39,91 57,135c17,44 41,103 52,130c21,52 29,70 73,170c15,33 34,78 42,100c17,45 76,180 104,236c4,9 29,67 54,129c25,62 50,120 54,129c5,9 14,30 21,46c7,17 18,44 25,60c7,17 32,77 56,135c23,58 52,128 65,155c12,28 34,76 48,108c14,32 26,60 26,63c0,3 11,29 24,57c54,120 69,155 166,388c56,134 109,262 119,284c58,130 81,187 81,206c0,15 -14,26 -57,45c-32,14 -71,32 -88,39c-16,7 -56,25 -87,39c-31,14 -61,26 -67,26c-5,0 -22,7 -38,15c-53,28 -184,85 -197,85c-6,0 -16,4 -21,9c-6,5 -50,26 -99,46c-49,20 -96,40 -105,45c-9,4 -27,12 -41,18c-14,6 -46,20 -72,31c-27,12 -69,30 -95,42c-27,11 -57,25 -68,29c-11,5 -45,20 -75,33c-30,14 -75,33 -100,43c-25,9 -49,20 -55,25c-5,4 -61,28 -124,54c-62,25 -121,50 -130,55c-16,8 -37,17 -136,60c-63,27 -96,41 -167,74c-31,14 -59,26 -62,26c-6,0 -107,45 -137,60c-9,5 -55,24 -103,44c-47,20 -107,45 -134,57c-54,23 -96,42 -132,57c-14,5 -46,20 -72,31c-27,12 -69,30 -95,42c-27,11 -57,25 -68,29c-11,5 -50,22 -88,39c-37,17 -69,31 -72,31c-3,0 -34,13 -68,29c-34,16 -102,46 -151,66c-49,20 -96,40 -105,45c-9,4 -27,12 -41,18c-14,6 -52,22 -85,37c-33,15 -73,33 -90,40c-16,7 -55,24 -85,37c-30,14 -86,38 -125,53c-38,16 -74,32 -80,36c-5,4 -49,23 -98,43c-83,34 -117,49 -234,102c-28,13 -54,24 -57,24c-3,0 -31,12 -63,26c-202,92 -351,154 -370,153c-10,0 -24,-3 -30,-6z"/>
   <path id="svg_2" d="m3861.818181,9253c-18,-43 -35,-82 -39,-88c-4,-5 -18,-35 -30,-65c-32,-78 -78,-181 -122,-278c-22,-46 -39,-85 -39,-87c0,-3 -40,-95 -90,-206c-49,-111 -90,-212 -90,-225c0,-25 30,-42 245,-136c50,-21 109,-48 133,-59c23,-10 61,-27 85,-38c87,-38 115,-50 217,-96c102,-46 130,-58 218,-96c58,-26 112,-51 216,-98c93,-44 120,-45 132,-8c4,12 24,59 45,105c22,46 39,85 39,87c0,3 12,30 26,62c15,32 35,77 45,101c11,23 28,61 38,85c11,23 54,121 96,217c41,96 84,193 94,215c10,22 26,57 36,77c23,51 13,71 -48,98c-28,13 -77,34 -107,48c-30,14 -73,33 -95,43c-22,9 -75,34 -118,53c-43,20 -80,36 -83,36c-2,0 -34,14 -71,31c-38,17 -86,39 -108,49c-56,24 -211,95 -313,141c-35,16 -65,29 -67,29c-6,0 -115,49 -147,66c-52,28 -64,20 -98,-63z"/>
   <path id="svg_3" d="m5204.818181,8738c-6,-7 -13,-26 -17,-42c-4,-16 -25,-67 -47,-115c-23,-47 -52,-113 -66,-146c-14,-33 -36,-85 -50,-115c-14,-30 -33,-73 -43,-95c-9,-22 -24,-56 -33,-75c-9,-19 -25,-58 -37,-85c-12,-27 -28,-66 -37,-85c-9,-19 -24,-53 -33,-75c-10,-22 -32,-70 -49,-107c-17,-37 -31,-69 -31,-72c0,-3 -18,-44 -40,-91c-22,-47 -40,-88 -40,-90c0,-2 -18,-43 -40,-90c-22,-47 -40,-88 -40,-91c0,-2 -13,-32 -29,-66c-16,-35 -72,-162 -126,-283c-53,-121 -105,-239 -116,-262c-10,-24 -27,-62 -38,-85c-10,-24 -30,-69 -45,-101c-14,-32 -26,-59 -26,-62c0,-2 -18,-43 -40,-90c-22,-47 -40,-88 -40,-91c0,-3 -16,-39 -35,-80c-19,-41 -35,-77 -35,-79c0,-3 -12,-29 -26,-58c-14,-28 -41,-90 -60,-137c-35,-83 -48,-113 -113,-253c-17,-37 -31,-72 -31,-78c0,-6 -6,-9 -12,-6c-7,3 -33,12 -58,22c-25,9 -52,20 -60,24c-8,5 -78,34 -155,66c-77,32 -163,68 -192,81c-28,13 -58,24 -65,24c-8,0 -18,4 -24,9c-5,5 -45,23 -89,41c-44,18 -104,43 -133,56c-29,13 -58,24 -65,24c-7,0 -17,4 -23,9c-5,5 -83,39 -174,76c-91,37 -185,77 -209,88c-32,15 -48,17 -60,10c-9,-6 -44,-77 -79,-159c-34,-82 -83,-198 -108,-257c-45,-104 -46,-109 -29,-127c10,-11 22,-20 27,-20c5,0 34,-11 64,-25c30,-14 61,-25 69,-25c7,0 16,-4 19,-9c3,-4 27,-16 53,-26c26,-9 68,-26 93,-37c25,-11 54,-23 65,-28c11,-4 46,-20 78,-34c32,-14 62,-26 67,-26c6,0 18,-4 28,-9c44,-24 132,-61 146,-61c8,0 17,-4 21,-9c3,-5 29,-17 57,-27c29,-9 73,-27 98,-40c25,-12 92,-41 150,-63c58,-23 119,-48 135,-56c17,-8 48,-21 70,-29c35,-12 40,-17 38,-42c-1,-16 -9,-42 -17,-59c-34,-68 -86,-189 -86,-200c0,-10 26,-23 155,-80c17,-8 96,-41 175,-75c80,-34 173,-75 208,-91c35,-16 66,-29 68,-29c3,0 31,-12 62,-26c31,-14 66,-29 77,-34c11,-4 42,-18 68,-30c26,-12 50,-21 52,-19c7,8 75,159 75,168c0,5 7,22 15,38c24,46 79,171 125,283c24,58 47,110 51,115c4,6 23,51 44,100c20,50 50,119 67,155c17,36 36,79 43,95c7,17 25,56 39,87c14,31 26,59 26,62c0,3 12,31 26,63c15,32 35,76 44,98c10,22 34,75 54,118c20,43 36,80 36,83c0,5 23,56 80,179c15,33 40,89 55,125c15,36 41,94 57,130c17,36 37,81 45,100c16,36 37,85 74,168c11,26 24,56 29,67c14,34 46,107 79,179c18,38 39,87 48,110c9,22 19,46 23,51c5,6 24,51 45,100c36,88 53,125 121,273c19,40 34,75 34,78c0,3 13,33 29,67c16,34 52,116 81,182c29,66 67,153 86,193c19,40 34,75 34,77c0,3 14,35 31,72c17,38 39,86 49,108c9,22 24,56 33,75c74,166 74,164 0,196c-32,14 -83,37 -113,51c-30,14 -91,41 -135,60c-44,20 -108,48 -143,64c-35,16 -65,29 -67,29c-3,0 -28,11 -57,24c-29,13 -80,36 -113,51c-33,15 -73,33 -89,41c-45,22 -91,27 -103,12z"/>
   <path id="svg_4" d="m6162.123272,8318c-7,-7 -12,-18 -12,-26c0,-7 -11,-37 -24,-65c-116,-250 -165,-355 -186,-402c-10,-22 -32,-70 -49,-108c-17,-37 -31,-69 -31,-72c0,-2 -15,-37 -34,-77c-18,-40 -48,-104 -65,-143c-18,-38 -38,-82 -46,-97c-26,-46 -19,-64 30,-87c48,-22 123,-56 165,-73c14,-6 39,-17 55,-24c17,-7 66,-27 110,-44c44,-18 100,-41 125,-53c104,-46 149,-65 215,-91c39,-15 84,-34 100,-40c17,-7 41,-18 55,-24c14,-5 45,-19 70,-30c111,-50 242,-106 320,-136c82,-32 169,-69 201,-86c8,-4 109,-47 225,-95c115,-49 216,-91 224,-95c8,-4 26,-12 40,-18c14,-6 51,-22 82,-36c31,-14 60,-26 65,-26c4,0 21,-7 38,-16c46,-24 68,-12 95,53c13,32 41,95 62,141c21,46 38,85 38,87c0,5 48,108 136,293c35,73 64,135 64,137c0,2 16,39 36,82c20,43 49,106 65,141c16,35 29,68 29,72c0,4 -23.50834,-40.84725 15,14c38.50834,54.84725 -6.61018,56.47454 -276.61018,170.47454c-126,53 -253.38982,96.52546 -278.38982,107.52546c-74,32 -82,35 -164,68c-44,18 -87,36 -95,40c-27,14 -107,48 -198,86c-49,19 -98,39 -110,44c-13,6 -35,15 -50,21c-16,6 -35,15 -43,19c-9,4 -126,54 -260,110c-135,56 -265,111 -290,122c-25,11 -56,24 -70,30c-14,6 -32,14 -42,19c-9,4 -69,29 -135,55c-65,25 -122,50 -127,55c-14,13 -60,11 -74,-3z"/>
   <path id="svg_5" d="m9065.818181,6501c-11,-8 -24,-35 -64,-136c-17,-44 -35,-89 -40,-100c-4,-11 -23,-56 -40,-100c-18,-44 -38,-87 -45,-95c-7,-8 -27,-51 -45,-95c-18,-44 -36,-89 -41,-100c-4,-11 -29,-72 -54,-135c-26,-63 -50,-124 -55,-135c-22,-53 -90,-226 -110,-278c-12,-31 -26,-60 -31,-62c-4,-3 -25,2 -46,11c-40,18 -81,35 -123,52c-14,6 -83,34 -153,63c-75,31 -131,48 -136,43c-9,-9 -24,-46 -74,-174c-38,-99 -124,-311 -178,-443c-27,-65 -49,-121 -49,-125c0,-4 33,-20 73,-35c39,-16 81,-33 92,-37c11,-5 83,-34 160,-65c77,-31 152,-63 167,-71c14,-8 37,-14 51,-14c25,0 156,39 287,84c65,23 199,65 275,86c22,6 56,17 75,25c19,7 55,18 80,25c25,7 63,18 85,25c22,7 74,23 115,35c41,12 100,30 130,40c30,10 96,30 145,45c50,15 119,37 155,50c61,21 121,40 320,101c47,14 112,35 145,46c33,11 85,26 115,32l54,11l24,65c13,36 29,79 37,95c42,94 76,189 71,201c-3,8 -18,19 -33,25c-15,7 -52,22 -81,35c-29,13 -56,24 -60,24c-4,0 -61,22 -127,49c-66,27 -173,71 -238,97c-129,53 -124,46 -91,124c9,19 19,44 24,55c66,156 117,291 114,299c-2,6 -93,46 -202,90c-108,43 -213,85 -232,93c-19,8 -46,20 -60,25c-33,13 -79,32 -110,46c-126,55 -269,109 -276,103z"/>
   <path id="svg_6" d="m10637.818181,5792c-7,-15 -39,-90 -71,-167c-32,-77 -68,-163 -81,-192c-13,-28 -24,-56 -24,-62c0,-5 -6,-22 -14,-38c-8,-15 -19,-39 -24,-53c-15,-37 -62,-150 -80,-192c-12,-28 -24,-39 -47,-44c-16,-4 -43,-12 -60,-19c-16,-7 -55,-20 -85,-29c-30,-9 -104,-32 -163,-51c-60,-19 -115,-35 -122,-35c-8,0 -29,-6 -47,-14c-29,-12 -148,-50 -248,-79c-19,-5 -51,-15 -70,-22c-19,-8 -75,-25 -125,-40c-49,-14 -105,-33 -123,-41c-18,-8 -39,-14 -47,-14c-7,0 -62,-16 -122,-35c-59,-19 -133,-42 -163,-51c-30,-9 -86,-27 -125,-39c-38,-12 -110,-34 -160,-50c-49,-15 -105,-33 -123,-41c-18,-8 -37,-14 -43,-14c-6,0 -35,-7 -65,-16c-40,-11 -58,-23 -68,-43c-24,-45 -157,-454 -152,-466c2,-7 30,-22 63,-35c58,-23 102,-41 158,-65c17,-7 44,-18 60,-25c17,-7 44,-18 60,-25c17,-7 42,-18 58,-24c15,-6 37,-15 50,-21c12,-5 74,-30 137,-55c63,-25 126,-51 140,-57c31,-13 76,-32 115,-48c28,-11 52,-21 115,-48c99,-41 250,-102 255,-102c3,0 27,-9 53,-21c54,-24 96,-42 132,-57c51,-21 350,-141 480,-192c74,-29 151,-59 170,-67c19,-8 46,-20 60,-25c14,-6 39,-16 55,-23c17,-7 44,-18 60,-25c58,-24 90,-37 115,-48c14,-6 99,-41 190,-77c91,-37 177,-73 192,-81c14,-8 31,-14 37,-14c6,0 30,-9 54,-19c23,-11 58,-24 77,-30c58,-17 174,-62 185,-72c5,-5 15,-9 23,-9c7,0 37,-11 65,-23c99,-45 182,-77 200,-77c10,0 22,12 28,28c6,15 17,38 24,52c7,14 20,49 29,77c10,29 22,55 27,58c5,4 9,13 9,21c0,8 11,41 26,72c30,69 48,109 61,142c6,14 22,52 36,85c13,33 43,107 67,165c58,146 66,164 114,272c15,31 26,62 26,68c0,6 5,21 12,33c18,32 38,89 38,109c0,21 -8,25 -140,78c-58,23 -121,49 -140,57c-19,8 -48,21 -65,28c-16,7 -43,18 -60,25c-50,21 -99,42 -117,51c-10,5 -23,9 -30,9c-43,1 -42,16 17,156c62,151 71,174 90,219c7,17 18,44 25,60c7,17 18,44 25,60c7,17 36,89 65,160c28,72 56,137 61,145c5,8 12,22 15,30c3,8 10,23 15,32c5,10 9,26 9,36c0,10 4,22 9,28c5,5 34,72 66,149c31,77 61,150 67,162c12,24 4,43 -19,43c-8,0 -27,6 -41,14c-15,7 -40,19 -57,26c-16,7 -43,18 -60,25c-16,7 -42,17 -57,24c-16,6 -38,15 -50,21c-13,5 -63,25 -113,45c-49,20 -94,40 -100,44c-5,4 -30,14 -55,21c-25,7 -52,20 -61,27c-8,7 -20,13 -25,13c-5,0 -76,27 -159,61c-148,60 -176,71 -245,102c-19,8 -47,20 -62,26c-16,6 -38,15 -50,21c-13,5 -51,20 -86,34l-62,25l-14,-27z"/>
   <path id="svg_7" d="m2316.818181,5564c-8,-8 -15,-20 -15,-25c0,-6 -12,-36 -26,-67c-14,-31 -37,-81 -50,-110c-13,-29 -24,-55 -24,-58c0,-3 -7,-22 -16,-42c-9,-21 -20,-46 -24,-57c-5,-11 -17,-40 -28,-65c-78,-176 -78,-174 -14,-202c26,-11 67,-29 92,-40c25,-11 56,-24 70,-30c14,-6 32,-14 41,-18c8,-4 51,-22 95,-40c43,-18 103,-43 131,-56c75,-34 113,-41 113,-20c0,9 14,47 31,84c40,85 220,515 216,517c-1,1 -38,17 -81,34c-44,18 -87,37 -95,41c-9,4 -29,13 -46,20c-16,7 -37,16 -46,20c-8,4 -51,22 -95,40c-43,17 -87,36 -97,41c-10,5 -40,18 -67,29c-44,17 -51,18 -65,4z"/>
   <path id="svg_8" d="m13188.818181,5333c-13,-12 -7,-43 8,-43c8,0 23,-4 33,-9c9,-5 36,-17 59,-27c51,-23 59,-38 33,-64c-19,-19 -20,-19 -95,12c-64,26 -78,29 -86,17c-17,-27 -9,-37 49,-59c31,-12 71,-29 89,-36c42,-19 62,-18 69,4c4,9 15,36 27,58c20,39 20,43 4,67c-9,13 -38,35 -64,47c-26,12 -56,26 -65,31c-21,11 -52,12 -61,2z"/>
   <path id="svg_9" d="m2941.818181,5277c0,-7 -11,-37 -25,-65c-14,-29 -25,-55 -25,-58c0,-3 -7,-22 -16,-42c-9,-21 -21,-48 -26,-62c-6,-14 -14,-32 -18,-41c-34,-68 -130,-315 -128,-327c2,-9 48,-34 113,-60c61,-25 138,-58 173,-73c34,-16 65,-29 68,-29c3,0 31,-12 62,-26c31,-14 68,-30 82,-36c14,-6 33,-14 42,-19c29,-15 46,-10 53,14c7,25 12,38 49,119c14,31 26,60 26,63c0,7 25,68 40,96c5,9 30,68 55,130c26,63 51,119 55,124c5,6 10,23 12,38c3,29 -6,35 -152,91c-8,3 -22,10 -30,15c-16,9 -26,14 -144,61c-44,18 -87,35 -95,40c-9,4 -34,15 -56,25c-22,9 -48,21 -57,26c-26,13 -58,11 -58,-4z"/>
   <path id="svg_10" d="m12014.818181,5248c-6,-7 -20,-39 -31,-70c-12,-32 -26,-66 -31,-75c-15,-29 -43,-94 -151,-353c-98,-235 -114,-273 -166,-388c-13,-29 -24,-59 -24,-67c0,-7 -4,-16 -9,-19c-4,-3 -16,-27 -26,-53c-9,-26 -28,-71 -41,-100c-29,-63 -30,-89 -4,-103c11,-6 150,-65 308,-131c158,-66 300,-127 316,-135c40,-20 42,-19 60,26c8,21 25,61 37,87c24,55 42,95 59,138c7,17 18,44 25,60c7,17 18,44 25,60c7,17 16,38 21,47c5,9 54,126 110,260c55,134 109,261 119,283c10,22 25,56 33,75c9,19 27,61 41,94c36,82 35,90 -26,116c-29,12 -73,31 -98,42c-57,26 -98,43 -130,56c-14,6 -50,21 -80,35c-30,13 -86,37 -125,52c-38,15 -93,39 -122,52c-59,26 -76,28 -90,11z"/>
   <path id="svg_11" d="m13111.818181,5147c-36,-29 -52,-116 -30,-158c15,-26 82,-59 124,-59c49,0 96,46 96,95c0,48 -13,70 -51,89c-40,20 -51,12 -69,-54c-16,-58 -24,-67 -45,-50c-24,20 -18,74 10,104c14,15 23,32 20,37c-8,13 -37,11 -55,-4zm139,-140c-7,-15 -20,-27 -31,-27c-22,0 -22,-1 -2,45c14,33 17,36 30,23c12,-12 13,-20 3,-41z"/>
   <path id="svg_12" d="m12972.818181,4958c-40,-22 -83,-128 -52,-128c5,0 16,-3 25,-6c13,-5 16,1 16,29c0,37 21,67 47,67c14,0 14,-3 -1,-25c-26,-40 -21,-87 14,-120c24,-23 41,-30 89,-33c54,-4 60,-2 85,24c15,16 26,40 26,56c0,15 5,30 10,33c22,14 7,34 -37,51c-27,9 -67,25 -91,35c-61,26 -103,31 -131,17zm164,-89c5,-5 17,-9 27,-9c20,0 22,-8 9,-43c-14,-35 -37,-40 -87,-18c-38,17 -44,24 -44,50c0,16 6,32 13,34c16,7 69,-2 82,-14z"/>
   <path id="svg_14" d="m5266.818181,4923c-42,-9 -50,-14 -37,-22c9,-5 -11,-62 -74,-212c-47,-112 -92,-218 -101,-236c-23,-50 -3,-68 144,-129c70,-30 142,-60 158,-67c17,-8 41,-19 55,-25c14,-5 46,-19 72,-31c26,-12 51,-21 55,-21c4,0 27,-9 52,-21c25,-11 55,-25 66,-29c11,-5 45,-20 75,-33c30,-14 102,-44 160,-67c58,-23 112,-45 121,-50c8,-4 82,-35 163,-69c81,-34 168,-71 194,-82c93,-42 110,-49 117,-49c3,0 32,-12 63,-26c31,-14 68,-30 82,-36c14,-6 32,-14 40,-18c8,-4 78,-33 155,-64c77,-32 147,-61 156,-66c9,-4 94,-40 189,-80c95,-40 180,-76 189,-80c9,-5 52,-23 95,-40c44,-18 87,-36 95,-40c9,-4 30,-13 46,-20c17,-7 37,-16 46,-20c9,-5 163,-70 342,-144c304,-127 361,-146 383,-124c2,2 46,107 99,233c104,249 151,381 157,434c3,33 1,35 -47,54c-27,11 -74,30 -103,43c-29,13 -55,24 -58,24c-3,0 -31,12 -62,26c-31,14 -66,29 -77,34c-11,4 -37,15 -58,25c-49,21 -73,13 -93,-33c-31,-70 -49,-102 -57,-102c-4,0 -34,12 -65,26c-31,14 -66,29 -77,34c-11,5 -46,20 -77,34c-31,14 -63,26 -70,26c-8,0 -18,4 -24,9c-5,5 -34,19 -64,31c-30,12 -64,26 -75,30c-11,5 -40,17 -65,28c-25,11 -155,66 -290,122c-134,56 -251,106 -260,110c-8,4 -26,12 -40,18c-14,6 -51,22 -82,36c-31,14 -61,26 -67,26c-5,0 -22,6 -38,14c-58,30 -144,66 -156,66c-7,0 -17,4 -22,9c-6,5 -116,53 -245,106c-129,54 -260,108 -290,122c-30,14 -64,28 -75,33c-11,4 -41,17 -67,29c-26,12 -51,21 -55,21c-4,0 -27,9 -52,21c-25,11 -57,25 -71,31c-14,6 -32,14 -40,18c-8,4 -78,33 -155,65c-77,32 -163,68 -192,81c-28,13 -55,23 -60,23c-4,-1 -17,-3 -28,-6z"/>
   <path id="svg_15" d="m12956.818181,4760c-3,-5 -8,-20 -10,-32c-3,-12 -11,-26 -20,-30c-22,-13 -20,-87 3,-104c9,-7 36,-14 59,-14c40,0 45,3 72,46c26,43 29,45 36,25c4,-14 -1,-34 -15,-58c-17,-29 -18,-38 -8,-44c24,-15 37,-9 52,24c45,99 35,121 -79,167c-16,7 -38,16 -47,21c-23,12 -35,11 -43,-1zm62,-66c22,-6 22,-7 6,-35c-18,-31 -57,-40 -66,-15c-6,14 18,56 31,56c4,0 17,-3 29,-6z"/>
   <path id="svg_17" d="m13168.818181,4639c-3,-13 -4,-26 -1,-31c10,-16 43,-8 49,13c8,24 7,24 -21,33c-17,5 -23,2 -27,-15z"/>
   <path id="svg_18" d="m13135.818181,4568c-6,-20 15,-48 37,-48c16,0 18,46 2,58c-23,17 -31,15 -39,-10z"/>
   <path id="svg_19" d="m12844.818181,4514c-4,-12 7,-29 43,-61c27,-25 64,-58 81,-74c38,-34 49,-36 58,-8c5,15 -4,30 -42,66l-48,45l66,-5c58,-4 67,-2 78,15c7,11 9,23 6,26c-4,4 -58,9 -121,10c-101,3 -115,2 -121,-14z"/>
   <path id="svg_20" d="m12529.818181,4470c-9,-6 -19,-24 -23,-40c-4,-16 -11,-32 -16,-35c-5,-4 -9,-16 -9,-28c0,-12 -7,-31 -15,-41c-21,-28 -19,-73 4,-85c11,-6 30,-7 47,-2c49,14 131,59 137,76c4,8 -9,45 -28,82c-42,82 -59,95 -97,73z"/>
   <path id="svg_21" d="m12744.818181,4400c-37,-15 -84,-130 -54,-130c5,0 16,-3 25,-6c13,-5 16,1 16,29c0,37 21,67 46,67c18,0 18,-14 -1,-30c-8,-7 -15,-29 -15,-49c0,-58 43,-94 119,-99c54,-4 60,-2 85,24c15,16 26,40 26,56c0,15 5,30 10,33c26,16 3,34 -84,68c-109,43 -142,50 -173,37zm177,-97c25,-12 29,-19 24,-36c-13,-46 -41,-52 -104,-23c-28,13 -40,63 -18,77c16,11 57,3 98,-18z"/>
   <path id="svg_22" d="m5267.818181,4225c-9,-13 -25,-48 -37,-77c-11,-28 -32,-77 -45,-107c-14,-31 -29,-65 -34,-76c-4,-11 -17,-41 -29,-67c-12,-26 -21,-50 -21,-53c0,-3 -9,-27 -21,-53c-12,-26 -26,-58 -31,-72c-6,-14 -14,-33 -19,-42c-23,-45 -24,-45 201,-138c95,-40 180,-75 189,-80c9,-4 27,-12 41,-18c14,-5 47,-20 74,-32c55,-24 79,-23 84,5c2,11 17,49 34,85c16,36 35,76 40,90c15,38 34,81 74,175c13,31 39,95 53,130c5,11 13,31 19,45c23,55 23,64 -6,78c-15,7 -92,40 -172,74c-79,33 -151,64 -160,68c-8,4 -26,12 -40,18c-14,5 -38,15 -55,22c-16,7 -51,20 -77,31l-46,18l-16,-24z"/>
   <path id="svg_23" d="m12717.818181,4194c-3,-9 -6,-19 -6,-23c0,-9 95,-51 115,-51c6,0 20,-9 29,-19c14,-15 15,-24 6,-40c-6,-12 -16,-21 -23,-21c-15,0 -104,33 -113,43c-13,13 -52,7 -58,-9c-9,-24 -7,-34 7,-34c11,0 114,-39 165,-63c24,-11 41,1 42,30c0,6 7,19 16,28c20,20 22,81 3,100c-13,13 -153,75 -169,75c-4,0 -11,-7 -14,-16z"/>
   <path id="svg_24" d="m12660.818181,3997c-55,-21 -77,-111 -40,-158c10,-13 42,-33 70,-43c45,-16 51,-21 45,-40c-9,-29 -9,-29 -43,-12c-16,9 -36,16 -43,16c-7,0 -22,7 -33,16c-16,12 -17,18 -8,34c11,16 9,20 -9,26c-25,8 -48,-17 -48,-52c0,-26 42,-63 81,-71c14,-3 39,-17 55,-31c34,-32 119,-41 129,-13c6,15 -18,41 -37,41c-5,0 -5,11 -2,26c5,18 1,29 -12,39c-16,12 -17,14 -3,15c9,0 28,12 43,26c38,39 37,110 -1,146c-16,14 -46,31 -68,37c-45,12 -41,12 -76,-2zm88,-58c31,-11 45,-42 34,-72c-13,-34 -34,-39 -80,-19c-50,22 -66,45 -50,75c21,39 31,41 96,16z"/>
   <path id="svg_25" d="m5894.818181,3983c-7,-3 -13,-11 -13,-19c0,-14 -4,-23 -27,-69c-29,-57 -213,-507 -213,-520c0,-9 8,-18 18,-21c9,-3 24,-9 33,-14c8,-4 51,-22 95,-40c106,-43 112,-45 164,-68c98,-44 262,-112 270,-112c4,0 11,12 15,27c3,15 18,52 32,83c14,30 32,71 40,90c23,56 30,72 56,130c13,30 37,87 52,125c15,39 37,89 48,113c11,25 16,47 11,52c-5,4 -87,40 -183,80c-96,39 -181,75 -190,80c-18,9 -70,31 -116,50c-16,7 -41,18 -55,25c-14,7 -31,10 -37,8z"/>
   <path id="svg_26" d="m12514.818181,3698c-43,-68 -45,-129 -6,-170l27,-28l-36,0c-45,0 -81,-34 -102,-97c-9,-26 -16,-50 -16,-53c0,-4 42,-24 93,-44c50,-21 101,-42 112,-46c56,-24 64,-23 79,15c20,48 29,99 22,123c-8,25 -57,46 -85,37c-16,-5 -21,-2 -21,13c0,11 -9,26 -21,33c-19,13 -15,14 44,14c57,0 67,3 86,25c31,38 29,102 -6,135c-47,43 -66,34 -92,-40c-24,-69 -34,-77 -51,-46c-21,41 -3,111 29,111c6,0 11,7 11,15c0,19 -55,21 -67,3zm151,-122c-7,-23 -31,-46 -50,-46c-8,0 -5,15 9,45c16,35 23,42 34,33c8,-6 11,-20 7,-32zm-135,-140c12,-14 5,-73 -10,-82c-5,-3 -25,1 -45,8c-31,11 -34,16 -29,38c4,14 11,31 17,37c14,17 53,16 67,-1zm104,-90c-3,-46 -9,-54 -25,-38c-7,7 -20,12 -30,12c-22,0 -23,13 -2,46c11,16 24,24 38,22c18,-3 21,-9 19,-42z"/>
   <path id="svg_28" d="m8805.818181,3303c-3,-10 -12,-31 -19,-48c-90,-198 -90,-185 10,-225c17,-7 42,-19 58,-27c30,-16 47,-10 47,15c0,16 -57,52 -83,52c-7,0 -20,7 -29,14c-15,11 -16,17 -5,39c14,32 13,32 77,7c63,-25 60,-25 60,4c0,20 -9,27 -50,42c-54,19 -57,25 -36,65c7,14 16,37 20,52c6,24 4,27 -19,27c-16,0 -28,-7 -31,-17z"/>
   <path id="svg_29" d="m9002.818181,3196c-61,-65 -44,-165 31,-181c56,-13 92,2 116,46c29,53 28,97 -3,132c-20,22 -32,27 -73,27c-38,0 -53,-5 -71,-24zm118,-45c7,-12 5,-26 -5,-47c-24,-45 -39,-57 -67,-50c-32,8 -42,36 -27,80c18,55 74,65 99,17z"/>
   <path id="svg_30" d="m9901.818181,3190c-6,-10 -10,-28 -10,-38c0,-36 43,-133 65,-148c19,-13 27,-12 69,11c26,14 56,25 66,25c11,0 24,9 30,19c17,33 -4,66 -57,91c-26,12 -57,26 -68,31c-11,5 -35,13 -53,18c-27,8 -34,7 -42,-9z"/>
   <path id="svg_31" d="m9205.818181,3133c-9,-21 -24,-58 -35,-82c-10,-24 -19,-52 -19,-62c0,-20 51,-49 87,-49c33,0 31,36 -2,44c-14,4 -25,12 -25,19c0,16 22,76 38,104c16,30 15,50 -4,57c-24,9 -24,9 -40,-31z"/>
   <path id="svg_32" d="m9308.818181,3062c-23,-24 -27,-37 -27,-83c0,-65 21,-89 84,-96c33,-4 46,0 68,19c14,12 28,31 30,41c3,18 -6,25 -84,63c-28,14 -35,21 -26,31c23,28 78,11 78,-23c0,-19 5,-24 25,-24c34,0 34,39 -1,74c-39,38 -109,37 -147,-2zm91,-129c-22,-27 -78,-3 -78,32c0,12 8,11 45,-2c34,-13 42,-20 33,-30z"/>
   <path id="svg_33" d="m8953.818181,2993c2,-20 9,-28 23,-28c23,0 33,34 13,46c-26,17 -39,10 -36,-18z"/>
   <path id="svg_34" d="m9516.818181,2986c-8,-20 -22,-52 -29,-71c-10,-23 -20,-33 -29,-29c-18,7 -31,-24 -17,-41c6,-7 8,-20 4,-28c-3,-9 1,-26 10,-39l16,-23l12,33c9,24 17,31 30,26c24,-7 37,25 16,40c-13,10 -11,18 11,66c19,40 32,55 46,55c13,0 20,7 20,20c0,16 -8,21 -38,23c-35,3 -39,1 -52,-32z"/>
   <path id="svg_35" d="m9013.818181,2969c-15,-24 -15,-24 15,-33c16,-5 23,-2 28,13c13,41 -21,56 -43,20z"/>
   <path id="svg_36" d="m9613.818181,2971c-34,-29 -22,-111 17,-111c6,0 11,-4 11,-10c0,-5 6,-10 14,-10c7,0 19,-6 25,-14c16,-20 -2,-29 -39,-21c-23,5 -30,12 -30,31c0,19 -5,24 -25,24c-35,0 -34,-41 2,-75c22,-19 38,-25 75,-25l47,0l40,82c22,45 38,85 35,90c-3,4 -18,8 -35,8c-16,0 -29,4 -29,9c0,9 -60,41 -77,41c-6,0 -20,-8 -31,-19zm80,-48c16,-14 26,-63 13,-63c-17,0 -65,46 -65,62c0,23 27,23 52,1z"/>
   <path id="svg_37" d="m9852.818181,2958c-14,-7 -26,-19 -29,-25c-5,-19 27,-28 49,-15c35,22 96,-25 69,-52c-8,-8 -14,-6 -21,7c-7,12 -22,17 -53,17c-33,0 -48,-6 -69,-28c-23,-24 -27,-37 -27,-86c0,-67 22,-96 72,-96c15,0 28,-4 28,-10c0,-17 40,-11 46,8c3,9 11,31 18,47c13,29 22,52 45,108c17,42 13,69 -12,99c-27,32 -82,44 -116,26zm49,-123c24,-29 -8,-115 -44,-115c-7,0 -20,6 -31,13c-14,11 -16,21 -11,50c11,60 57,87 86,52z"/>
   <path id="svg_38" d="m9994.818181,2795c-7,-8 -13,-18 -13,-24c0,-15 30,-22 51,-11c27,15 69,2 69,-22c0,-18 -5,-19 -55,-13c-46,6 -59,4 -75,-10c-29,-26 -26,-69 6,-94c39,-30 124,-27 124,5c0,22 -32,34 -45,17c-9,-13 -16,-13 -33,-4c-12,6 -22,19 -22,28c0,13 8,15 53,10c66,-8 97,9 97,54c0,46 -42,79 -99,79c-27,-1 -51,-7 -58,-15z"/>
   <path id="svg_39" d="m10185.818181,2743c-3,-10 -10,-26 -14,-35c-5,-9 -28,-61 -50,-114c-31,-75 -38,-99 -28,-106c27,-16 33,-7 98,147c7,17 19,42 26,57c18,34 18,54 -2,62c-22,9 -24,8 -30,-11z"/>
   <path id="svg_40" d="m10259.818181,2691c-32,-25 -62,-93 -55,-123c9,-36 43,-66 82,-74c73,-13 125,36 125,119c0,38 -5,49 -31,71c-37,31 -86,34 -121,7zm99,-44c21,-35 -17,-117 -55,-117c-22,0 -52,30 -52,53c0,26 30,76 49,80c22,4 50,-3 58,-16z"/>
   <path id="svg_41" d="m10463.818181,2613c-11,-10 -34,-51 -50,-91c-30,-71 -30,-72 -10,-83c11,-6 20,-9 21,-7c8,16 38,80 51,111c17,38 41,48 64,25c15,-15 15,-42 2,-68c-5,-11 -14,-29 -20,-40c-18,-35 -12,-70 10,-70c11,0 23,8 26,18c6,18 8,23 44,111c18,44 19,55 8,62c-7,5 -17,7 -22,6c-5,-2 -20,7 -34,20c-30,27 -62,29 -90,6z"/>
   <path id="svg_42" d="m10645.818181,2533c-4,-16 -13,-41 -22,-58c-8,-16 -19,-38 -23,-47c-18,-36 -8,-80 15,-65c2,1 13,-6 24,-16c14,-13 32,-17 63,-15c43,3 45,4 76,68c37,73 40,95 17,104c-20,8 -34,-1 -34,-20c0,-15 -5,-26 -33,-79c-18,-34 -53,-40 -70,-13c-9,13 -5,32 16,83c29,70 28,85 -3,85c-13,0 -22,-9 -26,-27z"/>
   <path id="svg_43" d="m10872.818181,2521c-12,-12 -19,-26 -16,-31c8,-13 38,-13 51,0c18,18 64,-9 64,-37c0,-27 -7,-28 -34,-8c-35,26 -75,19 -112,-21c-28,-29 -34,-43 -34,-80c0,-52 33,-94 74,-94c14,0 28,-4 31,-10c3,-5 14,-10 23,-10c12,0 29,30 60,103c23,56 42,112 42,123c0,29 -51,74 -92,81c-28,4 -40,1 -57,-16zm55,-115c17,-18 17,-30 2,-72c-12,-34 -34,-46 -68,-37c-29,8 -27,69 2,100c25,26 43,29 64,9z"/>
   <path id="svg_44" d="m11038.818181,2354c-52,-48 -62,-114 -24,-156c46,-53 118,-49 155,8c13,20 22,37 20,38c-3,2 -35,16 -90,40c-49,22 -42,48 10,44c29,-2 37,-8 42,-28c8,-34 50,-41 50,-8c-1,27 -15,47 -50,71c-36,25 -80,21 -113,-9zm67,-120c22,-13 13,-34 -14,-34c-22,0 -50,25 -50,45c0,14 29,9 64,-11z"/>
  </g>
  <g fill="#ffffff" id="layer102">
   <path id="svg_45" d="m6644.818144,15808.454346c-7,-2 -13,-17 -13,-32c0,-15 -4,-31 -9,-36c-5,-6 -28,-57 -52,-115c-23,-58 -46,-109 -49,-115c-4,-5 -36,-77 -70,-160c-35,-82 -67,-154 -71,-159c-5,-6 -9,-16 -9,-23c0,-7 -9,-32 -19,-56c-11,-23 -34,-78 -52,-122c-17,-44 -42,-102 -54,-130c-12,-27 -34,-76 -49,-108c-14,-32 -26,-61 -26,-64c0,-4 -9,-26 -20,-50c-23,-50 -58,-128 -72,-163c-6,-14 -14,-32 -18,-41c-29,-59 -170,-402 -170,-414c0,-8 -3,-15 -8,-15c-4,0 -15,-23 -25,-51c-10,-28 -32,-81 -49,-117c-16,-37 -39,-87 -49,-111c-11,-24 -29,-64 -39,-90c-10,-25 -31,-75 -48,-111c-16,-36 -55,-128 -87,-205c-31,-77 -66,-159 -76,-182c-10,-24 -19,-45 -19,-48c0,-2 -13,-34 -30,-70c-16,-36 -30,-71 -30,-78c0,-7 -4,-17 -9,-23c-5,-5 -19,-33 -31,-63c-11,-30 -32,-77 -45,-105c-36,-80 -65,-144 -85,-195c-10,-25 -30,-72 -45,-105c-40,-87 -95,-219 -95,-228c0,-4 -12,-33 -26,-65c-42,-93 -59,-133 -128,-294c-46,-109 -171,-399 -186,-434c-5,-11 -18,-42 -30,-70c-12,-27 -25,-59 -30,-70c-5,-11 -30,-72 -55,-135c-26,-63 -55,-133 -65,-155c-43,-95 -70,-156 -70,-161c0,-3 -11,-29 -24,-57c-52,-115 -68,-150 -100,-229c-19,-46 -42,-96 -50,-113c-9,-16 -16,-34 -16,-38c0,-7 -18,-50 -50,-122c-5,-11 -21,-49 -36,-85c-14,-36 -32,-78 -39,-95c-7,-16 -34,-79 -60,-140c-89,-206 -107,-250 -121,-280c-92,-213 -114,-268 -114,-285c0,-19 29,-35 176,-96c48,-20 94,-39 103,-44c9,-4 27,-12 41,-18c14,-6 46,-20 73,-31c26,-12 66,-29 90,-40c23,-10 62,-27 87,-39c25,-11 74,-32 110,-47c36,-15 83,-35 105,-45c22,-10 105,-46 185,-80c79,-34 160,-68 180,-77c19,-9 54,-24 78,-34c23,-11 63,-28 90,-40c26,-11 56,-24 67,-29c11,-5 40,-17 65,-28c25,-11 115,-50 200,-87c85,-37 175,-76 200,-87c25,-11 54,-23 65,-28c11,-5 41,-18 68,-29c26,-12 66,-29 90,-40c23,-10 62,-27 87,-39c25,-11 74,-32 110,-47c36,-15 79,-33 95,-42c17,-8 79,-35 139,-59c59,-25 116,-49 125,-54c16,-8 37,-17 136,-60c60,-26 95,-41 155,-68c25,-11 74,-32 110,-47c62,-26 91,-39 190,-83c25,-11 85,-37 134,-57c49,-20 96,-40 105,-45c9,-4 27,-12 41,-18c14,-6 46,-20 73,-31c26,-12 68,-30 95,-42c26,-11 54,-24 63,-29c9,-5 68,-30 130,-55c63,-26 119,-50 124,-54c6,-4 42,-20 80,-36c64,-25 94,-39 220,-95c170,-76 173,-77 199,-12c11,26 27,65 37,87c10,22 39,92 64,155c44,107 84,201 142,327c12,28 23,54 23,57c0,5 44,106 60,136c4,9 51,121 105,250c53,129 106,254 116,277c11,24 35,82 55,130c20,49 39,93 43,98c4,6 13,26 21,45c15,40 35,87 79,183c17,37 31,73 31,80c0,7 4,17 9,22c5,6 46,100 91,210c46,110 94,223 106,252c13,28 24,54 24,57c0,3 18,44 40,91c22,47 40,88 40,91c0,3 9,24 19,47c10,23 31,70 45,105c15,34 40,92 56,128c17,35 30,70 30,77c0,7 4,17 9,22c6,6 38,80 72,165c33,85 65,160 68,165c4,6 13,26 21,45c7,19 21,54 31,78c11,23 27,61 38,85c10,23 27,62 39,87c11,25 32,74 47,110c15,36 33,79 40,95c8,17 25,55 38,85c13,30 39,91 57,135c17,44 41,103 52,130c21,52 29,70 73,170c15,33 34,78 42,100c17,45 76,180 104,236c4,9 29,67 54,129c25,62 50,120 54,129c5,9 14,30 21,46c7,17 18,44 25,60c7,17 32,77 56,135c23,58 52,128 65,155c12,28 34,76 48,108c14,32 26,60 26,63c0,3 11,29 24,57c54,120 69,155 166,388c56,134 109,262 119,284c58,130 81,187 81,206c0,15 -14,26 -57,45c-32,14 -71,32 -88,39c-16,7 -56,25 -87,39c-31,14 -61,26 -67,26c-5,0 -22,7 -38,15c-53,28 -184,85 -197,85c-6,0 -16,4 -21,9c-6,5 -50,26 -99,46c-49,20 -96,40 -105,45c-9,4 -27,12 -41,18c-14,6 -46,20 -72,31c-27,12 -69,30 -95,42c-27,11 -57,25 -68,29c-11,5 -45,20 -75,33c-30,14 -75,33 -100,43c-25,9 -49,20 -55,25c-5,4 -61,28 -124,54c-62,25 -121,50 -130,55c-16,8 -37,17 -136,60c-63,27 -96,41 -167,74c-31,14 -59,26 -62,26c-6,0 -107,45 -137,60c-9,5 -55,24 -103,44c-47,20 -107,45 -134,57c-54,23 -96,42 -132,57c-14,5 -46,20 -72,31c-27,12 -69,30 -95,42c-27,11 -57,25 -68,29c-11,5 -50,22 -88,39c-37,17 -69,31 -72,31c-3,0 -34,13 -68,29c-34,16 -102,46 -151,66c-49,20 -96,40 -105,45c-9,4 -27,12 -41,18c-14,6 -52,22 -85,37c-33,15 -73,33 -90,40c-16,7 -55,24 -85,37c-30,14 -86,38 -125,53c-38,16 -74,32 -80,36c-5,4 -49,23 -98,43c-83,34 -117,49 -234,102c-28,13 -54,24 -57,24c-3,0 -31,12 -63,26c-202,92 -351,154 -370,153c-10,0 -24,-3 -30,-6zm709,-435c103,-58 103,-227 1,-288c-49,-29 -139,-27 -183,3c-58,39 -75,71 -75,140c0,69 23,111 80,147c43,28 125,27 177,-2zm508,-213c42,-29 80,-94 80,-137c0,-31 -23,-85 -47,-114c-34,-38 -70,-54 -128,-54c-184,0 -238,235 -73,319c55,28 114,24 168,-14zm483,-206c49,-32 87,-95 87,-143c0,-41 -49,-125 -83,-142c-80,-42 -196,-19 -236,47c-97,159 79,340 232,238zm507,-221c72,-53 91,-143 48,-220c-85,-151 -318,-90 -318,83c0,75 49,144 115,162c42,12 123,-1 155,-25zm-2250,-20c103,-76 90,-232 -23,-287c-55,-27 -99,-27 -154,0c-135,65 -121,260 22,311c38,14 122,1 155,-24zm2726,-179c124,-76 106,-252 -31,-305c-54,-20 -98,-15 -153,20c-102,64 -98,212 7,283c45,31 130,32 177,2zm-2939,-315c22,-15 48,-42 57,-61c37,-77 8,-182 -61,-223c-49,-29 -139,-27 -183,3c-58,39 -75,71 -75,140c0,70 24,114 79,148c48,29 131,26 183,-7zm810,-48c43,-30 71,-73 79,-125c5,-31 1,-49 -21,-90c-37,-66 -78,-91 -154,-91c-48,0 -65,5 -98,29c-42,30 -73,89 -73,138c0,43 39,112 78,138c51,35 138,35 189,1zm3243,-102c23,-15 48,-44 60,-68c21,-45 27,-111 10,-121c-5,-3 -10,-13 -10,-21c0,-25 -51,-73 -96,-90c-150,-57 -291,117 -204,251c33,50 78,74 143,74c46,1 65,-4 97,-25zm-2913,-48c70,-48 100,-134 70,-199c-48,-100 -148,-142 -235,-98c-64,33 -102,93 -102,159c0,42 40,112 79,137c52,34 138,34 188,1zm-1354,-297c49,-32 87,-94 87,-143c0,-15 -9,-43 -19,-64c-49,-95 -143,-127 -239,-81c-128,63 -116,256 20,306c58,20 101,16 151,-18zm825,-36c37,-28 70,-78 78,-121c9,-49 -34,-133 -85,-163c-128,-77 -279,27 -256,177c7,48 66,119 107,127c49,11 129,0 156,-20zm1399,-64c55,-27 82,-66 90,-128c16,-136 -126,-233 -247,-169c-63,34 -90,77 -90,146c0,132 126,209 247,151zm-1074,-80c49,-32 87,-94 87,-143c0,-15 -9,-43 -19,-64c-49,-95 -143,-127 -239,-81c-128,63 -116,256 20,306c58,20 101,16 151,-18zm1948,-252c51,-27 76,-66 85,-130c18,-131 -127,-228 -246,-165c-64,35 -90,77 -90,147c0,70 30,119 92,150c56,27 104,27 159,-2zm-1223,-34c15,-11 38,-35 50,-54c20,-28 23,-44 20,-94c-4,-72 -32,-116 -93,-145c-54,-26 -99,-25 -155,4c-118,60 -117,231 1,294c54,29 134,27 177,-5zm-2088,-26c71,-37 108,-134 77,-200c-48,-100 -148,-142 -235,-98c-52,27 -79,59 -93,111c-22,83 20,168 96,195c58,21 106,18 155,-8zm817,-20c56,-38 77,-83 71,-152l-5,-56l31,29c111,104 278,40 293,-111c5,-57 -30,-124 -80,-150c-79,-41 -152,-32 -213,26c-50,45 -63,113 -37,184c3,10 -13,-1 -36,-24c-63,-63 -154,-71 -222,-21c-47,35 -69,78 -69,137c0,138 153,217 267,138zm2813,-80c28,-15 51,-36 63,-61c24,-45 34,-120 18,-130c-6,-4 -11,-15 -11,-24c-1,-24 -59,-77 -99,-91c-132,-44 -258,72 -221,204c30,108 148,156 250,102zm-1248,-3c84,-43 124,-126 99,-202c-36,-107 -149,-151 -251,-99c-54,27 -85,80 -85,148c0,116 138,204 237,153zm2066,-65c25,-13 54,-37 69,-60c22,-33 25,-47 21,-96c-5,-70 -33,-114 -93,-143c-53,-26 -98,-25 -153,1c-72,35 -105,114 -82,200c27,99 139,145 238,98zm-1356,-243c94,-40 132,-140 87,-232c-46,-97 -183,-124 -264,-53c-42,37 -70,106 -61,151c10,51 50,103 98,127c50,25 92,27 140,7zm-1190,-28c103,-58 103,-227 1,-288c-49,-29 -139,-27 -183,3c-58,39 -75,71 -75,140c0,69 23,111 80,147c43,28 125,27 177,-2zm-2103,-49c44,-32 61,-63 68,-119c16,-133 -120,-229 -242,-170c-137,66 -125,261 20,312c38,13 122,1 154,-23zm798,-1c64,-29 113,-100 113,-163l0,-24l43,24c84,49 184,29 241,-48c29,-40 30,-144 0,-184c-37,-50 -81,-73 -141,-73c-107,0 -173,63 -173,166l0,48l-28,-27c-52,-50 -129,-60 -200,-26c-128,62 -115,263 20,306c46,15 92,15 125,1zm2831,-89c25,-13 54,-37 69,-60c22,-33 25,-47 21,-96c-5,-71 -33,-114 -96,-144c-121,-59 -255,38 -239,173c8,61 35,100 89,127c54,27 100,27 156,0zm-1200,-19c45,-33 62,-63 69,-120c9,-75 -23,-132 -93,-166c-65,-32 -110,-29 -171,9c-50,32 -73,75 -73,139c0,75 42,138 106,158c50,16 126,6 162,-20zm2040,-73c89,-66 108,-169 45,-246c-38,-45 -73,-61 -138,-61c-73,0 -127,32 -155,94c-25,57 -25,75 2,138c29,69 73,97 154,97c48,1 66,-4 92,-22zm-1367,-240c56,-30 82,-75 83,-142l1,-53l33,34c48,49 131,68 189,42c75,-34 108,-90 101,-171c-5,-65 -36,-109 -93,-137c-54,-26 -99,-25 -155,4c-57,29 -84,74 -85,142l0,52l-33,-34c-57,-59 -146,-68 -218,-23c-52,32 -74,73 -74,139c0,69 30,118 92,149c56,27 104,27 159,-2zm-1208,-41c43,-33 57,-60 67,-127c4,-30 8,-48 9,-42c0,7 19,24 41,38c56,36 139,35 192,-1c42,-29 78,-94 78,-141c0,-44 -39,-111 -80,-139c-50,-34 -135,-34 -191,2c-48,30 -83,98 -77,149l4,33l-23,-24c-51,-55 -129,-68 -200,-33c-135,65 -121,260 22,311c40,14 123,1 158,-26zm-2124,4c126,-64 134,-227 15,-301c-58,-35 -163,-21 -214,30c-46,46 -54,149 -16,209c27,43 95,82 144,82c18,0 50,-9 71,-20zm4469,-191c25,-13 54,-37 69,-60c22,-33 25,-47 21,-96c-3,-41 -11,-68 -28,-91c-29,-38 -94,-72 -140,-72c-47,0 -119,37 -140,73c-92,151 59,322 218,246zm-1371,-250c58,-22 112,-99 113,-160c0,-52 -49,-122 -104,-149c-54,-26 -95,-25 -151,1c-101,48 -124,188 -44,268c46,46 125,63 186,40zm-3289,-93c50,-34 72,-74 72,-130c0,-138 -124,-215 -248,-155c-71,35 -105,114 -82,197c29,108 163,154 258,88zm3657,-69c53,-36 75,-77 75,-141c0,-91 -57,-153 -151,-163c-68,-7 -118,14 -157,65c-23,30 -27,45 -27,96c1,84 23,121 88,152c64,31 118,28 172,-9zm814,-93c41,-26 81,-100 81,-146c0,-13 -13,-46 -29,-73c-49,-85 -140,-116 -220,-75c-125,63 -134,225 -16,300c46,30 134,27 184,-6zm-3759,-139c43,-30 80,-95 80,-139c0,-41 -49,-125 -83,-142c-15,-8 -50,-18 -76,-21c-123,-14 -216,93 -181,210c33,114 163,159 260,92zm327,-139c70,-48 100,-134 70,-199c-48,-100 -148,-142 -235,-98c-64,33 -102,93 -102,159c0,42 40,112 79,137c52,34 138,34 188,1zm-1238,-27c75,-55 93,-145 46,-225c-28,-47 -90,-84 -143,-84c-41,0 -118,36 -138,64c-23,34 -36,96 -29,143c5,34 16,54 46,83c45,43 62,49 134,46c35,-2 61,-10 84,-27zm4448,-160c79,-38 115,-130 83,-214c-23,-61 -92,-105 -164,-105c-44,0 -115,38 -136,73c-92,151 60,322 217,246zm-2498,-120c45,-33 62,-64 68,-122c10,-104 -64,-182 -173,-182c-61,0 -123,36 -148,86c-20,40 -21,121 -2,158c16,30 70,75 101,84c41,12 123,-1 154,-24zm-1273,-40c52,-25 83,-71 90,-136c15,-130 -129,-223 -246,-161c-63,34 -90,77 -90,145c0,30 6,66 14,81c44,84 143,115 232,71zm1575,-83c61,-26 109,-97 109,-163c0,-39 -41,-114 -74,-134c-66,-40 -169,-34 -219,14c-34,31 -61,109 -53,149c10,51 50,103 98,127c50,24 92,27 139,7zm-1244,-37c58,-22 112,-99 113,-160c0,-78 -95,-169 -177,-169c-89,0 -173,82 -173,170c0,115 127,201 237,159zm-1220,-53c50,-35 73,-77 73,-137c0,-103 -67,-169 -171,-169c-60,0 -106,24 -141,73c-18,25 -23,46 -23,94c0,69 17,101 75,141c48,32 138,31 187,-2zm4472,-151c41,-28 81,-96 81,-140c0,-41 -48,-122 -87,-145c-24,-14 -52,-20 -92,-20c-48,0 -65,5 -98,29c-42,30 -73,89 -73,138c0,43 39,112 78,138c52,35 137,35 191,0zm-1274,-86c49,-33 75,-80 75,-136c0,-154 -178,-230 -289,-123c-46,45 -60,100 -41,170c28,105 162,151 255,89zm-1272,-5c114,-58 141,-186 58,-272c-66,-68 -183,-70 -249,-4c-29,29 -56,107 -49,142c10,50 51,104 98,127c52,27 98,29 142,7zm-1224,-85c44,-32 61,-63 68,-119c9,-75 -24,-135 -91,-166c-28,-13 -64,-24 -80,-24c-45,0 -116,41 -142,82c-57,90 -8,224 91,251c41,12 123,-1 154,-24zm2829,-46c48,-35 72,-81 72,-136c0,-125 -120,-209 -231,-163c-78,33 -117,105 -104,192c7,48 66,119 107,127c49,11 129,0 156,-20zm-1269,-23c126,-64 134,-227 15,-301c-58,-35 -163,-21 -214,30c-67,67 -48,214 34,259c67,37 111,40 165,12zm-1241,-54c89,-46 118,-168 58,-249c-34,-47 -77,-67 -140,-67c-96,0 -155,54 -173,157c-7,43 32,119 77,149c42,27 135,32 178,10zm-1242,-17c33,-15 49,-32 68,-72c39,-78 32,-124 -31,-193c-88,-97 -250,-54 -284,76c-37,143 110,256 247,189zm4473,-190c75,-55 93,-145 46,-225c-28,-47 -90,-84 -143,-84c-41,0 -118,36 -138,64c-23,34 -36,96 -29,143c5,34 16,54 46,83c45,43 62,49 134,46c35,-2 61,-10 84,-27zm-1286,-33c73,-30 121,-127 97,-194c-20,-55 -49,-90 -95,-112c-70,-34 -142,-21 -198,35c-25,25 -47,79 -47,115c0,119 131,203 243,156zm-1211,-52c40,-28 78,-94 78,-137c0,-44 -40,-116 -79,-143c-51,-34 -136,-34 -191,1c-43,27 -80,93 -80,142c0,41 42,114 81,140c51,33 140,32 191,-3zm1567,-99c41,-28 81,-96 81,-140c0,-41 -48,-122 -87,-145c-24,-14 -52,-20 -92,-20c-48,0 -65,5 -98,29c-42,30 -73,89 -73,138c0,43 39,112 78,138c52,35 137,35 191,0zm-1258,-19c80,-34 125,-127 99,-205c-37,-112 -169,-154 -270,-87c-53,35 -79,112 -61,179c28,98 139,152 232,113zm-2446,-117c95,-64 102,-203 14,-270c-72,-55 -164,-51 -228,11c-46,45 -60,100 -41,170c28,105 162,151 255,89zm4422,-173c50,-35 73,-77 73,-137c0,-103 -67,-169 -171,-169c-60,0 -106,24 -141,73c-18,25 -23,46 -23,94c0,69 17,101 75,141c48,32 138,31 187,-2zm-1257,-72c42,-28 80,-93 80,-136c0,-31 -23,-85 -47,-114c-34,-39 -70,-54 -131,-54c-49,0 -66,5 -99,29c-42,30 -73,89 -73,138c0,43 39,112 79,138c53,35 137,34 191,-1zm316,-130c57,-38 72,-58 86,-108c37,-138 -111,-249 -249,-186c-126,57 -118,241 12,301c57,26 105,24 151,-7zm-3069,-28c78,-53 98,-154 47,-233c-65,-99 -215,-99 -286,0c-18,25 -23,46 -23,94c0,69 17,101 75,141c48,32 138,31 187,-2zm3810,-252c22,-15 48,-42 57,-61c38,-79 6,-187 -66,-224c-53,-27 -135,-26 -178,4c-58,39 -75,71 -75,142c0,71 17,103 75,143c49,33 132,31 187,-4zm-2117,-436c58,-40 75,-72 75,-141c0,-50 -5,-68 -25,-95c-39,-53 -79,-72 -146,-72c-79,1 -129,34 -156,105c-30,77 -5,155 64,202c47,31 142,32 188,1zm1871,-42c80,-34 125,-127 99,-205c-37,-112 -169,-154 -270,-87c-53,35 -79,112 -61,179c28,98 139,152 232,113zm-1530,-130c80,-34 125,-127 99,-205c-37,-112 -169,-154 -270,-87c-53,35 -79,112 -61,179c28,98 139,152 232,113zm532,-267c48,-32 87,-94 87,-141c0,-66 -55,-140 -116,-157c-115,-32 -211,22 -229,130c-13,74 28,147 100,180c59,27 104,24 158,-12zm525,-246c105,-78 94,-233 -21,-291c-52,-26 -96,-28 -140,-6c-79,40 -115,106 -102,190c7,48 66,119 107,127c49,11 129,0 156,-20z"/>
   <path id="svg_46" d="m7153.818144,15309.454346c-18,-12 -22,-25 -22,-70c0,-45 4,-59 25,-80c26,-26 60,-26 77,0c12,18 9,31 -4,18c-7,-7 -24,-12 -39,-12c-27,0 -39,15 -39,48c0,12 3,13 12,4c32,-32 95,10 83,56c-11,49 -52,65 -93,36zm66,-16c30,-30 0,-75 -43,-64c-19,5 -25,13 -25,35c0,38 41,56 68,29z"/>
   <path id="svg_47" d="m7297.818144,15310.454346c-20,-20 -22,-123 -3,-149c15,-20 62,-25 79,-8c17,17 21,113 6,142c-16,30 -59,38 -82,15zm62,-17c14,-14 16,-96 3,-116c-4,-8 -19,-12 -32,-10c-21,3 -24,9 -27,47c-2,25 -1,55 3,68c6,25 33,31 53,11z"/>
   <path id="svg_48" d="m7660.818144,15096.454346c-13,-11 -20,-23 -16,-27c4,-5 12,-3 16,5c5,7 21,11 37,9c26,-3 29,-7 29,-38c0,-35 0,-35 -42,-34c-47,1 -50,-4 -32,-55c10,-28 15,-31 50,-31c21,0 39,5 39,10c0,6 -15,10 -34,10c-25,0 -35,5 -39,20c-4,17 0,20 23,20c31,0 60,31 60,63c0,19 -42,67 -58,67c-6,0 -20,-9 -33,-19z"/>
   <path id="svg_49" d="m7800.818144,15094.454346c-23,-23 -18,-39 5,-20c23,19 60,10 64,-16c3,-18 -1,-21 -29,-20c-26,2 -36,-4 -48,-25c-14,-25 -14,-31 -1,-55c19,-34 43,-40 75,-19c22,14 25,24 25,76c0,51 -3,61 -26,79c-33,26 -39,26 -65,0zm66,-109c0,-38 -24,-52 -50,-30c-31,25 -9,73 30,68c16,-2 20,-11 20,-38z"/>
   <path id="svg_50" d="m8143.818144,14893.454346c-6,-6 -12,-19 -12,-27c1,-14 3,-13 14,2c21,27 64,22 72,-8c11,-44 -1,-58 -47,-52l-41,5l7,-36c4,-20 9,-40 11,-44c8,-12 84,-10 84,2c0,6 -15,10 -34,10c-22,0 -36,6 -40,16c-9,23 -9,22 26,26c23,2 37,11 48,31c13,24 13,30 0,55c-17,30 -66,42 -88,20z"/>
   <path id="svg_51" d="m8281.818144,14886.454346c-13,-25 -13,-58 0,-66c5,-3 7,-19 3,-35c-3,-18 0,-36 7,-45c31,-38 102,5 79,48c-8,13 -8,22 0,30c15,15 14,60 -1,75c-20,20 -76,15 -88,-7zm75,-36c0,-27 -3,-30 -30,-30c-21,0 -31,5 -33,18c-6,33 6,49 35,45c24,-3 28,-8 28,-33zm-5,-80c0,-20 -5,-25 -25,-25c-20,0 -25,5 -25,25c0,20 5,25 25,25c20,0 25,-5 25,-25z"/>
   <path id="svg_52" d="m8640.818144,14684.454346c-11,-11 -18,-23 -15,-27c4,-3 12,0 18,6c7,7 25,12 41,12c27,0 28,-2 25,-37c-3,-38 -3,-38 -44,-36l-42,2l9,-37c5,-20 9,-40 9,-44c0,-12 90,-9 90,2c0,6 -15,10 -34,10c-22,0 -36,6 -40,16c-10,27 -7,31 22,26c54,-8 78,73 33,110c-30,23 -46,23 -72,-3z"/>
   <path id="svg_53" d="m8791.818144,14683.454346c0,-27 35,-106 57,-130c15,-17 13,-18 -35,-18c-29,0 -52,-4 -52,-10c0,-6 27,-10 60,-10c33,0 60,2 60,4c0,3 -14,27 -31,54c-17,27 -33,68 -36,91c-6,43 -23,57 -23,19z"/>
   <path id="svg_54" d="m6404.818144,14660.454346c-43,-30 -41,-133 3,-162c28,-18 69,-11 78,13c9,24 -3,33 -15,11c-13,-22 -42,-22 -62,1c-20,22 -17,109 4,123c32,20 63,-3 57,-43c-2,-18 -10,-24 -36,-26c-39,-4 -33,-22 8,-22c50,0 70,75 28,104c-28,20 -38,20 -65,1z"/>
   <path id="svg_55" d="m6581.818144,14599.454346c0,-67 -2,-75 -15,-64c-9,7 -18,10 -22,6c-3,-3 -4,-7 -2,-8c2,-2 16,-14 32,-27l27,-24l0,96c0,58 -4,97 -10,97c-6,0 -10,-32 -10,-76z"/>
   <path id="svg_56" d="m9117.818144,14453.454346c-9,-12 -13,-24 -10,-27c3,-3 10,2 15,12c12,21 52,22 69,2c7,-9 10,-25 6,-41c-7,-25 -10,-26 -50,-21l-43,6l10,-44c10,-45 11,-45 54,-45c24,0 43,5 43,10c0,6 -15,10 -34,10c-22,0 -36,6 -40,16c-9,24 -8,26 14,19c31,-10 74,38 65,73c-10,39 -24,52 -56,52c-17,0 -34,-8 -43,-22z"/>
   <path id="svg_57" d="m9262.818144,14461.454346c-29,-34 -26,-120 5,-150c23,-23 71,-20 84,5c14,25 3,41 -11,16c-13,-23 -56,-22 -69,2c-17,33 -13,42 14,30c51,-24 94,36 62,86c-19,28 -66,34 -85,11zm74,-40c0,-36 -27,-56 -52,-40c-40,25 -20,77 26,72c21,-2 26,-8 26,-32z"/>
   <path id="svg_58" d="m6167.818144,14143.454346c-23,-33 -21,-109 4,-136c21,-22 55,-28 76,-14c14,9 26,42 15,42c-5,0 -11,-7 -15,-15c-8,-22 -53,-19 -66,4c-17,33 -13,42 14,30c51,-24 94,36 62,86c-21,33 -69,34 -90,3zm82,-26c4,-28 -14,-52 -38,-52c-26,0 -43,26 -36,55c6,22 11,26 39,23c25,-2 33,-8 35,-26z"/>
   <path id="svg_59" d="m6297.818144,14152.454346c2,-7 25,-30 50,-51c36,-30 45,-43 42,-64c-2,-21 -9,-28 -29,-30c-15,-2 -34,4 -43,14c-23,22 -29,13 -10,-14c16,-24 53,-29 85,-12c33,18 24,59 -23,107l-42,43l42,0c23,0 42,5 42,10c0,6 -27,10 -60,10c-45,0 -58,-3 -54,-13z"/>
   <path id="svg_60" d="m6987.818144,14109.454346c-9,-8 -16,-20 -16,-25c0,-15 17,-10 24,6c3,8 17,15 30,15c19,0 27,-7 32,-25c12,-48 -20,-80 -58,-56c-28,18 -32,8 -18,-44c12,-43 14,-45 51,-45c28,0 39,4 39,15c0,10 -11,15 -35,15c-28,0 -35,4 -35,20c0,13 5,18 15,14c26,-11 65,23 65,56c0,55 -59,89 -94,54z"/>
   <path id="svg_61" d="m7127.818144,14103.454346c-20,-28 -12,-36 13,-14c32,29 56,17 56,-29c0,-36 -2,-40 -25,-39c-14,1 -32,4 -42,8c-15,7 -15,3 -4,-41c12,-47 13,-48 54,-51c32,-2 42,0 42,12c0,10 -12,16 -37,18c-27,2 -39,8 -41,21c-3,14 1,17 21,12c31,-8 71,37 61,69c-17,55 -70,74 -98,34z"/>
   <path id="svg_62" d="m10261.818144,13955.454346c0,-68 -1,-70 -20,-60c-29,16 -24,-2 10,-35l30,-29l0,97c0,58 -4,97 -10,97c-6,0 -10,-30 -10,-70z"/>
   <path id="svg_63" d="m10421.818144,14005.454346c0,-17 -7,-20 -40,-20c-24,0 -40,-5 -40,-12c0,-16 80,-138 91,-138c5,0 9,29 9,64c0,42 4,66 13,70c10,5 10,7 0,12c-7,3 -13,14 -13,25c0,10 -4,19 -10,19c-5,0 -10,-9 -10,-20zm0,-80c0,-22 -2,-40 -5,-40c-6,0 -45,62 -45,73c0,4 11,7 25,7c23,0 25,-4 25,-40z"/>
   <path id="svg_64" d="m7371.818144,13945.454346c0,-17 -7,-20 -40,-20c-22,0 -40,-4 -40,-10c0,-18 75,-129 88,-130c8,0 12,18 12,59c0,38 5,61 13,65c10,5 10,7 0,12c-7,3 -13,14 -13,25c0,10 -4,19 -10,19c-5,0 -10,-9 -10,-20zm0,-80c0,-22 -2,-40 -4,-40c-5,0 -46,65 -46,74c0,3 11,6 25,6c23,0 25,-4 25,-40z"/>
   <path id="svg_65" d="m7441.818144,13954.454346c0,-6 18,-27 41,-47c52,-47 64,-69 48,-88c-15,-19 -48,-18 -71,3c-15,13 -18,14 -18,2c0,-43 78,-55 104,-17c9,12 16,26 16,31c0,4 -21,30 -46,57l-47,50l47,0c25,0 46,5 46,10c0,6 -27,10 -60,10c-36,0 -60,-4 -60,-11z"/>
   <path id="svg_66" d="m5971.818144,13655.454346c-15,-15 -20,-33 -20,-74c0,-47 4,-57 26,-75c34,-26 49,-26 75,0c25,25 17,39 -9,16c-25,-22 -49,-21 -62,2c-16,31 -12,37 24,33c59,-7 84,59 40,103c-21,21 -50,19 -74,-5zm70,-15c7,-9 10,-25 6,-40c-6,-22 -11,-26 -39,-23c-25,2 -33,8 -35,26c-7,44 41,70 68,37z"/>
   <path id="svg_67" d="m6120.818144,13656.454346c-13,-11 -20,-23 -16,-28c5,-4 14,0 21,10c16,21 39,22 56,2c17,-21 9,-48 -20,-62l-25,-13l23,-6c25,-7 30,-41 7,-51c-9,-3 -25,3 -35,12c-11,10 -23,15 -28,11c-9,-9 35,-46 54,-46c8,0 23,9 34,20c17,17 18,24 9,41c-8,15 -8,24 0,32c19,19 13,65 -11,81c-29,21 -41,20 -69,-3z"/>
   <path id="svg_68" d="m6790.818144,13624.454346c-25,-25 -17,-39 9,-16c33,30 72,15 72,-29c0,-35 -26,-50 -62,-36l-30,11l6,-41c4,-23 9,-45 12,-50c7,-12 84,-10 84,2c0,6 -15,10 -34,10c-22,0 -36,6 -40,16c-11,28 -6,35 18,28c28,-7 66,25 66,55c0,26 -38,71 -61,71c-10,0 -28,-9 -40,-21z"/>
   <path id="svg_69" d="m6991.818144,13625.454346c0,-17 -7,-20 -40,-20c-24,0 -40,-5 -40,-12c0,-16 80,-138 91,-138c5,0 9,27 9,60c0,33 4,60 10,60c6,0 10,7 10,15c0,8 -4,15 -10,15c-5,0 -10,9 -10,20c0,11 -4,20 -10,20c-5,0 -10,-9 -10,-20zm0,-92c0,-45 -4,-44 -36,15c-14,26 -14,27 11,27c23,0 25,-4 25,-42z"/>
   <path id="svg_70" d="m8191.818144,13565.454346c0,-6 23,-32 50,-59c51,-50 59,-68 38,-89c-16,-16 -34,-15 -52,4c-9,8 -21,14 -28,12c-20,-7 29,-48 57,-48c28,0 65,32 65,56c0,9 -20,37 -45,62c-25,24 -45,46 -45,48c0,2 20,4 45,4c25,0 45,5 45,10c0,6 -28,10 -65,10c-38,0 -65,-4 -65,-10z"/>
   <path id="svg_71" d="m8356.818144,13553.454346c-19,-29 -2,-37 25,-13c16,15 22,15 35,5c8,-7 15,-20 15,-29c0,-13 -7,-16 -35,-13c-30,4 -36,1 -45,-23c-14,-38 -13,-52 10,-75c46,-46 100,-9 100,69c0,84 -66,134 -105,79zm73,-106c2,-22 -2,-34 -12,-38c-22,-8 -46,13 -46,41c0,28 9,37 35,33c15,-2 21,-12 23,-36z"/>
   <path id="svg_72" d="m7179.818144,13483.454346c-2,-19 -10,-24 -40,-26c-21,-2 -38,-8 -38,-14c0,-19 74,-128 88,-128c8,0 12,18 12,59c0,38 5,61 13,65c10,5 10,7 0,12c-7,3 -13,14 -13,24c0,28 -18,34 -22,8zm2,-88c0,-22 -2,-40 -4,-40c-2,0 -15,18 -30,40l-26,40l30,0c28,0 30,-2 30,-40z"/>
   <path id="svg_73" d="m7270.818144,13486.454346c-13,-11 -21,-23 -17,-27c4,-4 14,-1 22,5c8,7 25,11 38,9c18,-2 23,-9 23,-33c0,-23 -5,-31 -22,-33c-29,-4 -30,-18 -2,-25c13,-4 20,-12 17,-24c-4,-23 -46,-30 -54,-9c-7,17 -24,22 -24,7c0,-16 31,-41 51,-41c10,0 28,9 39,20c17,17 18,24 9,41c-8,15 -8,24 0,32c15,15 14,49 -1,69c-21,27 -53,30 -79,9z"/>
   <path id="svg_74" d="m9061.818144,13227.454346c0,-4 23,-30 50,-57c52,-52 60,-79 28,-99c-13,-8 -22,-6 -37,8c-29,26 -50,15 -23,-12c27,-27 66,-28 92,-2c29,29 25,45 -26,100l-47,50l47,0c25,0 46,5 46,10c0,6 -28,10 -65,10c-36,0 -65,-4 -65,-8z"/>
   <path id="svg_75" d="m9227.818144,13213.454346c-20,-28 -20,-52 -1,-68c12,-10 12,-16 4,-26c-17,-21 -2,-63 25,-70c48,-12 88,40 56,72c-8,8 -6,15 5,24c19,16 19,54 -1,74c-23,24 -70,20 -88,-6zm69,-33c0,-25 -4,-30 -25,-30c-19,0 -26,6 -28,24c-4,25 13,43 38,38c9,-1 15,-13 15,-32zm1,-76c8,-14 -21,-43 -35,-35c-6,4 -11,16 -11,27c0,21 34,27 46,8z"/>
   <path id="svg_76" d="m7901.818144,13195.454346c0,-16 -7,-20 -34,-20c-19,0 -37,-4 -41,-9c-6,-11 73,-141 86,-141c5,0 9,27 9,60c0,33 4,60 10,60c6,0 10,7 10,15c0,8 -4,15 -10,15c-5,0 -10,9 -10,20c0,11 -4,20 -10,20c-5,0 -10,-9 -10,-20zm0,-87c-1,-36 -1,-37 -16,-18c-35,45 -36,55 -9,55c22,0 25,-4 25,-37z"/>
   <path id="svg_77" d="m8031.818144,13145.454346c0,-70 -5,-81 -28,-58c-7,7 -12,8 -12,2c0,-6 14,-23 30,-39l30,-29l0,97c0,58 -4,97 -10,97c-6,0 -10,-30 -10,-70z"/>
   <path id="svg_78" d="m5768.818144,13157.454346c-22,-24 -23,-109 -1,-140c26,-37 95,-25 94,18c-1,13 -3,12 -14,-2c-16,-22 -62,-23 -70,-2c-13,34 -7,44 18,33c49,-23 89,26 64,78c-17,35 -66,43 -91,15zm71,-14c30,-30 0,-75 -43,-64c-19,5 -25,13 -25,35c0,15 3,31 7,34c11,11 48,8 61,-5z"/>
   <path id="svg_79" d="m5971.818144,13155.454346c0,-17 -7,-20 -40,-20c-24,0 -40,-5 -40,-12c0,-19 74,-128 88,-128c8,0 12,18 12,59c0,38 5,61 13,65c10,5 10,7 0,12c-7,3 -13,14 -13,25c0,10 -4,19 -10,19c-5,0 -10,-9 -10,-20zm0,-80c0,-22 -2,-40 -4,-40c-5,0 -46,65 -46,74c0,3 11,6 25,6c23,0 25,-4 25,-40z"/>
   <path id="svg_80" d="m6573.818144,13159.454346c-12,-8 -22,-23 -22,-32c1,-16 2,-16 14,1c18,24 63,22 71,-3c3,-11 3,-30 0,-41c-6,-18 -13,-21 -47,-16l-40,5l6,-30c3,-17 6,-37 6,-44c0,-10 13,-14 45,-14c25,0 45,5 45,10c0,6 -15,10 -34,10c-22,0 -36,6 -40,16c-9,23 -8,24 24,24c58,0 77,80 27,115c-26,19 -28,19 -55,-1z"/>
   <path id="svg_81" d="m6720.818144,13162.454346c-13,-7 -26,-21 -28,-32c-3,-19 -3,-19 17,-2c11,10 31,17 44,15c18,-2 23,-9 23,-33c0,-23 -5,-31 -22,-33c-29,-4 -30,-18 -2,-25c13,-4 20,-12 17,-24c-5,-24 -39,-29 -55,-7c-15,20 -26,14 -17,-10c8,-20 52,-32 73,-19c19,12 28,63 10,63c-8,0 -6,6 4,18c43,47 -8,116 -64,89z"/>
   <path id="svg_82" d="m6931.818144,12985.454346c0,-17 -7,-20 -40,-20c-22,0 -40,-4 -40,-9c0,-15 83,-141 92,-141c4,0 8,26 8,58c0,33 5,64 13,71c10,11 10,14 0,18c-7,3 -13,13 -13,24c0,10 -4,19 -10,19c-5,0 -10,-9 -10,-20zm0,-82l0,-42l-25,34c-14,19 -25,38 -25,42c0,4 11,8 25,8c23,0 25,-4 25,-42z"/>
   <path id="svg_83" d="m7081.818144,12985.454346c0,-17 -7,-20 -40,-20c-51,0 -52,-16 -2,-89c52,-77 62,-76 62,2c0,43 4,67 13,71c10,5 10,7 0,12c-7,3 -13,14 -13,25c0,10 -4,19 -10,19c-5,0 -10,-9 -10,-20zm-2,-82c4,-47 -6,-48 -35,-3c-23,36 -20,47 12,43c15,-2 21,-12 23,-40z"/>
   <path id="svg_84" d="m9411.818144,13014.454346c0,-63 -2,-70 -15,-59c-9,7 -18,10 -22,6c-7,-7 46,-66 59,-66c4,0 8,43 8,95c0,78 -3,95 -15,95c-12,0 -15,-15 -15,-71z"/>
   <path id="svg_85" d="m9518.818144,13067.454346c-10,-10 -17,-22 -17,-25c0,-14 23,-7 36,11c18,24 48,4 52,-36c4,-36 -24,-50 -58,-32c-31,16 -35,7 -20,-45c12,-45 13,-45 56,-45c24,0 44,5 44,10c0,6 -15,10 -34,10c-25,0 -35,5 -39,20c-4,16 0,20 19,20c38,0 67,36 60,74c-11,54 -66,75 -99,38z"/>
   <path id="svg_86" d="m8170.818144,13046.454346c-13,-11 -20,-23 -16,-28c5,-4 13,0 18,10c20,34 75,10 67,-30c-2,-10 -13,-22 -26,-28c-28,-12 -28,-21 -1,-28c13,-4 20,-12 17,-24c-5,-24 -39,-29 -55,-7c-15,20 -26,14 -17,-10c8,-22 47,-30 73,-16c22,11 30,60 10,60c-5,0 -3,10 5,22c21,30 20,54 -4,78c-25,25 -41,25 -71,1z"/>
   <path id="svg_87" d="m8319.818144,13055.454346c-20,-12 -32,-75 -22,-125c9,-48 42,-65 79,-41c22,15 25,23 25,76c0,47 -4,64 -20,80c-22,22 -37,24 -62,10zm51,-24c19,-22 10,-117 -12,-130c-25,-15 -47,16 -47,67c0,65 30,98 59,63z"/>
   <path id="svg_88" d="m10211.818144,12995.454346c0,-5 9,-10 20,-10c18,0 20,-7 20,-56c0,-47 -3,-57 -20,-61c-23,-6 -27,-23 -5,-23c9,0 18,-7 21,-15c14,-37 24,-8 24,70c0,78 2,85 20,85c11,0 20,5 20,10c0,6 -22,10 -50,10c-27,0 -50,-4 -50,-10z"/>
   <path id="svg_89" d="m10354.818144,12998.454346c-7,-2 -13,-11 -13,-19c0,-12 4,-12 21,-4c11,7 32,9 46,6c33,-9 29,-58 -5,-66c-30,-7 -33,-24 -4,-28c16,-3 22,-10 22,-29c0,-23 -3,-25 -35,-21c-24,3 -35,0 -35,-9c0,-17 71,-18 88,-1c15,15 16,50 2,64c-8,8 -6,15 5,24c49,41 -27,110 -92,83z"/>
   <path id="svg_90" d="m8851.818144,12747.454346c0,-4 23,-30 50,-57c52,-52 60,-79 28,-99c-13,-8 -22,-6 -37,8c-29,26 -50,15 -23,-12c27,-27 66,-28 92,-2c29,29 25,45 -26,100l-47,50l47,0c25,0 46,5 46,10c0,6 -28,10 -65,10c-36,0 -65,-4 -65,-8z"/>
   <path id="svg_91" d="m9027.818144,12728.454346c11,-46 23,-74 44,-103c11,-16 20,-31 20,-34c0,-3 -22,-6 -50,-6c-27,0 -50,-4 -50,-10c0,-6 28,-10 65,-10c39,0 65,4 65,11c0,5 -11,26 -24,46c-14,20 -31,58 -37,85c-7,27 -19,48 -26,48c-10,0 -11,-8 -7,-27z"/>
   <path id="svg_92" d="m7718.818144,12728.454346c-4,-3 -7,-15 -7,-25c0,-14 -8,-18 -35,-18c-20,0 -35,-5 -35,-12c0,-19 74,-128 88,-128c8,0 12,18 12,59c0,38 5,61 13,65c10,5 10,7 0,12c-7,3 -13,17 -13,30c0,23 -10,31 -23,17zm-7,-100c0,-20 -1,-34 -3,-32c-2,2 -14,19 -26,37l-22,32l25,0c23,0 26,-4 26,-37z"/>
   <path id="svg_93" d="m7811.818144,12715.454346c-15,-15 -20,-33 -20,-74c0,-69 23,-102 64,-92c34,8 49,46 43,110c-6,71 -46,97 -87,56zm66,-35c17,-68 -15,-135 -50,-106c-23,19 -22,117 1,129c23,13 42,4 49,-23z"/>
   <path id="svg_94" d="m5554.818144,12690.454346c-46,-32 -37,-145 13,-167c29,-13 74,3 74,27c0,19 -16,20 -24,0c-8,-22 -43,-18 -60,7c-20,28 -22,58 -4,40c7,-7 24,-12 38,-12c35,0 50,17 50,56c0,23 -7,38 -22,48c-28,20 -38,20 -65,1zm55,-14c8,-5 12,-21 10,-37c-2,-21 -9,-30 -26,-32c-44,-7 -67,32 -36,62c17,18 32,20 52,7z"/>
   <path id="svg_95" d="m5689.818144,12683.454346c-15,-15 -18,-23 -9,-26c7,-2 18,4 25,13c17,24 49,15 60,-17c14,-39 -8,-62 -52,-54c-34,5 -34,5 -28,-26c3,-17 6,-37 6,-44c0,-10 13,-14 45,-14c25,0 45,5 45,10c0,6 -15,10 -34,10c-22,0 -36,6 -40,16c-10,27 -7,31 18,27c29,-6 66,27 66,57c0,24 -42,70 -65,70c-8,0 -25,-10 -37,-22z"/>
   <path id="svg_96" d="m6379.818144,12653.454346c-16,-16 -18,-23 -8,-26c7,-3 17,3 22,12c19,33 68,12 68,-30c0,-35 -26,-50 -62,-36l-30,11l6,-41c4,-23 9,-45 12,-50c7,-12 84,-10 84,2c0,6 -15,10 -34,10c-22,0 -36,6 -40,16c-11,28 -6,35 18,28c28,-7 66,25 66,55c0,26 -38,71 -61,71c-10,0 -29,-10 -41,-22z"/>
   <path id="svg_97" d="m6501.818144,12667.454346c0,-4 23,-30 50,-57c28,-27 50,-56 50,-65c0,-37 -47,-53 -70,-25c-18,22 -33,18 -20,-5c25,-48 110,-27 110,27c0,18 -14,39 -47,70l-48,43l48,0c26,0 47,5 47,10c0,6 -27,10 -60,10c-33,0 -60,-4 -60,-8z"/>
   <path id="svg_98" d="m6747.818144,12528.454346c-3,-3 -6,-15 -6,-25c0,-14 -8,-18 -35,-18c-20,0 -35,-5 -35,-12c0,-19 74,-128 88,-128c8,0 12,18 12,59c0,38 5,61 13,65c10,5 10,7 0,12c-7,3 -13,14 -13,24c0,20 -13,33 -24,23zm-6,-98c0,-19 -2,-35 -4,-35c-2,0 -13,16 -25,35l-20,35l24,0c22,0 25,-4 25,-35z"/>
   <path id="svg_99" d="m6840.818144,12516.454346c-13,-11 -21,-23 -17,-27c4,-4 14,-1 22,5c8,7 25,11 38,9c19,-2 23,-9 23,-38c0,-35 0,-35 -42,-34c-47,1 -50,-4 -32,-55c10,-28 15,-31 50,-31c21,0 39,5 39,10c0,6 -15,10 -34,10c-25,0 -35,5 -39,20c-4,17 0,20 23,20c59,0 80,61 35,105c-29,30 -36,31 -66,6z"/>
   <path id="svg_100" d="m9221.818144,12529.454346c0,-61 -1,-65 -20,-59c-11,3 -20,3 -20,0c0,-7 59,-65 66,-65c2,0 4,43 4,95c0,78 -3,95 -15,95c-12,0 -15,-14 -15,-66z"/>
   <path id="svg_101" d="m9329.818144,12578.454346c-35,-40 -29,-130 9,-159c25,-19 57,-17 76,4c21,23 21,32 2,32c-8,0 -15,-4 -15,-9c0,-19 -31,-20 -50,-1c-28,28 -25,37 13,32c41,-5 67,18 67,57c0,53 -68,82 -102,44zm56,-9c22,-8 21,-63 0,-71c-36,-13 -68,33 -44,62c14,17 21,18 44,9z"/>
   <path id="svg_102" d="m7977.818144,12569.454346c-9,-8 -16,-20 -16,-25c0,-15 17,-10 24,7c4,10 15,14 33,12c24,-3 28,-8 28,-33c0,-23 -5,-31 -22,-33c-13,-2 -23,-7 -23,-10c0,-4 10,-12 23,-17c12,-6 22,-17 22,-25c0,-22 -46,-25 -62,-4c-15,20 -26,14 -17,-9c7,-20 38,-31 69,-23c28,7 38,31 25,56c-7,13 -7,21 0,25c5,3 10,19 10,34c0,51 -60,80 -94,45z"/>
   <path id="svg_103" d="m8161.818144,12515.454346c0,-68 -1,-70 -20,-60c-11,6 -20,8 -20,4c0,-7 48,-54 56,-54c2,0 4,41 4,90c0,53 -4,90 -10,90c-6,0 -10,-30 -10,-70z"/>
   <path id="svg_104" d="m10041.818144,12450.454346c0,-65 0,-65 -25,-59c-14,3 -25,3 -25,0c0,-11 65,-64 72,-60c5,3 8,45 8,95c0,72 -3,89 -15,89c-12,0 -15,-14 -15,-65z"/>
   <path id="svg_105" d="m10121.818144,12503.454346c0,-6 23,-33 51,-59c57,-53 62,-82 16,-87c-16,-2 -35,2 -43,9c-8,6 -18,9 -22,5c-11,-11 37,-46 63,-46c29,0 55,30 55,62c0,19 -14,38 -46,67l-47,41l47,0c25,0 46,5 46,10c0,6 -27,10 -60,10c-40,0 -60,-4 -60,-12z"/>
   <path id="svg_106" d="m8650.818144,12248.454346c5,-10 28,-35 51,-56c44,-40 50,-71 18,-91c-13,-8 -22,-6 -37,8c-29,26 -50,15 -23,-12c41,-41 112,-18 112,37c0,13 -18,39 -47,66l-47,45l47,0c26,0 47,5 47,10c0,6 -28,10 -65,10c-60,0 -65,-2 -56,-17z"/>
   <path id="svg_107" d="m8812.818144,12246.454346c-31,-31 -30,-119 2,-149c29,-27 58,-28 82,-2c23,26 13,37 -16,16c-25,-17 -54,-8 -61,21c-4,15 2,18 36,18c35,0 43,4 54,29c13,25 12,31 -5,55c-26,33 -65,39 -92,12zm69,-16c26,-32 -13,-81 -47,-59c-24,15 -27,38 -8,58c20,20 39,20 55,1z"/>
   <path id="svg_108" d="m9021.818144,12080.454346l0,-65l-27,6l-28,7l29,-32c17,-17 33,-31 38,-31c4,0 8,41 8,90c0,53 -4,90 -10,90c-6,0 -10,-28 -10,-65z"/>
   <path id="svg_109" d="m9133.818144,12108.454346c5,-21 21,-57 34,-80l25,-43l-46,0c-25,0 -45,-4 -45,-10c0,-6 27,-10 60,-10c33,0 60,4 60,10c0,5 -11,25 -23,44c-13,19 -30,55 -37,80c-7,25 -18,46 -25,46c-11,0 -11,-8 -3,-37z"/>
   <path id="svg_110" d="m7437.818144,12209.454346c-9,-8 -16,-20 -16,-25c0,-15 17,-10 24,7c4,10 15,14 33,12c24,-3 28,-8 28,-33c0,-24 -5,-31 -24,-33l-24,-4l28,-22c17,-13 25,-28 21,-34c-10,-17 -56,-15 -62,3c-9,22 -23,18 -17,-5c6,-23 35,-34 68,-26c27,7 39,31 26,53c-5,10 -3,25 5,41c30,59 -43,113 -90,66z"/>
   <path id="svg_111" d="m7583.818144,12213.454346c-7,-7 -12,-19 -12,-27c1,-14 3,-13 14,2c18,23 53,22 66,-2c17,-32 13,-43 -10,-31c-28,15 -55,5 -69,-26c-17,-39 5,-78 46,-82c27,-3 34,2 47,27c9,16 16,41 16,55c0,31 -18,78 -33,88c-18,12 -52,9 -65,-4zm68,-83c7,-9 10,-25 6,-41c-5,-20 -12,-25 -34,-22c-28,3 -40,32 -28,64c7,18 40,18 56,-1z"/>
   <path id="svg_112" d="m7741.818144,12074.454346c-15,-26 -4,-38 13,-15c8,11 23,17 38,14c19,-2 24,-9 24,-33c0,-23 -5,-31 -22,-33c-24,-4 -32,-22 -10,-22c19,0 36,-20 30,-36c-7,-19 -52,-18 -59,1c-7,16 -24,21 -24,6c0,-5 7,-17 16,-25c36,-36 108,0 85,43c-7,13 -8,22 -1,26c14,9 13,68 -2,83c-20,20 -76,15 -88,-9z"/>
   <path id="svg_113" d="m7871.818144,12088.454346c0,-4 24,-31 52,-60c44,-44 51,-56 42,-71c-15,-23 -62,-28 -70,-8c-8,20 -24,21 -24,1c0,-39 82,-47 105,-11c20,31 9,57 -43,103l-37,33l48,0c26,0 47,5 47,10c0,6 -27,10 -60,10c-33,0 -60,-3 -60,-7z"/>
   <path id="svg_114" d="m5335.818144,12190.454346c-34,-82 3,-157 72,-143c21,4 41,34 30,45c-4,4 -12,0 -17,-10c-13,-23 -56,-22 -69,2c-17,33 -13,42 15,29c35,-16 75,12 75,52c0,37 -23,60 -61,60c-25,0 -33,-6 -45,-35zm81,-19c0,-36 -27,-56 -52,-40c-40,25 -20,77 26,72c21,-2 26,-8 26,-32z"/>
   <path id="svg_115" d="m5486.818144,12205.454346c-24,-26 -24,-99 -1,-134c21,-33 68,-35 90,-4c20,28 12,37 -12,15c-35,-32 -72,-17 -72,29c0,11 5,11 24,3c50,-23 93,38 61,87c-19,30 -65,32 -90,4zm75,-15c10,-12 10,-21 2,-40c-12,-25 -27,-30 -56,-19c-16,6 -22,54 -9,67c12,12 50,7 63,-8z"/>
   <path id="svg_116" d="m9851.818144,11964.454346c0,-63 -2,-70 -15,-59c-9,7 -18,10 -22,6c-7,-7 46,-66 59,-66c4,0 8,43 8,95c0,78 -3,95 -15,95c-12,0 -15,-15 -15,-71z"/>
   <path id="svg_117" d="m9971.818144,11964.454346c0,-63 -2,-70 -15,-59c-9,7 -18,10 -22,6c-7,-6 46,-65 60,-66c4,0 7,43 7,95c0,78 -3,95 -15,95c-12,0 -15,-15 -15,-71z"/>
   <path id="svg_118" d="m8431.818144,11763.454346c0,-6 23,-33 51,-59c59,-55 63,-82 11,-87c-18,-2 -32,1 -32,7c0,6 -7,11 -15,11c-8,0 -15,-4 -15,-9c0,-15 42,-41 66,-41c22,0 64,42 64,63c0,6 -22,32 -50,59l-50,48l50,0c28,0 50,5 50,10c0,6 -28,10 -65,10c-44,0 -65,-4 -65,-12z"/>
   <path id="svg_119" d="m8597.818144,11759.454346c-9,-8 -16,-20 -16,-25c0,-15 22,-10 36,9c17,23 48,5 52,-30c4,-36 -22,-55 -53,-38c-34,18 -40,8 -25,-45c12,-45 13,-45 56,-45c32,0 44,4 44,15c0,10 -10,15 -34,15c-22,0 -36,6 -40,16c-8,22 -9,22 18,17c37,-7 70,30 62,71c-10,52 -66,75 -100,40z"/>
   <path id="svg_120" d="m5128.818144,11697.454346c-22,-24 -23,-110 -1,-140c20,-29 68,-30 88,0c18,26 10,41 -8,15c-16,-21 -62,-22 -70,-1c-13,34 -7,44 18,33c51,-24 94,36 62,86c-20,30 -65,34 -89,7zm73,-17c15,-18 10,-45 -12,-59c-33,-20 -69,20 -54,60c7,18 50,18 66,-1z"/>
   <path id="svg_121" d="m5281.818144,11698.454346c1,-23 37,-103 57,-125c15,-17 13,-18 -35,-18c-29,0 -52,-4 -52,-10c0,-6 27,-10 60,-10c33,0 60,2 60,5c0,2 -13,25 -29,50c-16,26 -32,64 -36,86c-7,39 -25,55 -25,22z"/>
   <path id="svg_122" d="m8811.818144,11565.454346c0,-66 -1,-70 -19,-61c-32,18 -33,-2 -1,-31c17,-15 35,-28 41,-28c5,0 9,42 9,95c0,78 -3,95 -15,95c-12,0 -15,-14 -15,-70z"/>
   <path id="svg_123" d="m8912.818144,11609.454346c-25,-32 -25,-34 -7,-59c10,-14 11,-25 3,-42c-22,-49 51,-84 89,-42c15,17 16,23 6,40c-10,16 -9,24 4,45c16,24 16,27 -3,52c-28,38 -65,40 -92,6zm69,-9c26,-31 -13,-82 -44,-56c-21,18 -20,48 2,60c23,14 28,13 42,-4zm-2,-108c4,-20 -25,-34 -40,-19c-15,15 -1,44 19,40c10,-2 19,-11 21,-21z"/>
   <path id="svg_124" d="m9631.818144,11480.454346c0,-65 0,-65 -25,-59c-14,3 -25,3 -25,0c0,-11 65,-64 72,-60c5,3 8,45 8,95c0,72 -3,89 -15,89c-12,0 -15,-14 -15,-65z"/>
   <path id="svg_125" d="m9743.818144,11537.454346c-36,-23 -37,-135 -1,-168c46,-42 106,26 93,106c-9,58 -52,87 -92,62zm58,-31c11,-22 13,-80 4,-105c-3,-9 -16,-16 -29,-16c-27,0 -35,17 -35,74c0,61 37,89 60,47z"/>
   <path id="svg_126" d="m5846.818144,11385.454346c-10,-11 -15,-23 -12,-27c4,-4 13,1 20,11c8,11 23,17 38,14c20,-2 25,-9 27,-42l3,-39l-44,6l-44,6l10,-44c10,-45 11,-45 54,-45c24,0 43,5 43,10c0,6 -15,10 -34,10c-22,0 -36,6 -40,16c-8,22 -9,22 21,22c53,0 77,66 41,109c-16,20 -63,15 -83,-7z"/>
   <path id="svg_127" d="m6031.818144,11334.454346c0,-63 -2,-70 -15,-59c-9,7 -18,10 -22,6c-3,-3 -4,-7 -2,-8c2,-2 16,-14 32,-27l27,-24l0,91c0,55 -4,92 -10,92c-6,0 -10,-30 -10,-71z"/>
   <path id="svg_128" d="m6231.818144,11235.454346c0,-17 -7,-20 -40,-20c-24,0 -40,-5 -40,-12c0,-19 74,-128 88,-128c8,0 12,18 12,59c0,38 5,61 13,65c10,5 10,7 0,12c-7,3 -13,14 -13,25c0,10 -4,19 -10,19c-5,0 -10,-9 -10,-20zm0,-80c0,-22 -2,-40 -4,-40c-2,0 -15,18 -30,40l-26,40l30,0c28,0 30,-2 30,-40z"/>
   <path id="svg_129" d="m6317.818144,11240.454346c-39,-39 -26,-150 19,-161c13,-3 31,-4 41,-2c21,4 41,34 30,45c-4,4 -12,0 -17,-10c-13,-23 -56,-22 -69,2c-17,33 -13,42 15,29c54,-24 102,53 59,96c-20,20 -58,20 -78,1zm69,-45c0,-29 -4,-36 -23,-38c-43,-6 -69,37 -40,66c7,7 24,12 38,10c21,-3 25,-8 25,-38z"/>
   <path id="svg_130" d="m4929.818144,11218.454346c-38,-43 -30,-123 14,-156c25,-19 28,-19 52,-3c14,9 26,24 26,34c-1,16 -2,16 -14,-1c-21,-27 -70,-19 -74,11c-3,20 0,23 17,17c31,-10 61,3 72,32c22,59 -53,112 -93,66zm67,-43c0,-32 -2,-35 -30,-35c-24,0 -31,5 -33,23c-6,38 5,54 35,50c25,-3 28,-7 28,-38z"/>
   <path id="svg_131" d="m5079.818144,11224.454346c-20,-11 -25,-73 -8,-84c7,-4 7,-13 0,-26c-23,-41 29,-80 69,-52c22,15 28,47 12,58c-6,3 -3,18 7,34c15,27 15,30 -1,55c-18,27 -49,33 -79,15zm67,-44c0,-27 -3,-30 -30,-30c-21,0 -31,5 -33,18c-6,33 6,49 35,45c24,-3 28,-8 28,-33zm-7,-82c3,-19 -1,-23 -22,-23c-28,0 -41,14 -32,36c9,24 50,13 54,-13z"/>
   <path id="svg_132" d="m9476.818144,11055.454346c-24,-26 -13,-37 16,-16c21,14 24,14 41,-1c29,-26 22,-40 -19,-39c-31,1 -39,-3 -50,-26c-17,-34 0,-76 35,-85c51,-12 88,41 77,109c-12,70 -63,99 -100,58zm63,-82c17,-17 15,-43 -4,-59c-31,-26 -70,25 -44,56c15,18 32,19 48,3z"/>
   <path id="svg_133" d="m6871.818144,10924.454346c-15,-26 -4,-38 13,-15c8,11 23,17 38,14c19,-2 24,-9 24,-33c0,-24 -5,-31 -24,-33l-24,-4l28,-22c17,-13 25,-28 21,-34c-10,-17 -56,-15 -62,3c-4,8 -10,15 -15,15c-11,0 1,-33 15,-42c37,-26 96,14 77,51c-7,13 -8,22 -1,26c14,9 13,68 -2,83c-20,20 -76,15 -88,-9z"/>
   <path id="svg_134" d="m7017.818144,10923.454346c-20,-28 -20,-43 0,-63c13,-13 14,-18 4,-31c-10,-11 -10,-20 -2,-39c16,-35 68,-35 84,0c8,18 8,29 1,36c-8,8 -6,19 5,39c15,25 15,30 -1,54c-22,34 -69,36 -91,4zm81,-14c14,-38 -41,-71 -66,-40c-7,8 -10,24 -6,36c8,25 62,28 72,4zm-12,-99c0,-22 -31,-33 -47,-17c-17,17 -1,44 24,40c15,-2 23,-10 23,-23z"/>
   <path id="svg_135" d="m5636.818144,10895.454346c-10,-11 -15,-23 -12,-27c4,-4 13,1 20,11c28,38 75,1 63,-49c-7,-26 -9,-27 -46,-21c-44,7 -44,7 -29,-46c9,-36 12,-38 49,-38c22,0 40,5 40,10c0,6 -16,10 -35,10c-19,0 -35,4 -35,9c0,5 -3,16 -6,25c-5,13 -1,15 24,10c25,-5 33,-2 47,20c42,63 -30,141 -80,86z"/>
   <path id="svg_136" d="m5785.818144,10901.454346c-15,-12 -19,-27 -19,-81c0,-54 4,-69 19,-81c27,-19 42,-18 66,6c30,30 29,133 -2,154c-28,20 -39,20 -64,2zm55,-20c19,-22 10,-117 -12,-130c-25,-15 -47,16 -47,67c0,65 30,98 59,63z"/>
   <path id="svg_137" d="m7220.818144,10796.454346c-13,-11 -21,-23 -17,-27c5,-4 17,1 29,11c15,15 24,17 37,8c25,-15 22,-56 -5,-68c-29,-12 -30,-25 -2,-25c15,0 20,-5 17,-22c-4,-29 -37,-36 -55,-12c-7,10 -16,15 -20,11c-10,-10 28,-47 49,-47c10,0 27,9 38,20c17,17 18,24 9,41c-8,15 -8,24 0,32c19,19 13,65 -11,81c-29,21 -41,20 -69,-3z"/>
   <path id="svg_138" d="m7360.818144,10794.454346c-26,-26 -17,-39 10,-15c30,27 55,17 59,-22c3,-27 -1,-35 -17,-39c-27,-7 -27,-19 -1,-26c26,-7 26,-34 -1,-42c-13,-4 -27,0 -40,11c-27,24 -36,11 -10,-15c26,-26 42,-26 72,-2c21,18 23,22 11,42c-9,13 -10,24 -4,28c24,15 23,51 -2,76c-31,30 -49,32 -77,4z"/>
   <path id="svg_139" d="m6021.818144,10765.454346c0,-17 -7,-20 -40,-20c-25,0 -40,-5 -40,-12c1,-19 79,-138 90,-138c6,0 10,27 10,60c0,33 4,60 10,60c6,0 10,7 10,15c0,8 -4,15 -10,15c-5,0 -10,9 -10,20c0,11 -4,20 -10,20c-5,0 -10,-9 -10,-20zm0,-92c0,-45 -4,-44 -36,15c-14,26 -14,27 11,27c23,0 25,-4 25,-42z"/>
   <path id="svg_140" d="m6117.818144,10758.454346c10,-42 40,-110 53,-117c24,-15 8,-26 -39,-26c-27,0 -50,-4 -50,-10c0,-6 27,-10 60,-10c33,0 60,4 60,8c0,5 -13,33 -29,63c-16,30 -32,69 -36,87c-4,17 -11,32 -16,32c-5,0 -7,-12 -3,-27z"/>
   <path id="svg_141" d="m4718.818144,10727.454346c-22,-24 -23,-110 -1,-140c20,-29 68,-30 88,0c18,26 10,41 -8,15c-16,-21 -62,-22 -70,-1c-13,34 -7,44 18,33c51,-24 94,36 62,86c-20,30 -65,34 -89,7zm73,-17c15,-18 10,-45 -12,-59c-33,-20 -69,20 -54,60c7,18 50,18 66,-1z"/>
   <path id="svg_142" d="m4863.818144,10733.454346c-14,-14 -16,-38 -3,-38c5,0 11,7 15,15c8,21 43,19 56,-4c17,-33 13,-42 -15,-29c-47,21 -83,-40 -55,-93c16,-29 65,-25 86,6c19,29 15,114 -6,140c-15,18 -61,20 -78,3zm68,-82c6,-8 10,-25 8,-38c-2,-18 -9,-23 -33,-23c-24,0 -31,5 -33,23c-4,25 13,52 33,52c7,0 18,-7 25,-14z"/>
   <path id="svg_143" d="m9257.818144,10579.454346c-21,-20 -20,-53 1,-76c9,-11 11,-18 5,-18c-16,0 -15,-43 0,-58c7,-7 24,-12 38,-12c14,0 31,5 38,12c15,15 16,58 0,58c-6,0 -4,7 5,18c35,39 10,92 -43,92c-16,0 -36,-7 -44,-16zm69,-39c0,-25 -4,-30 -25,-30c-16,0 -26,6 -28,18c-6,30 6,49 30,45c18,-2 23,-9 23,-33zm-5,-70c15,-18 5,-35 -20,-35c-10,0 -22,5 -25,10c-7,11 12,40 25,40c4,0 13,-7 20,-15z"/>
   <path id="svg_144" d="m7900.818144,10486.454346c6,-10 28,-33 50,-50c44,-35 56,-65 34,-86c-18,-19 -24,-19 -49,0c-24,18 -34,19 -34,0c0,-34 76,-47 103,-17c29,31 20,62 -28,109l-45,43l45,0c25,0 45,5 45,10c0,6 -28,10 -65,10c-61,0 -65,-1 -56,-19z"/>
   <path id="svg_145" d="m8121.818144,10485.454346c0,-17 -7,-20 -40,-20c-25,0 -40,-5 -40,-12c0,-23 79,-138 95,-138c12,0 15,13 15,59c0,38 4,61 13,64c10,4 10,7 0,18c-7,7 -13,21 -13,31c0,10 -7,18 -15,18c-8,0 -15,-9 -15,-20zm0,-87c0,-20 -1,-34 -3,-32c-2,2 -14,19 -26,37l-22,32l25,0c23,0 26,-4 26,-37z"/>
   <path id="svg_146" d="m6677.818144,10479.454346c-9,-8 -16,-20 -16,-25c0,-15 17,-10 24,7c4,10 15,14 33,12c24,-3 28,-8 28,-33c0,-23 -5,-31 -22,-33c-28,-4 -30,-18 -3,-25c30,-8 27,-47 -4,-47c-14,0 -28,5 -31,10c-10,16 -25,12 -19,-5c10,-25 40,-36 67,-26c29,11 42,38 26,58c-9,10 -9,17 -1,25c18,18 14,63 -6,81c-23,21 -56,22 -76,1z"/>
   <path id="svg_147" d="m6838.818144,10443.454346c8,-29 24,-65 34,-80l20,-27l-48,-3c-63,-4 -62,-22 1,-26c74,-5 81,1 52,45c-20,32 -38,75 -52,131c-2,6 -8,12 -13,12c-6,0 -3,-22 6,-52z"/>
   <path id="svg_148" d="m5461.818144,10395.454346c0,-16 -7,-20 -35,-20c-45,0 -45,-15 1,-85c49,-73 64,-72 64,4c0,38 5,61 13,65c10,5 10,7 0,12c-7,3 -13,14 -13,25c0,10 -7,19 -15,19c-8,0 -15,-9 -15,-20zm0,-77c-1,-36 -1,-37 -16,-18c-35,45 -36,55 -9,55c22,0 25,-4 25,-37z"/>
   <path id="svg_149" d="m5553.818144,10403.454346c-14,-14 -16,-38 -3,-38c5,0 11,7 15,15c8,21 43,19 56,-4c17,-32 13,-43 -11,-31c-32,18 -69,-11 -69,-53c0,-40 15,-57 52,-57c41,0 62,37 56,102c-4,34 -12,56 -24,65c-22,16 -56,17 -72,1zm68,-82c6,-8 10,-25 8,-38c-2,-18 -9,-23 -33,-23c-24,0 -31,5 -33,23c-4,25 13,52 33,52c7,0 18,-7 25,-14z"/>
   <path id="svg_150" d="m8271.818144,10304.454346c0,-63 -2,-70 -15,-59c-9,7 -18,10 -22,6c-7,-7 46,-66 59,-66c4,0 8,43 8,95c0,78 -3,95 -15,95c-12,0 -15,-15 -15,-71z"/>
   <path id="svg_151" d="m8379.818144,10364.454346c-18,-10 -25,-39 -9,-39c5,0 14,7 21,15c16,19 25,19 44,-1c26,-26 20,-40 -17,-36c-56,6 -82,-49 -44,-94c33,-37 72,-28 93,23c35,83 -23,170 -88,132zm70,-110c6,-50 -52,-63 -64,-13c-8,32 3,46 34,42c21,-2 28,-9 30,-29z"/>
   <path id="svg_152" d="m7007.818144,10319.454346c-9,-8 -16,-20 -16,-25c0,-15 17,-10 24,7c4,10 15,14 33,12c24,-3 28,-8 28,-33c0,-23 -5,-31 -22,-33c-24,-4 -32,-22 -10,-22c19,0 36,-20 30,-36c-7,-19 -52,-18 -59,1c-7,16 -24,21 -24,6c0,-5 7,-17 16,-25c36,-36 108,0 85,43c-7,13 -8,22 -1,26c5,3 10,19 10,34c0,51 -60,80 -94,45z"/>
   <path id="svg_153" d="m7201.818144,10315.454346c0,-16 -7,-20 -35,-20c-45,0 -45,-15 1,-85c49,-73 64,-72 64,4c0,38 5,61 13,65c10,5 10,7 0,12c-7,3 -13,14 -13,25c0,10 -7,19 -15,19c-8,0 -15,-9 -15,-20zm0,-77c-1,-36 -1,-37 -16,-18c-35,45 -36,55 -9,55c22,0 25,-4 25,-37z"/>
   <path id="svg_154" d="m5809.818144,10279.454346c-5,-4 -8,-16 -8,-26c0,-14 -8,-18 -40,-18c-22,0 -40,-2 -40,-5c0,-13 83,-135 91,-135c5,0 9,27 9,60c0,47 3,60 15,60c8,0 15,5 15,10c0,6 -6,10 -14,10c-8,0 -16,12 -18,26c-2,14 -6,22 -10,18zm-8,-101c-1,-36 -1,-37 -16,-18c-35,45 -36,55 -9,55c22,0 25,-4 25,-37z"/>
   <path id="svg_155" d="m5904.818144,10270.454346c-28,-19 -34,-49 -16,-75c11,-16 12,-24 3,-35c-30,-36 25,-79 69,-55c22,11 29,54 11,65c-6,4 -4,12 5,21c43,44 -21,115 -72,79zm64,-31c9,-24 -10,-49 -38,-49c-20,0 -25,6 -27,33c-3,30 -1,32 28,32c19,0 33,-6 37,-16zm-12,-99c0,-22 -31,-33 -47,-17c-17,17 -1,44 24,40c15,-2 23,-10 23,-23z"/>
   <path id="svg_156" d="m4521.818144,10263.454346c0,-27 35,-106 57,-130c15,-17 13,-18 -35,-18c-29,0 -52,-4 -52,-10c0,-6 27,-10 60,-10c33,0 60,2 60,4c0,3 -14,27 -31,54c-17,27 -33,68 -36,91c-6,43 -23,57 -23,19z"/>
   <path id="svg_157" d="m4666.818144,10272.454346c-26,-20 -33,-118 -11,-152c21,-32 59,-33 80,-3c19,27 21,118 4,140c-19,23 -51,30 -73,15zm60,-81c0,-44 -4,-61 -17,-69c-27,-17 -48,9 -48,58c0,62 8,77 39,73c25,-3 26,-6 26,-62z"/>
   <path id="svg_158" d="m9051.818144,10081.454346c0,-30 22,-84 50,-118l21,-28l-50,0c-28,0 -51,-4 -51,-10c0,-6 29,-10 66,-10l66,0l-18,28c-31,47 -54,95 -60,129c-7,38 -24,45 -24,9z"/>
   <path id="svg_159" d="m7703.818144,10007.454346c7,-10 30,-34 51,-52c29,-25 37,-39 35,-59c-4,-31 -38,-40 -62,-16c-24,24 -39,14 -21,-13c12,-16 26,-22 54,-22c75,0 83,51 17,116l-43,44l43,0c24,0 44,5 44,10c0,6 -29,10 -66,10c-61,0 -64,-1 -52,-18z"/>
   <path id="svg_160" d="m7863.818144,10013.454346c-14,-14 -16,-38 -3,-38c5,0 12,7 15,16c4,10 15,14 33,12c22,-2 28,-8 28,-28c0,-16 -8,-28 -22,-35c-28,-12 -29,-22 -3,-30c11,-3 20,-13 20,-21c0,-23 -29,-28 -50,-9c-23,21 -39,12 -24,-13c6,-10 27,-18 47,-20c28,-2 38,1 47,18c7,13 7,26 2,37c-6,11 -4,25 6,43c15,25 14,30 -1,54c-13,19 -26,26 -50,26c-18,0 -38,-5 -45,-12z"/>
   <path id="svg_161" d="m6485.818144,9995.454346c-12,-5 -24,-15 -27,-24c-7,-18 4,-21 20,-5c6,6 21,9 34,7c19,-2 24,-9 24,-33c0,-23 -5,-30 -24,-35l-24,-6l26,-17c16,-10 24,-23 21,-32c-8,-21 -51,-19 -63,2c-5,10 -12,15 -15,12c-11,-11 26,-49 48,-49c34,0 60,33 47,59c-7,13 -8,22 -1,26c14,9 12,71 -2,82c-22,17 -42,21 -64,13z"/>
   <path id="svg_162" d="m6617.818144,9984.454346c-22,-17 -26,-28 -26,-73c0,-39 5,-58 20,-74c27,-28 65,-28 84,0c20,28 12,37 -12,15c-32,-29 -72,-15 -72,25c0,15 3,16 26,6c24,-11 29,-9 50,15c30,35 30,52 -1,82c-29,30 -35,31 -69,4zm68,-25c16,-42 -16,-74 -54,-54c-19,10 -27,49 -13,63c13,13 61,7 67,-9z"/>
   <path id="svg_163" d="m8031.818144,9887.454346c0,-4 20,-28 45,-52c34,-34 45,-51 43,-70c-4,-30 -38,-39 -62,-15c-24,24 -39,14 -21,-13c12,-16 26,-22 54,-22c74,0 83,52 19,117l-42,43l42,0c23,0 42,5 42,10c0,6 -27,10 -60,10c-33,0 -60,-4 -60,-8z"/>
   <path id="svg_164" d="m8193.818144,9878.454346c-31,-61 -19,-148 23,-159c43,-11 59,-1 74,45c12,39 12,51 0,85c-13,37 -18,41 -51,44c-27,2 -39,-1 -46,-15zm67,-17c7,-8 11,-35 9,-62c-6,-90 -68,-81 -68,11c0,57 31,84 59,51z"/>
   <path id="svg_165" d="m6810.818144,9846.454346c-13,-11 -20,-23 -16,-28c5,-4 13,0 18,10c20,34 75,10 67,-30c-2,-10 -14,-23 -28,-30l-25,-13l23,-6c25,-7 30,-41 7,-51c-9,-3 -25,3 -35,12c-11,10 -23,15 -28,11c-9,-9 35,-46 54,-46c8,0 23,9 35,21c19,19 19,22 5,44c-13,20 -13,24 -1,29c24,9 19,62 -7,80c-29,21 -41,20 -69,-3z"/>
   <path id="svg_166" d="m6950.818144,9844.454346c-26,-26 -17,-39 10,-15c32,29 56,17 56,-29c0,-34 -3,-40 -23,-43c-13,-2 -30,2 -39,10c-15,12 -16,9 -10,-27c4,-22 7,-46 7,-52c0,-9 16,-13 45,-13c25,0 45,5 45,10c0,6 -15,10 -34,10c-22,0 -36,6 -40,16c-9,24 -7,36 5,29c19,-12 55,4 67,30c14,30 2,69 -27,84c-28,15 -38,14 -62,-10z"/>
   <path id="svg_167" d="m4351.818144,9768.454346c0,-24 25,-92 46,-125l24,-38l-50,0c-27,0 -50,-4 -50,-10c0,-6 27,-10 60,-10c33,0 60,4 60,10c0,5 -11,25 -24,45c-13,19 -30,58 -37,85c-7,28 -16,50 -21,50c-4,0 -8,-3 -8,-7z"/>
   <path id="svg_168" d="m4531.818144,9699.454346c0,-67 -2,-75 -15,-64c-9,7 -18,10 -22,6c-3,-3 -4,-7 -2,-8c2,-2 16,-14 32,-27l27,-24l0,96c0,58 -4,97 -10,97c-6,0 -10,-32 -10,-76z"/>
   <path id="svg_169" d="m8834.818144,9580.454346c-38,-27 -43,-124 -7,-160c23,-23 70,-19 89,7c11,16 12,24 4,27c-7,2 -16,-4 -21,-13c-12,-22 -45,-20 -58,3c-16,31 -13,43 9,29c15,-9 25,-9 45,0c35,16 44,57 19,90c-24,32 -50,38 -80,17zm65,-47c4,-34 -26,-54 -53,-34c-13,9 -16,20 -11,40c5,22 11,27 34,24c21,-2 28,-9 30,-30z"/>
   <path id="svg_170" d="m7481.818144,9501.454346c0,-8 20,-31 45,-51c51,-42 64,-70 42,-92c-15,-16 -57,-10 -57,8c0,5 -7,9 -15,9c-19,0 -19,-14 1,-34c22,-22 70,-20 94,4c11,11 20,23 20,28c0,16 -41,72 -65,88c-37,24 -31,34 20,34c25,0 45,5 45,10c0,6 -28,10 -65,10c-50,0 -65,-3 -65,-14z"/>
   <path id="svg_171" d="m7621.818144,9506.454346c0,-5 23,-31 50,-57c31,-30 50,-56 50,-70c0,-30 -35,-41 -60,-19c-29,26 -49,14 -22,-13c27,-27 73,-28 97,-2c24,27 14,60 -34,103c-22,19 -37,38 -33,41c3,3 23,6 44,6c21,0 38,5 38,10c0,6 -28,10 -65,10c-36,0 -65,-4 -65,-9z"/>
   <path id="svg_172" d="m7830.818144,9368.454346c5,-10 28,-36 50,-58c24,-23 41,-48 41,-61c0,-30 -35,-41 -60,-19c-29,26 -49,14 -22,-13c40,-40 112,-18 112,33c0,11 -21,41 -47,67l-47,48l47,0c26,0 47,5 47,10c0,6 -28,10 -65,10c-60,0 -65,-2 -56,-17z"/>
   <path id="svg_173" d="m8031.818144,9313.454346c0,-56 -3,-69 -12,-60c-15,15 -28,16 -28,2c0,-12 50,-59 63,-60c4,0 7,43 7,95c0,78 -3,95 -15,95c-12,0 -15,-15 -15,-72z"/>
   <path stroke="null" id="svg_174" d="m4847.272559,9320.454303c0,-45.606058 6.909086,-79.54545 17.272716,-79.54545c10.36363,0 17.272716,33.939392 17.272716,79.54545c0,45.606058 -6.909086,79.54545 -17.272716,79.54545c-10.36363,0 -17.272716,-33.939392 -17.272716,-79.54545z"/>
   <path id="svg_175" d="m8629.818144,9104.454346c-10,-5 -18,-17 -18,-24c0,-20 9,-19 32,2c24,22 52,7 56,-29c4,-36 -21,-54 -55,-39c-14,6 -28,9 -31,7c-2,-3 1,-26 8,-51c12,-45 13,-45 56,-45c32,0 44,4 44,15c0,10 -10,15 -34,15c-22,0 -36,6 -40,16c-8,22 -8,26 5,19c20,-13 57,5 69,34c25,61 -35,113 -92,80z"/>
   <path id="svg_176" d="m6456.818144,8638.454346c4,-21 20,-59 36,-85l28,-48l-49,0c-28,0 -50,-4 -50,-10c0,-6 27,-10 60,-10c33,0 60,2 60,4c0,2 -13,29 -30,60c-16,31 -32,72 -36,91c-3,19 -10,35 -16,35c-5,0 -6,-16 -3,-37z"/>
   <path id="svg_177" d="m6551.818144,8665.454346c0,-6 23,-32 50,-59c51,-49 63,-84 34,-95c-24,-9 -31,-8 -48,10c-24,23 -39,13 -21,-14c23,-32 79,-31 101,3c21,32 12,55 -36,99l-40,36l45,0c33,0 45,4 45,15c0,12 -14,15 -65,15c-38,0 -65,-4 -65,-10z"/>
   <path id="svg_178" d="m8468.818144,8618.454346c-4,-3 -7,-15 -7,-25c0,-14 -8,-18 -40,-18c-22,0 -40,-3 -40,-7c0,-17 84,-133 96,-133c10,0 14,15 14,59c0,38 5,61 13,65c10,5 10,7 0,12c-7,3 -13,17 -13,30c0,23 -10,31 -23,17zm-7,-95l0,-33l-20,25c-25,32 -25,40 0,40c16,0 20,-7 20,-32z"/>
   <path id="svg_179" d="m6921.818144,8430.454346l0,-65l-27,6l-28,7l29,-32c48,-51 56,-43 56,59c0,73 -3,90 -15,90c-12,0 -15,-14 -15,-65z"/>
   <path id="svg_180" d="m7371.818144,8225.454346c0,-6 23,-32 50,-59c51,-50 59,-68 38,-89c-16,-16 -34,-15 -52,4c-9,8 -21,14 -28,12c-20,-7 29,-48 57,-48c28,0 65,32 65,56c0,9 -20,37 -45,62c-25,24 -45,46 -45,48c0,2 20,4 45,4c25,0 45,5 45,10c0,6 -28,10 -65,10c-38,0 -65,-4 -65,-10z"/>
   <path id="svg_181" d="m7919.818144,7984.454346c-17,-10 -25,-39 -11,-39c3,0 15,8 25,17c24,22 53,6 53,-28c0,-17 -6,-25 -22,-27c-28,-4 -29,-13 -3,-30c11,-7 20,-18 20,-26c0,-21 -25,-26 -49,-9c-29,20 -39,9 -16,-17c23,-25 46,-25 76,-1c21,17 22,22 11,40c-10,18 -10,25 4,47c16,24 16,27 -3,52c-22,29 -58,38 -85,21z"/>
   <path id="svg_182" d="m3841.818144,9248.454346c-18,-43 -35,-82 -39,-88c-4,-5 -18,-35 -30,-65c-32,-78 -78,-181 -122,-278c-22,-46 -39,-85 -39,-87c0,-3 -40,-95 -90,-206c-49,-111 -90,-212 -90,-225c0,-25 30,-42 245,-136c50,-21 109,-48 133,-59c23,-10 61,-27 85,-38c87,-38 115,-50 217,-96c102,-46 130,-58 218,-96c58,-26 112,-51 216,-98c93,-44 120,-45 132,-8c4,12 24,59 45,105c22,46 39,85 39,87c0,3 12,30 26,62c15,32 35,77 45,101c11,23 28,61 38,85c11,23 54,121 96,217c41,96 84,193 94,215c10,22 26,57 36,77c23,51 13,71 -48,98c-28,13 -77,34 -107,48c-30,14 -73,33 -95,43c-22,9 -75,34 -118,53c-43,20 -80,36 -83,36c-2,0 -34,14 -71,31c-38,17 -86,39 -108,49c-56,24 -211,95 -313,141c-35,16 -65,29 -67,29c-6,0 -115,49 -147,66c-52,28 -64,20 -98,-63zm291,-678c12,-41 25,-75 29,-75c4,0 17,34 29,75c23,79 45,98 57,48c4,-16 15,-58 24,-95c13,-50 15,-68 6,-68c-7,0 -20,33 -30,75c-10,41 -19,75 -21,75c-2,0 -13,-34 -26,-75c-16,-55 -26,-75 -39,-75c-13,0 -23,20 -39,75c-13,41 -24,75 -26,75c-1,0 -11,-34 -20,-75c-10,-41 -22,-75 -26,-75c-12,0 -11,8 6,87c23,97 25,103 40,103c9,0 22,-28 36,-75zm283,54c14,-11 26,-27 26,-35c0,-20 -5,-18 -35,12c-43,43 -95,13 -95,-55c0,-62 64,-97 92,-51c15,23 28,26 28,6c0,-19 -39,-46 -66,-46c-12,0 -33,9 -48,21c-45,35 -34,138 17,159c35,14 52,12 81,-11z"/>
   <path id="svg_183" d="m5184.818144,8733.454346c-6,-7 -13,-26 -17,-42c-4,-16 -25,-67 -47,-115c-23,-47 -52,-113 -66,-146c-14,-33 -36,-85 -50,-115c-14,-30 -33,-73 -43,-95c-9,-22 -24,-56 -33,-75c-9,-19 -25,-58 -37,-85c-12,-27 -28,-66 -37,-85c-9,-19 -24,-53 -33,-75c-10,-22 -32,-70 -49,-107c-17,-37 -31,-69 -31,-72c0,-3 -18,-44 -40,-91c-22,-47 -40,-88 -40,-90c0,-2 -18,-43 -40,-90c-22,-47 -40,-88 -40,-91c0,-2 -13,-32 -29,-66c-16,-35 -72,-162 -126,-283c-53,-121 -105,-239 -116,-262c-10,-24 -27,-62 -38,-85c-10,-24 -30,-69 -45,-101c-14,-32 -26,-59 -26,-62c0,-2 -18,-43 -40,-90c-22,-47 -40,-88 -40,-91c0,-3 -16,-39 -35,-80c-19,-41 -35,-77 -35,-79c0,-3 -12,-29 -26,-58c-14,-28 -41,-90 -60,-137c-35,-83 -48,-113 -113,-253c-17,-37 -31,-72 -31,-78c0,-6 -6,-9 -12,-6c-7,3 -33,12 -58,22c-25,9 -52,20 -60,24c-8,5 -78,34 -155,66c-77,32 -163,68 -192,81c-28,13 -58,24 -65,24c-8,0 -18,4 -24,9c-5,5 -45,23 -89,41c-44,18 -104,43 -133,56c-29,13 -58,24 -65,24c-7,0 -17,4 -23,9c-5,5 -83,39 -174,76c-91,37 -185,77 -209,88c-32,15 -48,17 -60,10c-9,-6 -44,-77 -79,-159c-34,-82 -83,-198 -108,-257c-45,-104 -46,-109 -29,-127c10,-11 22,-20 27,-20c5,0 34,-11 64,-25c30,-14 61,-25 69,-25c7,0 16,-4 19,-9c3,-4 27,-16 53,-26c26,-9 68,-26 93,-37c25,-11 54,-23 65,-28c11,-4 46,-20 78,-34c32,-14 62,-26 67,-26c6,0 18,-4 28,-9c44,-24 132,-61 146,-61c8,0 17,-4 21,-9c3,-5 29,-17 57,-27c29,-9 73,-27 98,-40c25,-12 92,-41 150,-63c58,-23 119,-48 135,-56c17,-8 48,-21 70,-29c35,-12 40,-17 38,-42c-1,-16 -9,-42 -17,-59c-34,-68 -86,-189 -86,-200c0,-10 26,-23 155,-80c17,-8 96,-41 175,-75c80,-34 173,-75 208,-91c35,-16 66,-29 68,-29c3,0 31,-12 62,-26c31,-14 66,-29 77,-34c11,-4 42,-18 68,-30c26,-12 50,-21 52,-19c7,8 75,159 75,168c0,5 7,22 15,38c24,46 79,171 125,283c24,58 47,110 51,115c4,6 23,51 44,100c20,50 50,119 67,155c17,36 36,79 43,95c7,17 25,56 39,87c14,31 26,59 26,62c0,3 12,31 26,63c15,32 35,76 44,98c10,22 34,75 54,118c20,43 36,80 36,83c0,5 23,56 80,179c15,33 40,89 55,125c15,36 41,94 57,130c17,36 37,81 45,100c16,36 37,85 74,168c11,26 24,56 29,67c14,34 46,107 79,179c18,38 39,87 48,110c9,22 19,46 23,51c5,6 24,51 45,100c36,88 53,125 121,273c19,40 34,75 34,78c0,3 13,33 29,67c16,34 52,116 81,182c29,66 67,153 86,193c19,40 34,75 34,77c0,3 14,35 31,72c17,38 39,86 49,108c9,22 24,56 33,75c74,166 74,164 0,196c-32,14 -83,37 -113,51c-30,14 -91,41 -135,60c-44,20 -108,48 -143,64c-35,16 -65,29 -67,29c-3,0 -28,11 -57,24c-29,13 -80,36 -113,51c-33,15 -73,33 -89,41c-45,22 -91,27 -103,12z"/>
   <path id="svg_184" d="m6143.81814,8313.45435c-7,-7 -12,-18 -12,-26c0,-7 -11,-37 -24,-65c-116,-250 -165,-355 -186,-402c-10,-22 -32,-70 -49,-108c-17,-37 -31,-69 -31,-72c0,-2 -15,-37 -34,-77c-18,-40 -48,-104 -65,-143c-18,-38 -38,-82 -46,-97c-26,-46 -19,-64 30,-87c48,-22 123,-56 165,-73c14,-6 39,-17 55,-24c17,-7 66,-27 110,-44c44,-18 100,-41 125,-53c104,-46 149,-65 215,-91c39,-15 84,-34 100,-40c17,-7 41,-18 55,-24c14,-5 45,-19 70,-30c111,-50 242,-106 320,-136c82,-32 169,-69 201,-86c8,-4 109,-47 225,-95c115,-49 216,-91 224,-95c8,-4 26,-12 40,-18c14,-6 51,-22 82,-36c31,-14 60,-26 65,-26c4,0 21,-7 38,-16c46,-24 68,-12 95,53c13,32 41,95 62,141c21,46 38,85 38,87c0,5 48,108 136,293c35,73 64,135 64,137c0,2 16,39 36,82c20,43 49,106 65,141c16,35 29,67 29,72c0,4 37.50835,55.76252 11.61018,49.59307c-553.45701,242.11853 -526.61018,231.40693 -551.61018,242.40693c-74,32 -82,35 -164,68c-44,18 -87,36 -95,40c-27,14 -107,48 -198,86c-49,19 -98,39 -110,44c-13,6 -35,15 -50,21c-16,6 -35,15 -43,19c-9,4 -126,54 -260,110c-135,56 -265,111 -290,122c-25,11 -56,24 -70,30c-14,6 -32,14 -42,19c-9,4 -69,29 -135,55c-65,25 -122,50 -127,55c-14,13 -60,11 -74,-3z"/>
   <path id="svg_185" d="m9045.818144,6496.454346c-11,-8 -24,-35 -64,-136c-17,-44 -35,-89 -40,-100c-4,-11 -23,-56 -40,-100c-18,-44 -38,-87 -45,-95c-7,-8 -27,-51 -45,-95c-18,-44 -36,-89 -41,-100c-4,-11 -29,-72 -54,-135c-26,-63 -50,-124 -55,-135c-22,-53 -90,-226 -110,-278c-12,-31 -26,-60 -31,-62c-4,-3 -25,2 -46,11c-40,18 -81,35 -123,52c-14,6 -83,34 -153,63c-75,31 -131,48 -136,43c-9,-9 -24,-46 -74,-174c-38,-99 -124,-311 -178,-443c-27,-65 -49,-121 -49,-125c0,-4 33,-20 73,-35c39,-16 81,-33 92,-37c11,-5 83,-34 160,-65c77,-31 152,-63 167,-71c14,-8 37,-14 51,-14c25,0 156,39 287,84c65,23 199,65 275,86c22,6 56,17 75,25c19,7 55,18 80,25c25,7 63,18 85,25c22,7 74,23 115,35c41,12 100,30 130,40c30,10 96,30 145,45c50,15 119,37 155,50c61,21 121,40 320,101c47,14 112,35 145,46c33,11 85,26 115,32l54,11l24,65c13,36 29,79 37,95c42,94 76,189 71,201c-3,8 -18,19 -33,25c-15,7 -52,22 -81,35c-29,13 -56,24 -60,24c-4,0 -61,22 -127,49c-66,27 -173,71 -238,97c-129,53 -124,46 -91,124c9,19 19,44 24,55c66,156 117,291 114,299c-2,6 -93,46 -202,90c-108,43 -213,85 -232,93c-19,8 -46,20 -60,25c-33,13 -79,32 -110,46c-126,55 -269,109 -276,103zm324,-1192c-30,-54 -84,-99 -147,-124c-28,-11 -51,-22 -51,-25c0,-3 9,-11 20,-18c25,-15 27,-73 4,-96c-20,-21 -73,-20 -96,1c-25,23 -24,63 2,63c11,0 20,-6 20,-14c0,-19 14,-28 34,-20c24,9 19,29 -9,42c-14,6 -25,20 -25,30c0,12 -13,22 -46,31c-55,16 -120,64 -151,110c-42,63 -48,61 223,61l245,0l-23,-41z"/>
   <path id="svg_186" d="m8972.818144,5279.454346c64,-68 171,-93 252,-59c39,16 107,71 107,86c0,5 -87,9 -197,9l-197,0l35,-36z"/>
   <path id="svg_187" d="m10617.818144,5787.454346c-7,-15 -39,-90 -71,-167c-32,-77 -68,-163 -81,-192c-13,-28 -24,-56 -24,-62c0,-5 -6,-22 -14,-38c-8,-15 -19,-39 -24,-53c-15,-37 -62,-150 -80,-192c-12,-28 -24,-39 -47,-44c-16,-4 -43,-12 -60,-19c-16,-7 -55,-20 -85,-29c-30,-9 -104,-32 -163,-51c-60,-19 -115,-35 -122,-35c-8,0 -29,-6 -47,-14c-29,-12 -148,-50 -248,-79c-19,-5 -51,-15 -70,-22c-19,-8 -75,-25 -125,-40c-49,-14 -105,-33 -123,-41c-18,-8 -39,-14 -47,-14c-7,0 -62,-16 -122,-35c-59,-19 -133,-42 -163,-51c-30,-9 -86,-27 -125,-39c-38,-12 -110,-34 -160,-50c-49,-15 -105,-33 -123,-41c-18,-8 -37,-14 -43,-14c-6,0 -35,-7 -65,-16c-40,-11 -58,-23 -68,-43c-24,-45 -157,-454 -152,-466c2,-7 30,-22 63,-35c58,-23 102,-41 158,-65c17,-7 44,-18 60,-25c17,-7 44,-18 60,-25c17,-7 42,-18 58,-24c15,-6 37,-15 50,-21c12,-5 74,-30 137,-55c63,-25 126,-51 140,-57c31,-13 76,-32 115,-48c28,-11 52,-21 115,-48c99,-41 250,-102 255,-102c3,0 27,-9 53,-21c54,-24 96,-42 132,-57c51,-21 350,-141 480,-192c74,-29 151,-59 170,-67c19,-8 46,-20 60,-25c14,-6 39,-16 55,-23c17,-7 44,-18 60,-25c58,-24 90,-37 115,-48c14,-6 99,-41 190,-77c91,-37 177,-73 192,-81c14,-8 31,-14 37,-14c6,0 30,-9 54,-19c23,-11 58,-24 77,-30c58,-17 174,-62 185,-72c5,-5 15,-9 23,-9c7,0 37,-11 65,-23c99,-45 182,-77 200,-77c10,0 22,12 28,28c6,15 17,38 24,52c7,14 20,49 29,77c10,29 22,55 27,58c5,4 9,13 9,21c0,8 11,41 26,72c30,69 48,109 61,142c6,14 22,52 36,85c13,33 43,107 67,165c58,146 66,164 114,272c15,31 26,62 26,68c0,6 5,21 12,33c18,32 38,89 38,109c0,21 -8,25 -140,78c-58,23 -121,49 -140,57c-19,8 -48,21 -65,28c-16,7 -43,18 -60,25c-50,21 -99,42 -117,51c-10,5 -23,9 -30,9c-43,1 -42,16 17,156c62,151 71,174 90,219c7,17 18,44 25,60c7,17 18,44 25,60c7,17 36,89 65,160c28,72 56,137 61,145c5,8 12,22 15,30c3,8 10,23 15,32c5,10 9,26 9,36c0,10 4,22 9,28c5,5 34,72 66,149c31,77 61,150 67,162c12,24 4,43 -19,43c-8,0 -27,6 -41,14c-15,7 -40,19 -57,26c-16,7 -43,18 -60,25c-16,7 -42,17 -57,24c-16,6 -38,15 -50,21c-13,5 -63,25 -113,45c-49,20 -94,40 -100,44c-5,4 -30,14 -55,21c-25,7 -52,20 -61,27c-8,7 -20,13 -25,13c-5,0 -76,27 -159,61c-148,60 -176,71 -245,102c-19,8 -47,20 -62,26c-16,6 -38,15 -50,21c-13,5 -51,20 -86,34l-62,25l-14,-27z"/>
   <path id="svg_188" d="m2296.818144,5559.454346c-8,-8 -15,-20 -15,-25c0,-6 -12,-36 -26,-67c-14,-31 -37,-81 -50,-110c-13,-29 -24,-55 -24,-58c0,-3 -7,-22 -16,-42c-9,-21 -20,-46 -24,-57c-5,-11 -17,-40 -28,-65c-78,-176 -78,-174 -14,-202c26,-11 67,-29 92,-40c25,-11 56,-24 70,-30c14,-6 32,-14 41,-18c8,-4 51,-22 95,-40c43,-18 103,-43 131,-56c75,-34 113,-41 113,-20c0,9 14,47 31,84c40,85 220,515 216,517c-1,1 -38,17 -81,34c-44,18 -87,37 -95,41c-9,4 -29,13 -46,20c-16,7 -37,16 -46,20c-8,4 -51,22 -95,40c-43,17 -87,36 -97,41c-10,5 -40,18 -67,29c-44,17 -51,18 -65,4zm310,-414l0,-175l-160,0l-160,0l-3,165c-1,90 0,170 3,177c3,11 39,13 162,11l158,-3l0,-175zm88,1c23,-39 22,-41 -18,-41c-38,0 -41,6 -23,45c14,32 20,32 41,-4zm7,-66c0,-4 -7,-20 -16,-37l-16,-32l-14,25c-21,37 -17,49 16,49c17,0 30,-2 30,-5z"/>
   <path id="svg_189" d="m2311.818144,5145.454346l0,-140l65,0l65,0l0,140l0,140l-65,0l-65,0l0,-140z"/>
   <path id="svg_190" d="m2451.818144,5145.454346l0,-140l65,0l65,0l0,140l0,140l-65,0l-65,0l0,-140z"/>
   <path id="svg_191" d="m2921.818144,5272.454346c0,-7 -11,-37 -25,-65c-14,-29 -25,-55 -25,-58c0,-3 -7,-22 -16,-42c-9,-21 -21,-48 -26,-62c-6,-14 -14,-32 -18,-41c-34,-68 -130,-315 -128,-327c2,-9 48,-34 113,-60c61,-25 138,-58 173,-73c34,-16 65,-29 68,-29c3,0 31,-12 62,-26c31,-14 68,-30 82,-36c14,-6 33,-14 42,-19c29,-15 46,-10 53,14c7,25 12,38 49,119c14,31 26,60 26,63c0,7 25,68 40,96c5,9 30,68 55,130c26,63 51,119 55,124c5,6 10,23 12,38c3,29 -6,35 -152,91c-8,3 -22,10 -30,15c-16,9 -26,14 -144,61c-44,18 -87,35 -95,40c-9,4 -34,15 -56,25c-22,9 -48,21 -57,26c-26,13 -58,11 -58,-4zm368,-444l-3,-188l-75,0c-74,0 -75,0 -78,28c-3,23 -8,27 -33,27c-25,0 -30,5 -35,29c-5,23 -12,31 -33,33c-21,2 -27,9 -29,35c-3,28 -7,32 -35,35c-26,2 -33,8 -35,30c-3,21 -9,27 -30,30c-25,3 -27,7 -30,52c-5,80 -17,76 213,76l205,0l-2,-187z"/>
   <path id="svg_192" d="m2911.818144,4950.454346c0,-22 4,-25 35,-25c32,0 35,-2 35,-30c0,-27 3,-30 30,-30c27,0 30,-3 30,-30c0,-28 3,-30 35,-30c33,0 35,-2 35,-35c0,-33 2,-35 35,-35c31,0 35,-3 35,-25c0,-22 4,-25 35,-25l35,0l0,145l0,145l-170,0l-170,0l0,-25z"/>
   <path id="svg_193" d="m11994.818144,5243.454346c-6,-7 -20,-39 -31,-70c-12,-32 -26,-66 -31,-75c-15,-29 -43,-94 -151,-353c-98,-235 -114,-273 -166,-388c-13,-29 -24,-59 -24,-67c0,-7 -4,-16 -9,-19c-4,-3 -16,-27 -26,-53c-9,-26 -28,-71 -41,-100c-29,-63 -30,-89 -4,-103c11,-6 150,-65 308,-131c158,-66 300,-127 316,-135c40,-20 42,-19 60,26c8,21 25,61 37,87c24,55 42,95 59,138c7,17 18,44 25,60c7,17 18,44 25,60c7,17 16,38 21,47c5,9 54,126 110,260c55,134 109,261 119,283c10,22 25,56 33,75c9,19 27,61 41,94c36,82 35,90 -26,116c-29,12 -73,31 -98,42c-57,26 -98,43 -130,56c-14,6 -50,21 -80,35c-30,13 -86,37 -125,52c-38,15 -93,39 -122,52c-59,26 -76,28 -90,11z"/>
   <path id="svg_194"/>
   <path id="svg_195" d="m5248.513052,4916.759437c-42,-9 -50,-14 -37,-22c9,-5 -11,-62 -74,-212c-47,-112 -92,-218 -101,-236c-23,-50 -3,-68 144,-129c70,-30 142,-60 158,-67c17,-8 41,-19 55,-25c14,-5 46,-19 72,-31c26,-12 51,-21 55,-21c4,0 27,-9 52,-21c25,-11 55,-25 66,-29c11,-5 45,-20 75,-33c30,-14 102,-44 160,-67c58,-23 112,-45 121,-50c8,-4 82,-35 163,-69c81,-34 168,-71 194,-82c93,-42 110,-49 117,-49c3,0 32,-12 63,-26c31,-14 68,-30 82,-36c14,-6 32,-14 40,-18c8,-4 78,-33 155,-64c77,-32 147,-61 156,-66c9,-4 94,-40 189,-80c95,-40 180,-76 189,-80c9,-5 52,-23 95,-40c44,-18 87,-36 95,-40c9,-4 30,-13 46,-20c17,-7 37,-16 46,-20c9,-5 163,-70 342,-144c304,-127 361,-146 383,-124c2,2 46,107 99,233c104,249 151,381 157,434c3,33 1,35 -47,54c-27,11 -74,30 -103,43c-29,13 -55,24 -58,24c-3,0 -31,12 -62,26c-31,14 -66,29 -77,34c-11,4 -37,15 -58,25c-49,21 -73,13 -93,-33c-31,-70 -49,-102 -57,-102c-4,0 -34,12 -65,26c-31,14 -66,29 -77,34c-11,5 -46,20 -77,34c-31,14 -63,26 -70,26c-8,0 -18,4 -24,9c-5,5 -34,19 -64,31c-30,12 -64,26 -75,30c-11,5 -40,17 -65,28c-25,11 -155,66 -290,122c-134,56 -251,106 -260,110c-8,4 -26,12 -40,18c-14,6 -51,22 -82,36c-31,14 -61,26 -67,26c-5,0 -22,6 -38,14c-58,30 -144,66 -156,66c-7,0 -17,4 -22,9c-6,5 -116,53 -245,106c-129,54 -260,108 -290,122c-30,14 -64,28 -75,33c-11,4 -41,17 -67,29c-26,12 -51,21 -55,21c-4,0 -27,9 -52,21c-25,11 -57,25 -71,31c-14,6 -32,14 -40,18c-8,4 -78,33 -155,65c-77,32 -163,68 -192,81c-28,13 -55,23 -60,23c-4,-1 -17,-3 -28,-6z"/>
   <path id="svg_196" d="m3413.513052,4698.759437c0,-8 5,-15 10,-15c6,0 10,7 10,15c0,8 -4,15 -10,15c-5,0 -10,-7 -10,-15z"/>
   <path id="svg_197" d="m5249.513052,4218.759437c-9,-13 -25,-48 -37,-77c-11,-28 -32,-77 -45,-107c-14,-31 -29,-65 -34,-76c-4,-11 -17,-41 -29,-67c-12,-26 -21,-50 -21,-53c0,-3 -9,-27 -21,-53c-12,-26 -26,-58 -31,-72c-6,-14 -14,-33 -19,-42c-23,-45 -24,-45 201,-138c95,-40 180,-75 189,-80c9,-4 27,-12 41,-18c14,-5 47,-20 74,-32c55,-24 79,-23 84,5c2,11 17,49 34,85c16,36 35,76 40,90c15,38 34,81 74,175c13,31 39,95 53,130c5,11 13,31 19,45c23,55 23,64 -6,78c-15,7 -92,40 -172,74c-79,33 -151,64 -160,68c-8,4 -26,12 -40,18c-14,5 -38,15 -55,22c-16,7 -51,20 -77,31l-46,18l-16,-24zm366,-255c2,-5 2,-91 0,-190l-3,-181l-77,3c-70,3 -77,5 -80,24c-2,15 -12,24 -33,28c-24,5 -29,10 -29,36c0,27 -3,30 -30,30c-25,0 -31,5 -36,28c-4,21 -14,31 -37,38c-25,7 -33,15 -35,37c-3,23 -8,27 -33,27c-29,0 -29,0 -29,58c0,32 3,62 7,65c11,11 411,8 415,-3z"/>
   <path id="svg_198" d="m5233.513052,3908.759437c0,-22 4,-25 35,-25c32,0 35,-2 35,-30c0,-27 3,-30 30,-30c27,0 30,-3 30,-30c0,-28 3,-30 35,-30c33,0 35,-2 35,-35c0,-33 2,-35 35,-35c32,0 35,-2 35,-31c0,-28 2,-30 33,-27l32,3l3,148l3,147l-171,0l-170,0l0,-25z"/>
   <path id="svg_199" d="m5876.513052,3976.759437c-7,-3 -13,-11 -13,-19c0,-14 -4,-23 -27,-69c-29,-57 -213,-507 -213,-520c0,-9 8,-18 18,-21c9,-3 24,-9 33,-14c8,-4 51,-22 95,-40c106,-43 112,-45 164,-68c98,-44 262,-112 270,-112c4,0 11,12 15,27c3,15 18,52 32,83c14,30 32,71 40,90c23,56 30,72 56,130c13,30 37,87 52,125c15,39 37,89 48,113c11,25 16,47 11,52c-5,4 -87,40 -183,80c-96,39 -181,75 -190,80c-18,9 -70,31 -116,50c-16,7 -41,18 -55,25c-14,7 -31,10 -37,8zm312,-413l0,-175l-160,0l-160,0l-3,165c-1,90 0,170 3,177c3,11 39,13 162,11l158,-3l0,-175zm88,-5l17,-35l-35,0c-38,0 -41,6 -23,45c15,33 21,32 41,-10zm7,-60c0,-4 -7,-20 -16,-37c-17,-33 -29,-29 -39,15c-7,25 -5,27 24,27c17,0 31,-2 31,-5z"/>
   <path id="svg_200" d="m5893.513052,3563.759437l0,-140l65,0l65,0l0,140l0,140l-65,0l-65,0l0,-140z"/>
   <path id="svg_201" d="m6033.513052,3563.759437l0,-140l65,0l65,0l0,140l0,140l-65,0l-65,0l0,-140z"/>
   <path id="svg_202" d="m6353.513052,3388.759437c0,-8 5,-15 10,-15c6,0 10,7 10,15c0,8 -4,15 -10,15c-5,0 -10,-7 -10,-15z"/>
   <path stroke="null" id="svg_203" d="m4850.785635,9204.568042c0,8.802698 6.363628,15.353546 15.909065,15.353546c9.545437,0 15.909056,-6.550848 15.909056,-15.353546c0,-8.8027 -6.363619,-15.353546 -15.909056,-15.353546c-9.545437,0 -15.909065,6.550846 -15.909065,15.353546z"/>
  </g>
 </g>
</svg>